<?xml version="1.0" standalone="no"?>
<!DOCTYPE svg PUBLIC "-//W3C//DTD SVG 1.1//EN" "http://www.w3.org/Graphics/SVG/1.1/DTD/svg11.dtd" >
<svg>
<metadata>
Created by FontForge 20090622 at Thu Jan 28 09:48:17 2016
 By deploy user
Digitized data copyright The Monotype Corporation 1991-1995. All rights reserved. Perpetua&#194;&#174; is a trademark of The Monotype Corporation which may be registered in certain jurisdictions.
</metadata>
<defs>
<font id="Perpetua-BoldItalic" horiz-adv-x="938" >
  <font-face 
    font-family="Perpetua"
    font-weight="700"
    font-style="italic"
    font-stretch="normal"
    units-per-em="2048"
    panose-1="2 2 8 2 6 4 1 9 3 3"
    ascent="1638"
    descent="-410"
    x-height="723"
    cap-height="1163"
    bbox="-422 -668 2097 1878"
    underline-thickness="102"
    underline-position="-103"
    slope="-12.228"
    unicode-range="U+0020-U+F003"
  />
<missing-glyph horiz-adv-x="2048" 
d="M256 0v1536h1536v-1536h-1536zM384 128h1280v1280h-1280v-1280z" />
    <glyph glyph-name=".notdef" horiz-adv-x="2048" 
d="M256 0v1536h1536v-1536h-1536zM384 128h1280v1280h-1280v-1280z" />
    <glyph glyph-name=".null" horiz-adv-x="0" 
 />
    <glyph glyph-name="nonmarkingreturn" horiz-adv-x="461" 
 />
    <glyph glyph-name="space" unicode=" " horiz-adv-x="461" 
 />
    <glyph glyph-name="exclam" unicode="!" horiz-adv-x="532" 
d="M231 307l91 748q15 124 43.5 177.5t85.5 53.5q36 0 58.5 -26t22.5 -68q0 -60 -36 -174l-230 -711h-35zM86 100q0 54 38.5 91.5t92.5 37.5t91.5 -37.5t37.5 -91.5q0 -53 -38 -92t-91 -39t-92 39t-39 92z" />
    <glyph glyph-name="quotedbl" unicode="&#x22;" horiz-adv-x="1137" 
d="M803 676l-53 295q-23 142 -23 170q0 119 96 119q45 0 75 -29.5t30 -77.5q0 -40 -27 -182l-55 -295h-43zM436 676l-53 295q-23 142 -23 170q0 119 97 119q44 0 74 -29.5t30 -77.5q0 -40 -26 -182l-56 -295h-43z" />
    <glyph glyph-name="numbersign" unicode="#" horiz-adv-x="1368" 
d="M477 977l84 399h127l-84 -399h416l84 399h127l-84 -399h188v-127h-215l-80 -369h295v-127h-321l-84 -399h-127l84 399h-416l-84 -399h-127l84 399h-188v127h215l80 369h-295v127h321zM993 850h-415l-80 -369h415z" />
    <glyph glyph-name="dollar" unicode="$" 
d="M655 1274l-24 -111q133 -20 213 -76l-56 -264h-34q4 37 4 69q0 196 -140 208l-92 -424q118 -139 172 -228.5t54 -177.5q0 -123 -96 -211t-239 -88q-20 0 -40 2l-33 -159h-72l35 159q-122 12 -215 86l58 263h34q-8 -48 -8 -88q0 -170 143 -201l99 467q-100 121 -137 187
t-37 167q0 123 83.5 211.5t231.5 97.5l25 111h71zM469 739l78 359q-63 -12 -105.5 -67.5t-42.5 -123.5q0 -57 70 -168zM477 438l-86 -405q82 8 134.5 65t52.5 131q0 48 -19.5 87.5t-81.5 121.5z" />
    <glyph glyph-name="percent" unicode="%" horiz-adv-x="1493" 
d="M176 803q0 150 106.5 288t245.5 138q81 0 136 -65.5t55 -164.5q0 -158 -108.5 -292t-235.5 -134q-86 0 -142.5 65t-56.5 165zM578 1001q0 179 -89 179q-64 0 -117 -110.5t-53 -254.5q0 -192 82 -192q70 0 123.5 111.5t53.5 266.5zM1417 1229l-1071 -1243h-125l1071 1243
h125zM918 213q0 151 106 288.5t246 137.5q81 0 135.5 -65.5t54.5 -163.5q0 -159 -108.5 -292.5t-235.5 -133.5q-85 0 -141.5 64.5t-56.5 164.5zM1319 412q0 178 -88 178q-64 0 -117 -110.5t-53 -254.5q0 -192 82 -192q69 0 122.5 112t53.5 267z" />
    <glyph glyph-name="ampersand" unicode="&#x26;" horiz-adv-x="1473" 
d="M1626 -98l14 -33q-128 -94 -268 -94q-109 0 -210 62t-281 265q-193 -133 -361 -133q-144 0 -245 96t-101 232q0 260 361 375q-54 113 -54 237q0 121 96 203t240 82q117 0 189.5 -57.5t72.5 -147.5q0 -195 -317 -287q47 -104 266 -405q117 136 117 246q0 55 -30.5 88
t-82.5 33q-25 0 -61 -15l6 37q73 33 135 33q109 0 109 -125q0 -157 -162 -338q263 -371 450 -371q42 0 117 17zM678 979q0 -116 61 -229q162 82 162 231q0 63 -30 103t-76 40q-49 0 -83 -42t-34 -103zM555 623q-154 -60 -154 -199q0 -121 84 -226.5t207 -105.5q65 0 154 53
q-173 223 -291 478z" />
    <glyph glyph-name="quotesingle" unicode="'" horiz-adv-x="569" 
d="M336 676l-53 295q-23 142 -23 170q0 119 96 119q45 0 75 -29.5t30 -77.5q0 -40 -27 -182l-55 -295h-43z" />
    <glyph glyph-name="parenleft" unicode="(" horiz-adv-x="811" 
d="M856 1237h55q-275 -271 -418 -606.5t-143 -691.5q0 -292 135 -607h-32q-289 417 -289 807q0 637 692 1098z" />
    <glyph glyph-name="parenright" unicode=")" horiz-adv-x="811" 
d="M-47 -668h-55q274 268 417.5 603t143.5 696q0 162 -28.5 287t-104.5 319h32q287 -424 287 -807q0 -640 -692 -1098z" />
    <glyph glyph-name="asterisk" unicode="*" horiz-adv-x="1044" 
d="M639 856q47 24 122 90.5t113 82t72 15.5q47 0 77 -29t30 -75q0 -56 -45 -89.5t-121 -33.5q-52 0 -105.5 7t-73.5 7q-29 0 -59 -8q21 -27 120 -85.5t129 -100.5t30 -84q0 -43 -31 -72.5t-76 -29.5q-53 0 -91 40.5t-64 164.5t-43 149q-24 -29 -55 -156.5t-65.5 -165
t-80.5 -37.5t-79.5 31.5t-33.5 75.5t35.5 89t135 104t114.5 77q-24 7 -60 7l-192 -9q-75 0 -115.5 33.5t-40.5 85.5q0 46 31.5 78.5t77.5 32.5q35 0 72.5 -16.5t111.5 -87.5t125 -91q-3 44 -47.5 142t-44.5 167q0 48 33.5 82.5t79.5 34.5t77 -34t31 -85q0 -69 -46.5 -165
t-47.5 -142z" />
    <glyph glyph-name="plus" unicode="+" horiz-adv-x="1366" 
d="M203 608h481v482h127v-482h481v-127h-481v-481h-127v481h-481v127z" />
    <glyph glyph-name="comma" unicode="," horiz-adv-x="532" 
d="M-25 -291l9 33q96 26 147 82.5t51 120.5q0 21 -51 54.5t-51 102.5q0 56 37.5 92.5t93.5 36.5q60 0 94.5 -38.5t34.5 -106.5q0 -125 -99.5 -237t-265.5 -140z" />
    <glyph glyph-name="hyphen" unicode="-" horiz-adv-x="748" 
d="M672 442l-31 -149h-565l30 149h566z" />
    <glyph glyph-name="period" unicode="." horiz-adv-x="532" 
d="M86 100q0 54 38.5 91.5t92.5 37.5t91.5 -37.5t37.5 -91.5q0 -53 -38 -92t-91 -39t-92 39t-39 92z" />
    <glyph glyph-name="slash" unicode="/" horiz-adv-x="1087" 
d="M860 1210h137l-606 -1241h-137z" />
    <glyph glyph-name="zero" unicode="0" 
d="M406 -31q-140 0 -227 127t-87 328q0 274 179 539.5t391 265.5q137 0 225 -124t88 -323q0 -303 -180.5 -558t-388.5 -255zM604 1159q-128 0 -219.5 -229.5t-91.5 -499.5q0 -391 164 -391q139 0 228 241.5t89 514.5q0 364 -170 364z" />
    <glyph glyph-name="one" unicode="1" 
d="M377 252l153 717q4 18 4 33q0 63 -57 63q-39 0 -108 -35l8 41l358 154h37l-215 -1016q-10 -47 -10 -77q0 -54 32.5 -75.5t120.5 -21.5l-8 -35h-520l8 35q94 0 130 37.5t67 179.5z" />
    <glyph glyph-name="two" unicode="2" 
d="M793 160l-33 -160h-699l11 43q361 326 498 548t137 353q0 75 -51 126.5t-126 51.5q-104 0 -264 -153l-24 18q190 242 401 242q120 0 192 -67.5t72 -178.5q0 -157 -154.5 -350t-471.5 -473h512z" />
    <glyph glyph-name="three" unicode="3" 
d="M319 1036l-22 23q162 170 365 170q103 0 168 -63t65 -162q0 -126 -95.5 -223t-258.5 -142v-4q140 -12 212 -89t72 -202q0 -156 -121.5 -265.5t-295.5 -109.5q-204 0 -375 158l20 27q83 -52 130.5 -68t117.5 -16q139 0 231.5 95t92.5 238q0 199 -273 199l8 35
q172 52 257 126.5t85 190.5q0 79 -48 124.5t-126 45.5q-83 0 -209 -88z" />
    <glyph glyph-name="four" unicode="4" 
d="M707 270l-64 -299h-186l63 299h-516l8 39l854 916h43l-180 -850h164l-23 -105h-163zM147 375h396l119 551z" />
    <glyph glyph-name="five" unicode="5" 
d="M449 1018l-82 -383q57 10 106 10q160 0 250 -81t90 -226q0 -166 -110.5 -267.5t-292.5 -101.5q-163 0 -324 117l20 27q154 -74 248 -74q113 0 185.5 80.5t72.5 208.5q0 247 -243 247q-44 0 -86 -8l135 631h514l-68 -180h-415z" />
    <glyph glyph-name="six" unicode="6" 
d="M393 635q114 106 248 106q104 0 177 -84.5t73 -205.5q0 -196 -129.5 -339t-304.5 -143q-153 0 -243.5 107.5t-90.5 290.5q0 297 244 568t608 290l-6 -35q-378 -69 -580 -551zM541 639q-106 0 -166 -96.5t-60 -235.5q0 -121 50 -194.5t131 -73.5q96 0 155.5 91.5
t59.5 244.5q0 125 -45 194.5t-125 69.5z" />
    <glyph glyph-name="seven" unicode="7" 
d="M1020 1198l-6 -35l-508 -1188h-221l604 1024h-414q-188 0 -233 -143h-35l94 342h719z" />
    <glyph glyph-name="eight" unicode="8" 
d="M459 614q-129 172 -129 293q0 127 109 224.5t253 97.5q106 0 173 -62.5t67 -158.5q0 -174 -285 -340q90 -127 121 -199.5t31 -155.5q0 -145 -107.5 -244.5t-265.5 -99.5q-129 0 -209 69t-80 179q0 103 67 184.5t255 212.5zM612 717q168 123 168 276q0 71 -44 118.5
t-109 47.5q-63 0 -107.5 -45.5t-44.5 -109.5q0 -65 58.5 -155.5t78.5 -131.5zM489 563q-200 -160 -200 -338q0 -77 53.5 -131.5t128.5 -54.5q73 0 120.5 53.5t47.5 136.5q0 140 -150 334z" />
    <glyph glyph-name="nine" unicode="9" 
d="M121 -31l6 37q376 56 580 553l-5 4q-114 -106 -245 -106q-105 0 -177.5 84.5t-72.5 206.5q0 196 128.5 338.5t303.5 142.5q153 0 243.5 -107.5t90.5 -290.5q0 -315 -255 -583.5t-597 -278.5zM604 1159q-103 0 -161 -91.5t-58 -244.5q0 -264 174 -264q102 0 162.5 100
t60.5 232q0 121 -49 194.5t-129 73.5z" />
    <glyph glyph-name="colon" unicode=":" horiz-adv-x="532" 
d="M184 586q0 53 39 91t92 38q54 0 91.5 -38t37.5 -91q0 -54 -37.5 -92.5t-91.5 -38.5q-53 0 -92 38.5t-39 92.5zM86 100q0 54 38.5 91.5t92.5 37.5t91.5 -37.5t37.5 -91.5q0 -53 -38 -92t-91 -39t-92 39t-39 92z" />
    <glyph glyph-name="semicolon" unicode=";" horiz-adv-x="532" 
d="M184 586q0 53 39 91t92 38q54 0 91.5 -38t37.5 -91q0 -54 -37.5 -92.5t-91.5 -38.5q-53 0 -92 38.5t-39 92.5zM-25 -291l9 33q96 26 147 82.5t51 120.5q0 21 -51 54.5t-51 102.5q0 56 37.5 92.5t93.5 36.5q60 0 94.5 -38.5t34.5 -106.5q0 -125 -99.5 -237t-265.5 -140z
" />
    <glyph glyph-name="less" unicode="&#x3c;" horiz-adv-x="1366" 
d="M205 543v119l1085 456v-141l-909 -375l909 -375v-141z" />
    <glyph glyph-name="equal" unicode="=" horiz-adv-x="1366" 
d="M203 842h1089v-127h-1089v127zM203 369h1089v-127h-1089v127z" />
    <glyph glyph-name="greater" unicode="&#x3e;" horiz-adv-x="1366" 
d="M1292 543l-1085 -457v141l909 375l-909 375v141l1085 -456v-119z" />
    <glyph glyph-name="question" unicode="?" horiz-adv-x="748" 
d="M291 311h-39q9 85 37 148.5t142 156t155 160t41 137.5q0 62 -48.5 107t-115.5 45q-105 0 -211 -131l-33 12q49 127 136 195.5t192 68.5q104 0 171.5 -74t67.5 -190q0 -120 -65.5 -208.5t-194.5 -175.5t-173 -141.5t-62 -109.5zM84 100q0 54 38.5 91.5t92.5 37.5
t91.5 -37.5t37.5 -91.5q0 -53 -38 -92t-91 -39t-92 39t-39 92z" />
    <glyph glyph-name="at" unicode="@" horiz-adv-x="1704" 
d="M1403 956l-184 -632q-27 -98 -27 -146q0 -32 21.5 -54t52.5 -22q152 0 289 199t137 455q0 269 -183 442.5t-467 173.5q-372 0 -615 -286t-243 -668q0 -352 220 -576.5t563 -224.5q269 0 478.5 142.5t326.5 412.5h57q-93 -288 -333 -451t-533 -163q-375 0 -624 252.5
t-249 633.5q0 410 276 694.5t670 284.5q319 0 517 -190.5t198 -495.5q0 -272 -155.5 -489t-395.5 -217q-153 0 -153 137q0 55 16 143l-4 4q-210 -284 -389 -284q-76 0 -129.5 67t-53.5 164q0 233 191.5 467t359.5 234q147 0 172 -138h4l31 111zM1053 918q-130 0 -268 -234.5
t-138 -388.5q0 -60 34.5 -101.5t82.5 -41.5q124 0 267 199t143 427q0 62 -34 101t-87 39z" />
    <glyph glyph-name="A" unicode="A" horiz-adv-x="1194" 
d="M743 219v178h-309l-149 -225q-30 -45 -30 -72q0 -50 101 -65l-6 -35h-358l6 35q81 11 126.5 54.5t125.5 162.5l631 942h98v-989q0 -97 25.5 -133t115.5 -37l-6 -35h-518l6 35q77 7 109 40.5t32 143.5zM743 479v387h-4l-252 -387h256z" />
    <glyph glyph-name="B" unicode="B" horiz-adv-x="1217" 
d="M246 229l178 840q-99 -24 -182 -94l-23 26q215 193 500 193q184 0 290.5 -76t106.5 -205q0 -236 -311 -299v-4q163 -19 251.5 -97t88.5 -194q0 -128 -111.5 -223.5t-285.5 -95.5h-705l8 35q81 15 125 43.5t70 150.5zM666 1096l-95 -447q27 -4 70 -4q109 0 179.5 65
t70.5 181q0 99 -59.5 154t-165.5 51zM555 578l-82 -392q-2 -10 -2 -20q0 -44 35 -72t96 -28q128 0 213.5 79t85.5 197q0 99 -83 168.5t-204 69.5q-47 0 -59 -2z" />
    <glyph glyph-name="C" unicode="C" horiz-adv-x="1087" 
d="M1110 1210l-41 -321h-29q-16 112 -78 173.5t-151 61.5q-169 0 -294.5 -191t-125.5 -458q0 -180 84 -289.5t219 -109.5q179 0 318 196l26 -16q-86 -146 -187 -216.5t-259 -70.5q-208 0 -326.5 133.5t-118.5 368.5q0 315 191 519t438 204q72 0 133.5 -13.5t96.5 -13.5
q49 0 73 43h31z" />
    <glyph glyph-name="D" unicode="D" horiz-adv-x="1473" 
d="M276 195l189 878q-120 -26 -258 -135l-23 25q245 231 592 231q310 0 502 -171.5t192 -424.5q0 -180 -98.5 -324t-259.5 -209t-510 -65h-528l8 35q91 11 134.5 46t59.5 114zM702 1098l-182 -854q-12 -56 -12 -85q0 -54 41.5 -71.5t148.5 -17.5q246 0 387.5 144.5
t141.5 363.5t-149 369.5t-365 150.5h-11z" />
    <glyph glyph-name="E" unicode="E" horiz-adv-x="1130" 
d="M961 737l-62 -288h-35q-10 116 -153 116h-174l-72 -338q-12 -58 -12 -83q0 -46 34.5 -61t116.5 -15h168q77 0 135.5 48t120.5 146h33l-105 -262h-911l8 35q75 13 115 52t61 140l160 752q6 24 6 44q0 84 -127 105l6 35h816l-46 -209h-38q-8 77 -28.5 109.5t-96.5 32.5
h-232l-98 -463h160q169 0 215 104h35z" />
    <glyph glyph-name="F" unicode="F" horiz-adv-x="1067" 
d="M563 565l-78 -368q-6 -31 -6 -54q0 -102 144 -108l-7 -35h-565l6 35q89 5 132.5 43t64.5 137l158 731q8 41 8 68q0 97 -129 114l6 35h817l-33 -209h-37q-17 142 -133 142h-235l-98 -463h149q97 0 131.5 18.5t67.5 87.5h32l-61 -288h-33q-6 114 -151 114h-150z" />
    <glyph glyph-name="G" unicode="G" horiz-adv-x="1343" 
d="M1153 270l-49 -235q-225 -66 -424 -66q-535 0 -535 484q0 299 206.5 520t484.5 221q73 0 173.5 -12.5t112.5 -12.5q48 0 82 54h35l-68 -322h-34q0 104 -67 163.5t-169 59.5q-220 0 -366 -188.5t-146 -478.5q0 -200 86 -309t244 -109q80 0 155 27l52 239q4 21 4 38
q0 100 -133 106l8 34h534l-6 -34q-82 -9 -121 -47t-59 -132z" />
    <glyph glyph-name="H" unicode="H" horiz-adv-x="1579" 
d="M1145 575h-594l-86 -403q-4 -17 -4 -32q0 -93 133 -105l-6 -35h-545l6 35q99 22 132.5 53t49.5 107l166 753q7 29 7 53q0 113 -144 127l6 35h557l-6 -35q-96 -20 -133 -61.5t-55 -124.5l-62 -280h594l58 262q12 56 12 88q0 92 -137 116l6 35h551l-6 -35
q-79 -15 -121 -43.5t-66 -140.5l-162 -760q-4 -22 -4 -40q0 -94 133 -109l-6 -35h-545l7 35q101 18 134.5 58.5t53.5 133.5z" />
    <glyph glyph-name="I" unicode="I" horiz-adv-x="748" 
d="M631 936l-162 -764q-4 -17 -4 -33q0 -95 135 -104l-8 -35h-547l8 35q97 22 133.5 61.5t55.5 124.5l153 715q10 44 10 74q0 96 -129 118l5 35h524l-4 -35q-88 -21 -118.5 -55.5t-51.5 -136.5z" />
    <glyph glyph-name="J" unicode="J" horiz-adv-x="854" 
d="M279 -70l215 1004q11 51 11 81q0 95 -140 113l4 35h553l-4 -35q-81 -12 -122.5 -45.5t-66.5 -148.5l-205 -957q-95 -438 -483 -438q-126 0 -238 80l17 29q79 -39 143 -39q247 0 316 321z" />
    <glyph glyph-name="K" unicode="K" horiz-adv-x="1366" 
d="M743 702l289 -452q139 -216 285 -215l-8 -35h-543l8 35q80 5 80 56q0 38 -45 106l-262 399l-84 -401q-6 -29 -6 -51q0 -98 121 -109l-9 -35h-501l8 35q77 19 104.5 51.5t46.5 122.5l156 719q10 49 10 80q0 101 -135 120l6 35h541l-6 -35q-70 -13 -112.5 -48t-61.5 -124
l-70 -321l4 -4l354 317q85 76 85 124q0 41 -64 56l6 35h375l-6 -35q-104 -20 -213 -116z" />
    <glyph glyph-name="L" unicode="L" horiz-adv-x="1067" 
d="M1067 260l-104 -260h-924l8 35q85 13 125 50t61 138l152 703q13 58 13 88q0 91 -144 114l6 35h567l-6 -35q-110 -29 -143.5 -62.5t-56.5 -139.5l-148 -672q-13 -60 -13 -94q0 -52 30.5 -72t105.5 -20h139q88 0 155 45.5t142 146.5h35z" />
    <glyph glyph-name="M" unicode="M" horiz-adv-x="1556" 
d="M1452 936l-158 -733q-7 -38 -7 -62q0 -91 138 -106l-6 -35h-553l6 35q103 15 137 55t54 133l145 684l-4 4l-596 -911h-45l6 907l-4 4l-301 -708q-25 -57 -25 -88q0 -68 113 -80l-6 -35h-334l6 35q65 23 100.5 64.5t76.5 129.5l380 826q-73 77 -186 73l4 35h418l-2 -739
l4 -4l481 743h334l-4 -35q-89 -21 -119.5 -54.5t-52.5 -137.5z" />
    <glyph glyph-name="N" unicode="N" horiz-adv-x="1409" 
d="M1346 932l-183 -950h-53l-614 931l-127 -686q-7 -36 -7 -63q0 -109 136 -129l-6 -35h-371l6 35q66 10 104.5 47.5t61.5 144.5l164 768q-55 79 -98.5 104t-141.5 29l6 35h393l547 -825l111 602q7 40 7 71q0 117 -120 117l6 35h357l-6 -35q-138 -18 -172 -196z" />
    <glyph glyph-name="O" unicode="O" horiz-adv-x="1366" 
d="M897 1194q199 0 334 -127t135 -342q0 -292 -225.5 -524t-507.5 -232q-207 0 -345 124.5t-138 340.5q0 286 221.5 523t525.5 237zM672 39q190 0 320 229t130 494q0 161 -77 261.5t-199 100.5q-190 0 -321.5 -228t-131.5 -493q0 -163 77.5 -263.5t201.5 -100.5z" />
    <glyph glyph-name="P" unicode="P" horiz-adv-x="1174" 
d="M575 549l-83 -389q-3 -11 -3 -21q0 -94 148 -104l-8 -35h-555l6 35q94 19 129.5 54t52.5 118l184 872q-104 -33 -215 -108l-18 26q260 197 516 197q200 0 322.5 -90.5t122.5 -235.5q0 -148 -117 -252t-287 -104q-94 0 -195 37zM690 1098l-104 -500q50 -16 90 -16
q114 0 184 77t70 203q0 107 -65.5 171.5t-174.5 64.5z" />
    <glyph glyph-name="Q" unicode="Q" horiz-adv-x="1366" 
d="M1903 -213l24 -29q-196 -241 -442 -241q-154 0 -350.5 117.5t-405.5 342.5q-47 -7 -96 -7q-206 0 -344.5 124.5t-138.5 339.5q0 295 225 527.5t510 232.5q215 0 348 -129.5t133 -339.5q0 -194 -110 -375.5t-304 -294.5q129 -175 296.5 -273.5t332.5 -98.5q119 0 322 104z
M672 39q193 0 321.5 225.5t128.5 497.5q0 161 -77 261.5t-199 100.5q-188 0 -320.5 -226.5t-132.5 -494.5q0 -163 77.5 -263.5t201.5 -100.5z" />
    <glyph glyph-name="R" unicode="R" horiz-adv-x="1280" 
d="M537 580l-80 -371q-8 -38 -8 -65q0 -98 124 -109l-6 -35h-528l8 35q95 23 125 58.5t51 133.5l183 858q-112 -34 -218 -114l-26 22q215 201 522 201q199 0 316.5 -81.5t117.5 -217.5q0 -119 -88.5 -203t-236.5 -84v-4q139 -24 190.5 -79.5t105.5 -213t87 -201.5t112 -75
l-6 -35h-434l6 37q67 20 67 67q0 12 -6 27l-92 260q-66 189 -252 189h-34zM647 1098l-98 -453q45 -10 86 -10q111 0 175 73t64 164q0 98 -63 163t-164 63z" />
    <glyph glyph-name="S" unicode="S" horiz-adv-x="897" 
d="M887 1194l-51 -285h-41q-6 215 -177 215q-77 0 -132.5 -59t-55.5 -143q0 -45 28 -101t151 -194t159.5 -217t36.5 -146q0 -134 -103.5 -214.5t-277.5 -80.5q-77 0 -168.5 15.5t-105.5 15.5q-41 0 -60 -31h-33l60 287h35q35 -217 225 -217q83 0 137.5 48t54.5 122
q0 49 -27.5 107.5t-143 187.5t-148.5 203t-33 139q0 144 108 246t261 102q34 0 117 -15.5t90 -15.5q40 0 61 31h33z" />
    <glyph glyph-name="T" unicode="T" horiz-adv-x="1174" 
d="M872 1096l-194 -916q-4 -20 -4 -37q0 -98 137 -108l-8 -35h-543l8 35q101 20 132.5 56.5t52.5 133.5l184 871h-143q-191 0 -242 -150h-35l51 248h35q28 -31 90 -31h731q85 0 105 31h31l-54 -248h-35q-14 150 -143 150h-156z" />
    <glyph glyph-name="U" unicode="U" horiz-adv-x="1579" 
d="M1436 930l-101 -469q-46 -217 -202 -354.5t-377 -137.5q-216 0 -341.5 123t-125.5 293q0 97 22 199l84 379q6 25 6 46q0 109 -143 119l6 35h553l-6 -35q-80 -15 -121 -44.5t-67 -153.5l-109 -502q-18 -80 -18 -149q0 -107 70 -173.5t184 -66.5q124 0 211.5 89t121.5 251
l125 586q8 35 8 57q0 50 -38 72.5t-113 33.5l6 35h584l-6 -35q-100 -15 -144.5 -50.5t-68.5 -147.5z" />
    <glyph glyph-name="V" unicode="V" horiz-adv-x="1194" 
d="M1178 985l-725 -1014h-31l6 987q0 100 -26 131t-85 39l7 35h458l-4 -35q-114 -7 -114 -170v-585h4l389 563q46 67 46 119q0 73 -93 73l6 35h323l-6 -35q-62 -12 -155 -143z" />
    <glyph glyph-name="W" unicode="W" horiz-adv-x="1835" 
d="M1939 1163l-8 -35q-111 -55 -200 -190l-637 -967h-39l14 938l-4 4l-621 -942h-34l18 981q2 96 -22 133.5t-82 42.5l6 35h463l-7 -35q-66 -2 -94.5 -40.5t-29.5 -161.5l-9 -518l4 -5l412 641q-6 76 -104 84l6 35h452l-6 -35q-48 -7 -76.5 -41.5t-31.5 -156.5l-15 -522
l4 -5l349 537q43 63 43 109q0 72 -84 79l8 35h325z" />
    <glyph glyph-name="X" unicode="X" horiz-adv-x="1323" 
d="M834 666l182 -451q48 -120 86.5 -149t105.5 -31l-6 -35h-510l6 35q95 6 95 86q0 44 -31 121l-94 233l-291 -311q-49 -51 -49 -81q0 -43 102 -48l-6 -35h-399l6 35q142 22 266 153l342 363l-186 461q-40 97 -164 116l6 35h520l-6 -35q-100 0 -100 -89q0 -30 14 -68
l86 -232l219 224q60 59 60 105q0 50 -74 60l6 35h375l-6 -35q-140 -31 -215 -110z" />
    <glyph glyph-name="Y" unicode="Y" horiz-adv-x="1194" 
d="M811 618l-88 -411q-8 -37 -8 -63q0 -100 137 -109l-8 -35h-580l8 35q99 14 147.5 50t69.5 136l78 367l-153 332q-87 189 -201 208l6 35h504l-6 -35q-84 -1 -84 -80q0 -61 49 -165l94 -201l211 262q57 72 57 117q0 60 -98 67l6 35h369l-6 -35q-113 -23 -242 -184z" />
    <glyph glyph-name="Z" unicode="Z" horiz-adv-x="1217" 
d="M1104 262l-55 -262h-973l8 35l860 1061h-371q-89 0 -141.5 -45t-91.5 -144h-35l55 256h908l-6 -26l-861 -1069h428q163 0 240 194h35z" />
    <glyph glyph-name="bracketleft" unicode="[" horiz-adv-x="811" 
d="M846 1210l-6 -34h-84q-66 0 -99.5 -20.5t-52.5 -108.5l-315 -1493q-8 -41 -8 -66q0 -49 25.5 -67.5t88.5 -18.5h66l-8 -35h-406l393 1843h406z" />
    <glyph glyph-name="backslash" unicode="\" horiz-adv-x="1087" 
d="M371 1210l606 -1241h-137l-607 1241h138z" />
    <glyph glyph-name="bracketright" unicode="]" horiz-adv-x="811" 
d="M-35 -633l6 35h84q66 0 99.5 20.5t52.5 108.5l315 1493q8 41 8 66q0 48 -25.5 67t-88.5 19h-66l8 34h406l-393 -1843h-406z" />
    <glyph glyph-name="asciicircum" unicode="^" horiz-adv-x="1167" 
d="M203 668l405 718h84l406 -718h-152l-297 512l-295 -512h-151z" />
    <glyph glyph-name="underscore" unicode="_" horiz-adv-x="1024" 
d="M1042 -256h-1058v102h1058v-102z" />
    <glyph glyph-name="grave" unicode="`" horiz-adv-x="682" 
d="M166 1225h358l127 -342h-35z" />
    <glyph glyph-name="a" unicode="a" horiz-adv-x="1024" 
d="M928 754l-105 -547q-7 -38 -7 -64q0 -93 116 -96l-6 -29l-344 -47l30 146l-4 4q-131 -152 -291 -152q-101 0 -170 71.5t-69 176.5q0 201 186 369t559 168h105zM633 221l96 453h-100q-170 0 -262.5 -140.5t-92.5 -281.5q0 -72 43.5 -122t104.5 -50q37 0 71 16t86 66.5
t54 58.5z" />
    <glyph glyph-name="b" unicode="b" horiz-adv-x="1004" 
d="M559 1210l-117 -544q155 88 263 88q109 0 181 -82t72 -207q0 -186 -174.5 -341t-435.5 -155h-244l213 1004q9 40 9 68q0 95 -113 96l6 26l320 47h20zM428 594l-117 -553q52 -6 90 -6q148 0 252.5 122t104.5 283q0 88 -51 145.5t-127 57.5q-61 0 -152 -49z" />
    <glyph glyph-name="c" unicode="c" horiz-adv-x="725" 
d="M705 754l-27 -232h-35q-12 166 -117 166q-106 0 -175.5 -140.5t-69.5 -285.5q0 -74 44.5 -125t108.5 -51q83 0 199 88l22 -24q-164 -181 -313 -181q-109 0 -183.5 81t-74.5 200q0 214 137 359t277 145q40 0 72.5 -6.5t39.5 -6.5q26 0 47 7l19 6h29z" />
    <glyph glyph-name="d" unicode="d" horiz-adv-x="1004" 
d="M1026 1210l-215 -1007q-5 -26 -5 -47q0 -98 118 -101l-9 -35l-321 -49h-23l23 107q-145 -109 -270 -109q-101 0 -172.5 81t-71.5 196q0 192 173.5 346.5t483.5 161.5l45 207q12 52 12 84q0 51 -28.5 71.5t-110.5 20.5l7 26l344 47h20zM610 156l111 522q-51 10 -76 10
q-156 0 -262.5 -115.5t-106.5 -285.5q0 -92 44.5 -149.5t113.5 -57.5q78 0 176 76z" />
    <glyph glyph-name="e" unicode="e" horiz-adv-x="831" 
d="M729 193l27 -23q-152 -201 -359 -201q-130 0 -218.5 85t-88.5 210q0 194 159.5 342t371.5 148q75 0 124.5 -37.5t49.5 -93.5q0 -105 -150.5 -190t-357.5 -105q-4 -22 -4 -43q0 -88 61 -146.5t141 -58.5q126 0 244 113zM293 373q138 14 225.5 84t87.5 141q0 36 -22 59
t-56 23q-78 0 -147 -85.5t-88 -221.5z" />
    <glyph glyph-name="f" unicode="f" horiz-adv-x="641" 
d="M631 723l-15 -70h-143l-115 -637q-59 -326 -190.5 -456.5t-364.5 -130.5q-140 0 -225 30l70 234h33q26 -199 174 -199q93 0 169 80t103 225l156 854h-174l14 70h174q75 537 440 537q72 0 152 -23l24 20h35l-78 -245h-28q-6 194 -123 194q-129 0 -176 -223l-56 -260h144z
" />
    <glyph glyph-name="g" unicode="g" horiz-adv-x="1004" 
d="M938 754l-229 -1086q-22 -111 -124 -175t-286 -64q-152 0 -250 62t-98 167q0 160 263 289q65 32 97 51v4q-84 7 -131 72.5t-47 144.5q0 217 193 382.5t612 152.5zM729 662l-80 6q-134 0 -229.5 -115.5t-95.5 -280.5q0 -79 39.5 -132.5t97.5 -53.5q66 0 164 82zM496 -436
l112 530q-57 -40 -204 -103t-205 -129.5t-58 -144.5q0 -85 65.5 -154t147.5 -69q46 0 90.5 20t51.5 50z" />
    <glyph glyph-name="h" unicode="h" horiz-adv-x="1044" 
d="M145 166l177 827q5 25 5 45q0 88 -112 90l6 35l309 47h31l-125 -583l4 -4q124 131 260 131q105 0 167 -62.5t62 -160.5q0 -33 -7 -66l-62 -285q-6 -32 -6 -55q0 -80 86 -90l-6 -35h-408l9 35q51 7 81 39t54 141l55 258q6 25 6 48q0 56 -34 89t-89 33q-34 0 -66.5 -15
t-79.5 -61t-48 -53l-76 -352q-4 -20 -4 -37q0 -76 86 -90l-8 -35h-389l8 35q56 12 78 38t36 93z" />
    <glyph glyph-name="i" unicode="i" horiz-adv-x="575" 
d="M399 981q-47 0 -80.5 33.5t-33.5 81.5q0 47 33.5 80.5t80.5 33.5q48 0 81.5 -33.5t33.5 -80.5q0 -48 -33.5 -81.5t-81.5 -33.5zM170 172l70 338q9 43 9 71q0 90 -130 91l8 35l334 47h22l-121 -574q-6 -30 -6 -52q0 -81 111 -93l-6 -35h-447l9 35q122 17 147 137z" />
    <glyph glyph-name="j" unicode="j" horiz-adv-x="555" 
d="M412 981q-48 0 -81.5 33.5t-33.5 81.5q0 47 33.5 80.5t81.5 33.5q47 0 80.5 -33.5t33.5 -80.5q0 -48 -33.5 -81.5t-80.5 -33.5zM86 -229l158 745q9 44 9 70q0 85 -128 90l8 43l334 35h18l-211 -992q-71 -333 -311 -333q-109 0 -192 63l8 31q54 -17 92 -17q83 0 134 62
t81 203z" />
    <glyph glyph-name="k" unicode="k" 
d="M156 215l161 750q8 37 8 65q0 98 -110 98l4 35l324 47h18l-125 -587q174 131 293 131q67 0 109.5 -33.5t42.5 -85.5q0 -148 -295 -244l174 -241q72 -101 149 -115l-8 -35h-264l-258 354l-39 -188q-4 -22 -4 -39q0 -77 92 -92l-8 -35h-397l8 35q56 17 79.5 48t45.5 132z
M424 565l-39 -184q299 60 299 192q0 70 -76 70q-85 0 -184 -78z" />
    <glyph glyph-name="l" unicode="l" horiz-adv-x="575" 
d="M586 1210l-219 -1030q-7 -31 -7 -54q0 -88 115 -91l-8 -35h-449l7 35q84 8 111 45t50 147l150 701q13 60 13 97q0 114 -132 103l6 35l344 47h19z" />
    <glyph glyph-name="m" unicode="m" horiz-adv-x="1473" 
d="M154 213l63 303q7 35 7 61q0 95 -126 95l6 35l340 47h15l-27 -121l4 -4q119 125 260 125q165 0 197 -125q144 125 281 125q85 0 138.5 -44t53.5 -124q0 -26 -6 -58l-76 -364q-4 -22 -4 -41q0 -84 92 -88l-6 -35h-408l7 35q69 20 95 52t46 126l57 264q6 30 6 56
q0 114 -102 114q-83 0 -176 -98l-82 -385q-4 -19 -4 -35q0 -79 86 -94l-6 -35h-396l7 35q67 15 90.5 53.5t42.5 124.5l57 264q8 36 8 65q0 105 -84 105q-88 0 -202 -129l-74 -354q-6 -25 -6 -42q0 -65 88 -87l-6 -35h-390l7 35q43 9 74 41t53 137z" />
    <glyph glyph-name="n" unicode="n" horiz-adv-x="1044" 
d="M154 205l65 311q9 42 9 68q0 85 -134 86l8 35l338 49h21l-29 -129l4 -4q119 133 262 133q95 0 160.5 -59t65.5 -153q0 -25 -6 -57l-62 -313q-4 -20 -4 -38q0 -81 80 -99l-6 -35h-385l6 35q61 14 84.5 51.5t40.5 118.5l49 233q9 43 9 78q0 127 -122 127
q-71 0 -133.5 -55.5t-64.5 -67.5l-74 -356q-4 -20 -4 -36q0 -73 96 -93l-6 -35h-402l7 35q64 17 86.5 52.5t40.5 117.5z" />
    <glyph glyph-name="o" unicode="o" horiz-adv-x="874" 
d="M342 -31q-126 0 -208.5 79t-82.5 198q0 182 153.5 345t370.5 163q109 0 189 -79t80 -188q0 -190 -159 -354t-343 -164zM514 688q-114 0 -190 -147.5t-76 -321.5q0 -80 36 -132t91 -52q123 0 197.5 149t74.5 328q0 81 -36 128.5t-97 47.5z" />
    <glyph glyph-name="p" unicode="p" horiz-adv-x="1004" 
d="M-6 -571l231 1085q7 30 7 54q0 104 -113 104l6 35l340 47l-21 -97q132 97 250 97q120 0 194.5 -76t74.5 -197q0 -206 -183 -359t-481 -153l-68 -317q-6 -30 -6 -52q0 -90 117 -94l-8 -34l-307 -43h-33zM430 588l-117 -551q28 -4 72 -4q180 0 280.5 129.5t100.5 267.5
q0 101 -48.5 162t-127.5 61q-68 0 -160 -65z" />
    <glyph glyph-name="q" unicode="q" horiz-adv-x="981" 
d="M940 752l-227 -1065q-11 -49 -11 -79q0 -85 109 -93l-8 -43l-336 -43l137 641l-4 4q-120 -105 -238 -105q-117 0 -200.5 87.5t-83.5 209.5q0 201 221.5 349t640.5 137zM623 156l106 506q-36 6 -71 6q-160 0 -269.5 -114.5t-109.5 -268.5q0 -86 51 -145.5t125 -59.5
q75 0 168 76z" />
    <glyph glyph-name="r" unicode="r" horiz-adv-x="788" 
d="M188 231l68 322q3 15 3 28q0 86 -124 89l6 35l318 49h22l-61 -279l4 -4q58 124 128 203.5t120 79.5q55 0 135 -66l-123 -196q-50 79 -102 79q-81 0 -146 -157t-65 -262q0 -92 118 -117l-8 -35h-456l8 35q63 8 96 38.5t59 157.5z" />
    <glyph glyph-name="s" unicode="s" horiz-adv-x="705" 
d="M682 756l-49 -234h-31q-12 85 -60 130.5t-114 45.5q-47 0 -79 -23t-32 -57q0 -43 108 -154t139.5 -173.5t31.5 -116.5q0 -89 -74 -147t-190 -58q-62 0 -123.5 13.5t-77.5 13.5q-42 0 -57 -25h-33l55 258h33q15 -204 168 -204q49 0 84 28t35 68q0 33 -21.5 73t-106 126.5
t-107.5 131t-23 83.5q0 93 77.5 156t196.5 63q52 0 107.5 -10.5t56.5 -10.5q33 0 55 23h31z" />
    <glyph glyph-name="t" unicode="t" horiz-adv-x="682" 
d="M686 723l-16 -72h-230l-92 -442q-4 -20 -4 -39q0 -90 76 -90q56 0 170 78l24 -21q-146 -168 -323 -168q-147 0 -147 150q0 29 8 63l98 469h-150l9 37q180 63 364 279h35l-51 -244h229z" />
    <glyph glyph-name="u" unicode="u" horiz-adv-x="1044" 
d="M168 285l51 241q6 30 6 52q0 94 -125 96l6 33l334 47h19l-115 -533q-3 -15 -3 -30q0 -48 31 -79.5t83 -31.5q58 0 135 66.5t80 80.5l63 299q7 36 7 60q0 88 -119 88l6 33l327 47h19l-119 -557q-7 -31 -7 -53q0 -89 124 -93l-8 -35l-332 -45h-17l31 140l-4 4
q-125 -146 -276 -146q-91 0 -149.5 59.5t-58.5 163.5q0 43 11 93z" />
    <glyph glyph-name="v" unicode="v" horiz-adv-x="874" 
d="M743 547l-346 -576h-43l-125 576q-17 81 -49.5 105.5t-93.5 35.5l6 35h422l-6 -35q-99 -14 -99 -102q0 -36 13 -94l59 -269l197 324q27 45 27 77q0 59 -93 64l6 35h293l-6 -35q-60 -20 -90 -46.5t-72 -94.5z" />
    <glyph glyph-name="w" unicode="w" horiz-adv-x="1300" 
d="M1229 545l-381 -574h-31l-92 529l-393 -529h-39l-66 547q-18 159 -104 170l6 35h363l-7 -35q-79 -26 -79 -113q0 -31 8 -90l32 -262l269 352q-20 105 -117 113l6 35h387l-6 -35q-81 -18 -81 -107q0 -37 14 -118l38 -227l207 307q25 37 25 73q0 56 -62 72l7 35h247l-6 -35
q-55 -8 -145 -143z" />
    <glyph glyph-name="x" unicode="x" horiz-adv-x="854" 
d="M524 426l115 -289q29 -72 56.5 -86.5t80.5 -15.5l-6 -35h-364l8 35q59 0 59 34q0 17 -16 60l-60 154l-141 -160q-39 -44 -39 -63q0 -24 59 -25l-8 -35h-229l8 35q48 1 139 102l187 207l-94 258q-31 85 -113 86l8 35h342l-8 -35q-56 -4 -56 -37q0 -12 5 -26l47 -140
l125 142q12 13 12 28q0 31 -39 33l8 35h217l-8 -35q-64 -7 -135 -86z" />
    <glyph glyph-name="y" unicode="y" horiz-adv-x="831" 
d="M731 510l-434 -725q-66 -111 -172 -206t-192.5 -117.5t-211.5 -22.5l48 141q169 3 295 66t251 278l-100 600q-26 157 -123 164l8 35h387l-8 -35q-90 -15 -90 -98q0 -29 6 -70l56 -364h4l227 387q33 54 33 78q0 30 -26 48.5t-58 18.5l8 35h281l-9 -35q-89 -27 -180 -178z
" />
    <glyph glyph-name="z" unicode="z" 
d="M49 53l576 617h-242q-121 0 -178 -125h-35l37 178h670v-53l-580 -617h240q171 0 225 142h35l-43 -195h-705v53z" />
    <glyph glyph-name="braceleft" unicode="{" horiz-adv-x="807" 
d="M266 270v33q106 15 167 75t61 140q0 59 -22.5 150t-22.5 161q0 142 103 252t275 136l-8 -37q-221 -57 -221 -238q0 -33 22.5 -136t22.5 -175q0 -110 -77 -201.5t-218 -140.5v-4q141 -50 218 -141t77 -201q0 -72 -22.5 -175.5t-22.5 -136.5q0 -181 221 -237l8 -37
q-172 26 -275 135.5t-103 251.5q0 71 22.5 162t22.5 149q0 80 -61 140t-167 75z" />
    <glyph glyph-name="bar" unicode="|" horiz-adv-x="1079" 
d="M537 1262h133v-1702h-133v1702z" />
    <glyph glyph-name="braceright" unicode="}" horiz-adv-x="807" 
d="M705 303v-33q-106 -15 -167 -75t-61 -140q0 -42 22.5 -133t22.5 -178q0 -142 -103 -251.5t-276 -135.5l9 37q221 56 221 237q0 52 -22.5 155t-22.5 157q0 110 76.5 201t218.5 141v4q-142 49 -218.5 140.5t-76.5 201.5q0 53 22.5 156.5t22.5 154.5q0 181 -221 238l-9 37
q173 -26 276 -136t103 -252q0 -87 -22.5 -178t-22.5 -133q0 -80 61 -140t167 -75z" />
    <glyph glyph-name="asciitilde" unicode="~" horiz-adv-x="1366" 
d="M1235 836h63q-8 -166 -83 -255t-197 -89q-98 0 -308 90t-276 90q-144 0 -172 -178h-63q2 164 78 254t194 90q107 0 319 -91.5t271 -91.5q153 0 174 181z" />
    <glyph glyph-name="Adieresis" unicode="&#xc4;" horiz-adv-x="1194" 
d="M743 219v178h-309l-149 -225q-30 -45 -30 -72q0 -50 101 -65l-6 -35h-358l6 35q81 11 126.5 54.5t125.5 162.5l631 942h98v-989q0 -97 25.5 -133t115.5 -37l-6 -35h-518l6 35q77 7 109 40.5t32 143.5zM743 479v387h-4l-252 -387h256zM1037 1466q0 54 39.5 93.5t95.5 39.5
q55 0 94 -39t39 -94q0 -56 -39.5 -95.5t-93.5 -39.5q-55 0 -95 40t-40 95zM627 1466q0 54 40 93.5t95 39.5t94 -39t39 -94q0 -56 -39 -95.5t-94 -39.5t-95 40t-40 95z" />
    <glyph glyph-name="Aring" unicode="&#xc5;" horiz-adv-x="1194" 
d="M743 219v178h-309l-149 -225q-30 -45 -30 -72q0 -50 101 -65l-6 -35h-358l6 35q81 11 126.5 54.5t125.5 162.5l631 942h98v-989q0 -97 25.5 -133t115.5 -37l-6 -35h-518l6 35q77 7 109 40.5t32 143.5zM743 479v387h-4l-252 -387h256zM781 1475q0 76 55 131t131 55
t131 -55t55 -131q0 -77 -55 -131.5t-131 -54.5t-131 54.5t-55 131.5zM1084 1475q0 47 -35 82t-82 35t-82 -35t-35 -82t35 -82t82 -35t82 35t35 82z" />
    <glyph glyph-name="Ccedilla" unicode="&#xc7;" horiz-adv-x="1087" 
d="M461 -178l65 151q-182 23 -280.5 154.5t-98.5 343.5q0 315 191 519t438 204q72 0 133.5 -13.5t96.5 -13.5q49 0 73 43h31l-41 -321h-29q-16 112 -78 173.5t-151 61.5q-169 0 -294.5 -191t-125.5 -458q0 -180 84 -289.5t219 -109.5q179 0 318 196l26 -16
q-86 -147 -188 -217t-277 -70l-18 -39q147 -30 147 -157q0 -104 -100.5 -180t-255.5 -76q-31 0 -63 4l6 28q116 0 187 51.5t71 114.5q0 72 -86 107z" />
    <glyph glyph-name="Eacute" unicode="&#xc9;" horiz-adv-x="1130" 
d="M961 737l-62 -288h-35q-10 116 -153 116h-174l-72 -338q-12 -58 -12 -83q0 -46 34.5 -61t116.5 -15h168q77 0 135.5 48t120.5 146h33l-105 -262h-911l8 35q75 13 115 52t61 140l160 752q6 24 6 44q0 84 -127 105l6 35h816l-46 -209h-38q-8 77 -28.5 109.5t-96.5 32.5
h-232l-98 -463h160q169 0 215 104h35zM1174 1636l-450 -342h-35l127 342h358z" />
    <glyph glyph-name="Ntilde" unicode="&#xd1;" horiz-adv-x="1409" 
d="M1346 932l-183 -950h-53l-614 931l-127 -686q-7 -36 -7 -63q0 -109 136 -129l-6 -35h-371l6 35q66 10 104.5 47.5t61.5 144.5l164 768q-55 79 -98.5 104t-141.5 29l6 35h393l547 -825l111 602q7 40 7 71q0 117 -120 117l6 35h357l-6 -35q-138 -18 -172 -196zM1311 1598
q2 -110 -68.5 -187t-162.5 -77q-69 0 -175 45t-149 45q-85 0 -110 -84h-27q0 107 67.5 184.5t159.5 77.5q65 0 173.5 -45t148.5 -45q89 0 117 86h26z" />
    <glyph glyph-name="Odieresis" unicode="&#xd6;" horiz-adv-x="1366" 
d="M897 1194q199 0 334 -127t135 -342q0 -292 -225.5 -524t-507.5 -232q-207 0 -345 124.5t-138 340.5q0 286 221.5 523t525.5 237zM672 39q190 0 320 229t130 494q0 161 -77 261.5t-199 100.5q-190 0 -321.5 -228t-131.5 -493q0 -163 77.5 -263.5t201.5 -100.5zM1043 1466
q0 54 39.5 93.5t95.5 39.5q55 0 94 -39t39 -94q0 -56 -39.5 -95.5t-93.5 -39.5q-55 0 -95 40t-40 95zM633 1466q0 54 40 93.5t95 39.5t94 -39t39 -94q0 -56 -39 -95.5t-94 -39.5t-95 40t-40 95z" />
    <glyph glyph-name="Udieresis" unicode="&#xdc;" horiz-adv-x="1579" 
d="M1436 930l-101 -469q-46 -217 -202 -354.5t-377 -137.5q-216 0 -341.5 123t-125.5 293q0 97 22 199l84 379q6 25 6 46q0 109 -143 119l6 35h553l-6 -35q-80 -15 -121 -44.5t-67 -153.5l-109 -502q-18 -80 -18 -149q0 -107 70 -173.5t184 -66.5q124 0 211.5 89t121.5 251
l125 586q8 35 8 57q0 50 -38 72.5t-113 33.5l6 35h584l-6 -35q-100 -15 -144.5 -50.5t-68.5 -147.5zM1149 1466q0 54 39.5 93.5t95.5 39.5q55 0 94 -39t39 -94q0 -56 -39.5 -95.5t-93.5 -39.5q-55 0 -95 40t-40 95zM739 1466q0 54 40 93.5t95 39.5t94 -39t39 -94
q0 -56 -39 -95.5t-94 -39.5t-95 40t-40 95z" />
    <glyph glyph-name="aacute" unicode="&#xe1;" horiz-adv-x="1024" 
d="M928 754l-105 -547q-7 -38 -7 -64q0 -93 116 -96l-6 -29l-344 -47l30 146l-4 4q-131 -152 -291 -152q-101 0 -170 71.5t-69 176.5q0 201 186 369t559 168h105zM633 221l96 453h-100q-170 0 -262.5 -140.5t-92.5 -281.5q0 -72 43.5 -122t104.5 -50q37 0 71 16t86 66.5
t54 58.5zM1042 1225l-450 -342h-35l127 342h358z" />
    <glyph glyph-name="agrave" unicode="&#xe0;" horiz-adv-x="1024" 
d="M928 754l-105 -547q-7 -38 -7 -64q0 -93 116 -96l-6 -29l-344 -47l30 146l-4 4q-131 -152 -291 -152q-101 0 -170 71.5t-69 176.5q0 201 186 369t559 168h105zM633 221l96 453h-100q-170 0 -262.5 -140.5t-92.5 -281.5q0 -72 43.5 -122t104.5 -50q37 0 71 16t86 66.5
t54 58.5zM338 1225h358l127 -342h-35z" />
    <glyph glyph-name="acircumflex" unicode="&#xe2;" horiz-adv-x="1024" 
d="M928 754l-105 -547q-7 -38 -7 -64q0 -93 116 -96l-6 -29l-344 -47l30 146l-4 4q-131 -152 -291 -152q-101 0 -170 71.5t-69 176.5q0 201 186 369t559 168h105zM633 221l96 453h-100q-170 0 -262.5 -140.5t-92.5 -281.5q0 -72 43.5 -122t104.5 -50q37 0 71 16t86 66.5
t54 58.5zM878 1237l86 -371h-37l-181 203l-438 -203h-29l390 371h209z" />
    <glyph glyph-name="adieresis" unicode="&#xe4;" horiz-adv-x="1024" 
d="M928 754l-105 -547q-7 -38 -7 -64q0 -93 116 -96l-6 -29l-344 -47l30 146l-4 4q-131 -152 -291 -152q-101 0 -170 71.5t-69 176.5q0 201 186 369t559 168h105zM633 221l96 453h-100q-170 0 -262.5 -140.5t-92.5 -281.5q0 -72 43.5 -122t104.5 -50q37 0 71 16t86 66.5
t54 58.5zM795 1055q0 54 39.5 93.5t95.5 39.5q55 0 94 -39t39 -94q0 -56 -39.5 -95.5t-93.5 -39.5q-55 0 -95 40t-40 95zM385 1055q0 54 40 93.5t95 39.5t94 -39t39 -94q0 -56 -39 -95.5t-94 -39.5t-95 40t-40 95z" />
    <glyph glyph-name="atilde" unicode="&#xe3;" horiz-adv-x="1024" 
d="M928 754l-105 -547q-7 -38 -7 -64q0 -93 116 -96l-6 -29l-344 -47l30 146l-4 4q-131 -152 -291 -152q-101 0 -170 71.5t-69 176.5q0 201 186 369t559 168h105zM633 221l96 453h-100q-170 0 -262.5 -140.5t-92.5 -281.5q0 -72 43.5 -122t104.5 -50q37 0 71 16t86 66.5
t54 58.5zM1040 1186q2 -110 -68.5 -187t-162.5 -77q-69 0 -175 45t-149 45q-85 0 -110 -84h-27q0 107 67.5 184.5t159.5 77.5q65 0 173.5 -45t148.5 -45q89 0 117 86h26z" />
    <glyph glyph-name="aring" unicode="&#xe5;" horiz-adv-x="1024" 
d="M928 754l-105 -547q-7 -38 -7 -64q0 -93 116 -96l-6 -29l-344 -47l30 146l-4 4q-131 -152 -291 -152q-101 0 -170 71.5t-69 176.5q0 201 186 369t559 168h105zM633 221l96 453h-100q-170 0 -262.5 -140.5t-92.5 -281.5q0 -72 43.5 -122t104.5 -50q37 0 71 16t86 66.5
t54 58.5zM541 1063q0 76 55 131t131 55t131 -55t55 -131q0 -77 -55 -131.5t-131 -54.5t-131 54.5t-55 131.5zM844 1063q0 47 -35 82t-82 35t-82 -35t-35 -82t35 -82t82 -35t82 35t35 82z" />
    <glyph glyph-name="ccedilla" unicode="&#xe7;" horiz-adv-x="725" 
d="M215 -178l66 155q-91 24 -144 99t-53 174q0 214 137 359t277 145q40 0 72.5 -6.5t39.5 -6.5q26 0 47 7l19 6h29l-27 -232h-35q-12 166 -117 166q-106 0 -175.5 -140.5t-69.5 -285.5q0 -74 44.5 -125t108.5 -51q83 0 199 88l22 -24q-161 -181 -327 -181l-19 -39
q148 -30 148 -157q0 -104 -100.5 -180t-256.5 -76q-31 0 -63 4l6 28q116 0 187 51.5t71 114.5q0 72 -86 107z" />
    <glyph glyph-name="eacute" unicode="&#xe9;" horiz-adv-x="831" 
d="M729 193l27 -23q-152 -201 -359 -201q-130 0 -218.5 85t-88.5 210q0 194 159.5 342t371.5 148q75 0 124.5 -37.5t49.5 -93.5q0 -105 -150.5 -190t-357.5 -105q-4 -22 -4 -43q0 -88 61 -146.5t141 -58.5q126 0 244 113zM293 373q138 14 225.5 84t87.5 141q0 36 -22 59
t-56 23q-78 0 -147 -85.5t-88 -221.5zM946 1225l-450 -342h-35l127 342h358z" />
    <glyph glyph-name="egrave" unicode="&#xe8;" horiz-adv-x="831" 
d="M729 193l27 -23q-152 -201 -359 -201q-130 0 -218.5 85t-88.5 210q0 194 159.5 342t371.5 148q75 0 124.5 -37.5t49.5 -93.5q0 -105 -150.5 -190t-357.5 -105q-4 -22 -4 -43q0 -88 61 -146.5t141 -58.5q126 0 244 113zM293 373q138 14 225.5 84t87.5 141q0 36 -22 59
t-56 23q-78 0 -147 -85.5t-88 -221.5zM242 1225h358l127 -342h-35z" />
    <glyph glyph-name="ecircumflex" unicode="&#xea;" horiz-adv-x="831" 
d="M729 193l27 -23q-152 -201 -359 -201q-130 0 -218.5 85t-88.5 210q0 194 159.5 342t371.5 148q75 0 124.5 -37.5t49.5 -93.5q0 -105 -150.5 -190t-357.5 -105q-4 -22 -4 -43q0 -88 61 -146.5t141 -58.5q126 0 244 113zM293 373q138 14 225.5 84t87.5 141q0 36 -22 59
t-56 23q-78 0 -147 -85.5t-88 -221.5zM781 1237l86 -371h-37l-181 203l-438 -203h-29l390 371h209z" />
    <glyph glyph-name="edieresis" unicode="&#xeb;" horiz-adv-x="831" 
d="M729 193l27 -23q-152 -201 -359 -201q-130 0 -218.5 85t-88.5 210q0 194 159.5 342t371.5 148q75 0 124.5 -37.5t49.5 -93.5q0 -105 -150.5 -190t-357.5 -105q-4 -22 -4 -43q0 -88 61 -146.5t141 -58.5q126 0 244 113zM293 373q138 14 225.5 84t87.5 141q0 36 -22 59
t-56 23q-78 0 -147 -85.5t-88 -221.5zM699 1055q0 54 39.5 93.5t95.5 39.5q55 0 94 -39t39 -94q0 -56 -39.5 -95.5t-93.5 -39.5q-55 0 -95 40t-40 95zM289 1055q0 54 40 93.5t95 39.5t94 -39t39 -94q0 -56 -39 -95.5t-94 -39.5t-95 40t-40 95z" />
    <glyph glyph-name="iacute" unicode="&#xed;" horiz-adv-x="575" 
d="M483 754l-121 -574q-6 -30 -6 -52q0 -81 111 -93l-6 -35h-447l9 35q122 17 147 137l70 338q9 43 9 71q0 90 -130 91l8 35l334 47h22zM817 1225l-450 -342h-35l127 342h358z" />
    <glyph glyph-name="igrave" unicode="&#xec;" horiz-adv-x="575" 
d="M483 754l-121 -574q-6 -30 -6 -52q0 -81 111 -93l-6 -35h-447l9 35q122 17 147 137l70 338q9 43 9 71q0 90 -130 91l8 35l334 47h22zM113 1225h358l127 -342h-35z" />
    <glyph glyph-name="icircumflex" unicode="&#xee;" horiz-adv-x="575" 
d="M483 754l-121 -574q-6 -30 -6 -52q0 -81 111 -93l-6 -35h-447l9 35q122 17 147 137l70 338q9 43 9 71q0 90 -130 91l8 35l334 47h22zM651 1237l86 -371h-37l-181 203l-438 -203h-29l390 371h209z" />
    <glyph glyph-name="idieresis" unicode="&#xef;" horiz-adv-x="575" 
d="M483 754l-121 -574q-6 -30 -6 -52q0 -81 111 -93l-6 -35h-447l9 35q122 17 147 137l70 338q9 43 9 71q0 90 -130 91l8 35l334 47h22zM570 1055q0 54 39.5 93.5t95.5 39.5q55 0 94 -39t39 -94q0 -56 -39.5 -95.5t-93.5 -39.5q-55 0 -95 40t-40 95zM160 1055q0 54 40 93.5
t95 39.5t94 -39t39 -94q0 -56 -39 -95.5t-94 -39.5t-95 40t-40 95z" />
    <glyph glyph-name="ntilde" unicode="&#xf1;" horiz-adv-x="1044" 
d="M154 205l65 311q9 42 9 68q0 85 -134 86l8 35l338 49h21l-29 -129l4 -4q119 133 262 133q95 0 160.5 -59t65.5 -153q0 -25 -6 -57l-62 -313q-4 -20 -4 -38q0 -81 80 -99l-6 -35h-385l6 35q61 14 84.5 51.5t40.5 118.5l49 233q9 43 9 78q0 127 -122 127
q-71 0 -133.5 -55.5t-64.5 -67.5l-74 -356q-4 -20 -4 -36q0 -73 96 -93l-6 -35h-402l7 35q64 17 86.5 52.5t40.5 117.5zM1051 1186q2 -110 -68.5 -187t-162.5 -77q-69 0 -175 45t-149 45q-85 0 -110 -84h-27q0 107 67.5 184.5t159.5 77.5q65 0 173.5 -45t148.5 -45
q89 0 117 86h26z" />
    <glyph glyph-name="oacute" unicode="&#xf3;" horiz-adv-x="874" 
d="M342 -31q-126 0 -208.5 79t-82.5 198q0 182 153.5 345t370.5 163q109 0 189 -79t80 -188q0 -190 -159 -354t-343 -164zM514 688q-114 0 -190 -147.5t-76 -321.5q0 -80 36 -132t91 -52q123 0 197.5 149t74.5 328q0 81 -36 128.5t-97 47.5zM967 1225l-450 -342h-35l127 342
h358z" />
    <glyph glyph-name="ograve" unicode="&#xf2;" horiz-adv-x="874" 
d="M342 -31q-126 0 -208.5 79t-82.5 198q0 182 153.5 345t370.5 163q109 0 189 -79t80 -188q0 -190 -159 -354t-343 -164zM514 688q-114 0 -190 -147.5t-76 -321.5q0 -80 36 -132t91 -52q123 0 197.5 149t74.5 328q0 81 -36 128.5t-97 47.5zM263 1225h358l127 -342h-35z" />
    <glyph glyph-name="ocircumflex" unicode="&#xf4;" horiz-adv-x="874" 
d="M342 -31q-126 0 -208.5 79t-82.5 198q0 182 153.5 345t370.5 163q109 0 189 -79t80 -188q0 -190 -159 -354t-343 -164zM514 688q-114 0 -190 -147.5t-76 -321.5q0 -80 36 -132t91 -52q123 0 197.5 149t74.5 328q0 81 -36 128.5t-97 47.5zM802 1237l86 -371h-37l-181 203
l-438 -203h-29l390 371h209z" />
    <glyph glyph-name="odieresis" unicode="&#xf6;" horiz-adv-x="874" 
d="M342 -31q-126 0 -208.5 79t-82.5 198q0 182 153.5 345t370.5 163q109 0 189 -79t80 -188q0 -190 -159 -354t-343 -164zM514 688q-114 0 -190 -147.5t-76 -321.5q0 -80 36 -132t91 -52q123 0 197.5 149t74.5 328q0 81 -36 128.5t-97 47.5zM719 1055q0 54 39.5 93.5
t95.5 39.5q55 0 94 -39t39 -94q0 -56 -39.5 -95.5t-93.5 -39.5q-55 0 -95 40t-40 95zM309 1055q0 54 40 93.5t95 39.5t94 -39t39 -94q0 -56 -39 -95.5t-94 -39.5t-95 40t-40 95z" />
    <glyph glyph-name="otilde" unicode="&#xf5;" horiz-adv-x="874" 
d="M342 -31q-126 0 -208.5 79t-82.5 198q0 182 153.5 345t370.5 163q109 0 189 -79t80 -188q0 -190 -159 -354t-343 -164zM514 688q-114 0 -190 -147.5t-76 -321.5q0 -80 36 -132t91 -52q123 0 197.5 149t74.5 328q0 81 -36 128.5t-97 47.5zM965 1186q2 -110 -68.5 -187
t-162.5 -77q-69 0 -175 45t-149 45q-85 0 -110 -84h-27q0 107 67.5 184.5t159.5 77.5q65 0 173.5 -45t148.5 -45q89 0 117 86h26z" />
    <glyph glyph-name="uacute" unicode="&#xfa;" horiz-adv-x="1044" 
d="M168 285l51 241q6 30 6 52q0 94 -125 96l6 33l334 47h19l-115 -533q-3 -15 -3 -30q0 -48 31 -79.5t83 -31.5q58 0 135 66.5t80 80.5l63 299q7 36 7 60q0 88 -119 88l6 33l327 47h19l-119 -557q-7 -31 -7 -53q0 -89 124 -93l-8 -35l-332 -45h-17l31 140l-4 4
q-125 -146 -276 -146q-91 0 -149.5 59.5t-58.5 163.5q0 43 11 93zM1053 1225l-450 -342h-35l127 342h358z" />
    <glyph glyph-name="ugrave" unicode="&#xf9;" horiz-adv-x="1044" 
d="M168 285l51 241q6 30 6 52q0 94 -125 96l6 33l334 47h19l-115 -533q-3 -15 -3 -30q0 -48 31 -79.5t83 -31.5q58 0 135 66.5t80 80.5l63 299q7 36 7 60q0 88 -119 88l6 33l327 47h19l-119 -557q-7 -31 -7 -53q0 -89 124 -93l-8 -35l-332 -45h-17l31 140l-4 4
q-125 -146 -276 -146q-91 0 -149.5 59.5t-58.5 163.5q0 43 11 93zM349 1225h358l127 -342h-35z" />
    <glyph glyph-name="ucircumflex" unicode="&#xfb;" horiz-adv-x="1044" 
d="M168 285l51 241q6 30 6 52q0 94 -125 96l6 33l334 47h19l-115 -533q-3 -15 -3 -30q0 -48 31 -79.5t83 -31.5q58 0 135 66.5t80 80.5l63 299q7 36 7 60q0 88 -119 88l6 33l327 47h19l-119 -557q-7 -31 -7 -53q0 -89 124 -93l-8 -35l-332 -45h-17l31 140l-4 4
q-125 -146 -276 -146q-91 0 -149.5 59.5t-58.5 163.5q0 43 11 93zM888 1237l86 -371h-37l-181 203l-438 -203h-29l390 371h209z" />
    <glyph glyph-name="udieresis" unicode="&#xfc;" horiz-adv-x="1044" 
d="M168 285l51 241q6 30 6 52q0 94 -125 96l6 33l334 47h19l-115 -533q-3 -15 -3 -30q0 -48 31 -79.5t83 -31.5q58 0 135 66.5t80 80.5l63 299q7 36 7 60q0 88 -119 88l6 33l327 47h19l-119 -557q-7 -31 -7 -53q0 -89 124 -93l-8 -35l-332 -45h-17l31 140l-4 4
q-125 -146 -276 -146q-91 0 -149.5 59.5t-58.5 163.5q0 43 11 93zM805 1055q0 54 39.5 93.5t95.5 39.5q55 0 94 -39t39 -94q0 -56 -39.5 -95.5t-93.5 -39.5q-55 0 -95 40t-40 95zM395 1055q0 54 40 93.5t95 39.5t94 -39t39 -94q0 -56 -39 -95.5t-94 -39.5t-95 40t-40 95z
" />
    <glyph glyph-name="dagger" unicode="&#x2020;" horiz-adv-x="1044" 
d="M360 -571h-53q103 459 103 692q0 150 -31 301q141 118 199 278q-70 -2 -169.5 -42t-125.5 -40q-48 0 -84.5 33t-36.5 76q0 41 36.5 74t84.5 33q31 0 133 -39.5t174 -40.5q7 93 -12 184.5t-19 120.5q0 61 40 106t93 45q43 0 73 -33.5t30 -80.5q0 -62 -69 -174.5
t-83 -167.5q61 3 150.5 42.5t134.5 39.5q52 0 86.5 -32t34.5 -81q0 -45 -35.5 -77t-85.5 -32q-51 0 -144.5 40t-152.5 46q-4 -28 -4 -56q0 -119 75 -222q-163 -241 -342 -993z" />
    <glyph glyph-name="degree" unicode="&#xb0;" horiz-adv-x="819" 
d="M512 694q-142 0 -244 102t-102 244q0 143 102 244.5t244 101.5t244 -101.5t102 -244.5q0 -142 -102 -244t-244 -102zM512 1260q-90 0 -154.5 -64.5t-64.5 -155.5q0 -90 64.5 -154.5t154.5 -64.5t154.5 64.5t64.5 154.5q0 91 -64.5 155.5t-154.5 64.5z" />
    <glyph glyph-name="cent" unicode="&#xa2;" 
d="M643 752q34 -7 64 -7l65 9h27l-27 -228h-35q-11 154 -110 162l-148 -602q27 -8 53 -8q84 0 195 96l23 -24q-160 -177 -299 -181l-132 -532h-51l131 534q-99 16 -159 95.5t-60 185.5q0 188 117.5 333t296.5 169l111 444h49zM434 113l141 567q-84 -27 -141 -155t-57 -261
q0 -98 57 -151z" />
    <glyph glyph-name="sterling" unicode="&#xa3;" 
d="M715 512l-15 -70h-200q-23 -136 -58 -204q42 -17 151 -81.5t146 -64.5q58 0 109 82l31 -10q-28 -92 -87.5 -143.5t-132.5 -51.5q-47 0 -101.5 30t-178.5 114q-89 -144 -217 -144q-54 0 -88.5 33.5t-34.5 85.5q0 73 68.5 130t165.5 57q25 0 51 -5q18 66 24 172h-225l14 70
h209q-1 34 -1 70q-1 301 99 439q103 141 232 141q157 0 203 -179l-31 -16q-31 61 -58 89.5t-71 28.5q-86 0 -124 -116.5t-81 -456.5h201zM291 164q-43 16 -78 16q-54 0 -88.5 -23.5t-34.5 -60.5q0 -61 60 -61q85 0 141 129z" />
    <glyph glyph-name="section" unicode="&#xa7;" 
d="M389 711q-104 150 -104 260q0 93 74.5 166t201.5 73q140 0 230 -76t90 -180q0 -53 -32.5 -91t-78.5 -38q-44 0 -72 30.5t-28 78.5q0 28 16 68.5t16 52.5q0 41 -41 73.5t-94 32.5q-58 0 -100.5 -36.5t-42.5 -86.5q0 -41 23.5 -78.5t112 -142.5t191.5 -249.5t103 -254.5
q0 -241 -276 -393q102 -154 102 -252q0 -108 -76.5 -173.5t-204.5 -65.5q-146 0 -230.5 77.5t-84.5 174.5q0 47 34.5 82.5t80.5 35.5q42 0 71 -28.5t29 -69.5q0 -23 -16.5 -63t-16.5 -60q0 -39 39.5 -69.5t91.5 -30.5q60 0 104 37.5t44 89.5q0 32 -16 58.5t-136.5 172.5
t-199 274.5t-78.5 225.5q0 108 73 210t201 165zM420 670q-148 -83 -148 -207q0 -63 55.5 -167t217.5 -327q141 67 141 195q0 91 -65.5 207t-200.5 299z" />
    <glyph glyph-name="bullet" unicode="&#x2022;" horiz-adv-x="717" 
d="M440 332q-104 0 -178 74t-74 178q0 103 74 176.5t178 73.5t177 -73t73 -177q0 -105 -73 -178.5t-177 -73.5z" />
    <glyph glyph-name="paragraph" unicode="&#xb6;" horiz-adv-x="1106" 
d="M975 1300v-1742h-74v1742h-186v-1742h-74v1042q-250 10 -364.5 102.5t-114.5 278.5q0 173 119.5 274t330.5 101h494v-56h-131z" />
    <glyph glyph-name="germandbls" unicode="&#xdf;" horiz-adv-x="1044" 
d="M66 -211l215 1006q42 199 155.5 307t284.5 108q145 0 236.5 -70t91.5 -179q0 -115 -81 -198.5t-235 -88.5v-4q256 -57 256 -287q0 -163 -112.5 -288.5t-258.5 -125.5q-118 0 -231 103l94 164l29 -17q-29 -81 -29 -119q0 -82 78 -82q84 0 153.5 112.5t69.5 283.5
q0 214 -178 243l6 33q123 4 187.5 95.5t64.5 209.5q0 156 -145 156q-167 0 -219 -244l-224 -1044q-43 -203 -161 -318.5t-250 -115.5q-146 0 -240 77l78 177l35 -11q-5 -25 -5 -47q0 -62 31.5 -99.5t75.5 -37.5q67 0 131.5 77.5t96.5 223.5z" />
    <glyph glyph-name="registered" unicode="&#xae;" horiz-adv-x="1530" 
d="M57 678q0 292 208.5 500t500.5 208t500.5 -208t208.5 -500t-208.5 -500.5t-500.5 -208.5t-500.5 208.5t-208.5 500.5zM119 678q0 -268 189.5 -457.5t457.5 -189.5q267 0 457 189.5t190 457.5q0 267 -190 457t-457 190q-268 0 -457.5 -190t-189.5 -457zM373 1114h385
q135 0 217 -62t82 -163q0 -166 -223 -221l208 -299q62 -86 121 -86v-35h-184l-295 405h-74v-284q0 -54 25.5 -70t91.5 -16v-35h-367v35q105 0 105 90v610q0 56 -20.5 76t-71.5 20v35zM610 696h29q121 0 188.5 48.5t67.5 134.5q0 82 -57.5 136t-145.5 54q-35 0 -82 -14v-359z
" />
    <glyph glyph-name="copyright" unicode="&#xa9;" horiz-adv-x="1530" 
d="M57 678q0 292 208.5 500t500.5 208t500.5 -208t208.5 -500t-208.5 -500.5t-500.5 -208.5t-500.5 208.5t-208.5 500.5zM119 678q0 -268 189.5 -457.5t457.5 -189.5q267 0 457 189.5t190 457.5q0 267 -190 457t-457 190q-268 0 -457.5 -190t-189.5 -457zM1114 1135l21 -281
h-39q-72 236 -303 236q-147 0 -233.5 -105.5t-86.5 -284.5q0 -199 87 -305t243 -106q198 0 311 162l39 -21q-138 -203 -385 -203q-196 0 -329.5 128.5t-133.5 316.5q0 195 143.5 329t354.5 134q77 0 142 -22.5t81 -22.5q31 0 49 45h39z" />
    <glyph glyph-name="trademark" unicode="&#x2122;" horiz-adv-x="2048" 
d="M90 1356h729l23 -201h-35q-11 75 -51.5 108t-141.5 33h-73v-571q0 -85 17.5 -108.5t86.5 -26.5v-41h-375v41q68 6 85.5 28.5t17.5 106.5v571h-80q-96 0 -135.5 -32.5t-53.5 -108.5h-34zM1198 1356l272 -572l267 572h276v-37q-72 -2 -90 -24.5t-18 -110.5v-459
q0 -87 17 -109t91 -26v-41h-399v41q78 1 100.5 23.5t22.5 101.5v483h-4l-306 -649h-32l-305 649h-5v-473q0 -81 16.5 -108t80.5 -27h37v-41h-310v41q79 0 97 25.5t18 109.5v459q0 76 -12.5 105.5t-102.5 29.5v37h289z" />
    <glyph glyph-name="acute" unicode="&#xb4;" horiz-adv-x="682" 
d="M870 1225l-450 -342h-35l127 342h358z" />
    <glyph glyph-name="dieresis" unicode="&#xa8;" horiz-adv-x="682" 
d="M623 1055q0 54 39.5 93.5t95.5 39.5q55 0 94 -39t39 -94q0 -56 -39.5 -95.5t-93.5 -39.5q-55 0 -95 40t-40 95zM213 1055q0 54 40 93.5t95 39.5t94 -39t39 -94q0 -56 -39 -95.5t-94 -39.5t-95 40t-40 95z" />
    <glyph glyph-name="notequal" unicode="&#x2260;" horiz-adv-x="1124" 
d="M1106 279h-621l-184 -330l-100 57l151 273h-321v112h385l157 285h-542v112h606l186 336l101 -57l-156 -279h338v-112h-399l-160 -285h559v-112z" />
    <glyph glyph-name="AE" unicode="&#xc6;" horiz-adv-x="1812" 
d="M1772 1163l-43 -205h-37q-8 78 -29.5 108t-93.5 30h-289l-98 -463h211q182 0 217 102h32l-59 -284h-35q-10 60 -37.5 87t-95.5 27h-248l-73 -342q-9 -41 -9 -67q0 -50 35 -69t125 -19h170q103 0 168 46t125 148h37l-105 -262h-964l8 35q70 6 107 41t59 135l41 190h-387
l-174 -215q-37 -45 -37 -85q0 -66 90 -66l-8 -35h-375l8 35q81 16 133.5 55.5t118.5 122.5l758 950h754zM1028 1063l-459 -578h340l123 574z" />
    <glyph glyph-name="Oslash" unicode="&#xd8;" horiz-adv-x="1366" 
d="M367 35l-76 -96l-47 41l71 90q-165 133 -165 364q0 286 221.5 523t525.5 237q146 0 256 -68l80 101l47 -37l-78 -98q164 -128 164 -367q0 -292 -225 -524t-508 -232q-150 0 -266 66zM428 213l629 793q-73 118 -211 118q-190 0 -321.5 -228t-131.5 -493q0 -105 35 -190z
M1087 946l-626 -792q75 -115 211 -115q190 0 320 229t130 494q0 112 -35 184z" />
    <glyph glyph-name="infinity" unicode="&#x221e;" horiz-adv-x="1460" 
d="M653 668q71 169 159 222.5t212 53.5q161 0 272 -116.5t111 -301.5q0 -186 -111.5 -303t-238.5 -117q-95 0 -170.5 63t-165.5 224q-117 -233 -324 -233q-149 0 -246.5 104.5t-97.5 263.5q0 157 89 262t218 105q80 0 149 -42t144 -185zM750 465q64 -138 134.5 -201
t176.5 -63q126 0 207.5 91t81.5 234q0 140 -84 240t-199 100q-55 0 -97.5 -21.5t-74.5 -62t-64 -116.5zM614 557l11 33q-96 215 -267 215q-110 0 -179.5 -76.5t-69.5 -198.5q0 -123 66.5 -207.5t162.5 -84.5q82 0 149.5 65t126.5 254z" />
    <glyph glyph-name="plusminus" unicode="&#xb1;" horiz-adv-x="1366" 
d="M137 895h481v481h127v-481h482v-127h-482v-481h-127v481h-481v127zM137 86h1090v-127h-1090v127z" />
    <glyph glyph-name="lessequal" unicode="&#x2264;" horiz-adv-x="1124" 
d="M1077 240l-1018 471v127l1018 471v-127l-887 -408l887 -407v-127zM1077 0h-1018v112h1018v-112z" />
    <glyph glyph-name="greaterequal" unicode="&#x2265;" horiz-adv-x="1124" 
d="M1077 711l-1018 -471v127l887 407l-887 408v127l1018 -471v-127zM1077 0h-1018v112h1018v-112z" />
    <glyph glyph-name="yen" unicode="&#xa5;" horiz-adv-x="1194" 
d="M797 614l-45 -217h387l-13 -57h-387l-28 -133q-8 -37 -8 -63q0 -100 137 -109l-9 -35h-579l8 35q101 15 148 51.5t67 134.5l25 119h-371l12 57h371l45 217h-369l13 58h356l-119 264q-87 187 -194 192l6 35h504l-6 -35q-85 -1 -85 -83q0 -27 11 -60t24 -65l70 -177h8
l162 201q58 74 58 119q0 58 -99 65l6 35h369l-6 -35q-115 -29 -242 -186l-219 -270h393l-12 -58h-389z" />
    <glyph glyph-name="uni00B5" unicode="&#xb5;" horiz-adv-x="1024" 
d="M668 227l114 527h189l-119 -557q-7 -32 -7 -54q0 -82 124 -94l-8 -33l-332 -45h-15l31 140l-4 4q-128 -146 -279 -146q-102 0 -165 82q-18 -76 -18 -154q0 -41 5.5 -100t5.5 -80q0 -108 -112 -108q-46 0 -76.5 24t-30.5 60q0 26 33 86q84 155 127 350l137 625h189
l-111 -518q-4 -23 -4 -43q0 -52 30 -82.5t81 -30.5q63 0 138 69.5t77 77.5z" />
    <glyph glyph-name="partialdiff" unicode="&#x2202;" horiz-adv-x="1012" 
d="M295 1120h-45q131 303 379 303q161 0 263.5 -127t102.5 -376q0 -358 -164.5 -654.5t-427.5 -296.5q-155 0 -246 91t-91 245q0 239 166.5 420.5t383.5 181.5q222 0 312 -190h4q10 144 10 186q0 175 -92.5 276t-253.5 101q-194 0 -301 -160zM911 629q-81 225 -284 225
q-178 0 -286 -190.5t-108 -399.5q0 -108 54 -172.5t143 -64.5q136 0 279.5 162.5t201.5 439.5z" />
    <glyph glyph-name="summation" unicode="&#x2211;" horiz-adv-x="1460" 
d="M1423 238q-32 -125 -54 -240t-34 -219q-63 11 -102.5 16.5t-54.5 5.5h-1031q-20 0 -59 -3t-59 -3l714 815l-710 930q70 -7 123 -10.5t90 -3.5h1018l12 -326h-41q-31 102 -52.5 141t-81.5 66q-30 13 -74.5 20t-104.5 7h-539l559 -734l-602 -694h760q127 0 177.5 52
t98.5 180h47z" />
    <glyph glyph-name="product" unicode="&#x220f;" horiz-adv-x="1686" 
d="M1645 -207h-629v47q120 0 159.5 41t39.5 125v1419h-734v-1419q0 -84 39.5 -125t159.5 -41v-47h-629v47q122 0 160.5 41t38.5 125v1282q0 101 -48.5 152t-146.5 51v47h1586v-47q-98 0 -146.5 -51t-48.5 -152v-1282q0 -84 38.5 -125t160.5 -41v-47z" />
    <glyph glyph-name="pi" unicode="&#x3c0;" horiz-adv-x="1124" 
d="M1085 309q-5 -155 -75.5 -248.5t-167.5 -93.5q-79 0 -138.5 91.5t-59.5 281.5q0 42 2 80t5 72l35 329h-231q-60 -624 -98.5 -742.5t-130.5 -118.5q-39 0 -74 31t-35 82q0 46 72.5 128.5t80.5 150.5l60 469h-97q-40 0 -78.5 -19.5t-56.5 -45.5l-43 -64h-35
q49 152 120.5 228.5t164.5 76.5h764v-176h-258q-12 -120 -18.5 -240t-6.5 -241q0 -82 38 -133t95 -51q35 0 73.5 28.5t43.5 74.5q3 22 4.5 34.5t1.5 15.5h43z" />
    <glyph glyph-name="integral" unicode="&#x222b;" horiz-adv-x="561" 
d="M602 1760q0 -39 -29.5 -64t-75.5 -25q-37 0 -60 25t-44 25q-18 0 -27.5 -14.5t-9.5 -43.5q0 -34 19.5 -256t19.5 -551q0 -505 -30 -709.5t-79 -282.5q-26 -41 -67.5 -62t-85.5 -21q-49 0 -86 35t-37 85q0 38 25.5 65t64.5 27q34 0 65.5 -33t44.5 -33q25 0 39.5 44.5
t14.5 153.5q0 37 -6 197t-6 562q0 481 17 638.5t41 215.5q29 70 69 104t84 34q57 0 98 -32.5t41 -83.5z" />
    <glyph glyph-name="ordfeminine" unicode="&#xaa;" horiz-adv-x="662" 
d="M694 1198l-67 -319q-7 -34 -7 -51q0 -45 78 -46l-6 -32l-241 -33l14 65q-87 -65 -172 -65q-72 0 -121 44.5t-49 108.5q0 133 131.5 230.5t359.5 97.5h80zM541 1137h-49q-103 0 -160.5 -80.5t-57.5 -165.5q0 -38 25.5 -66t60.5 -28q51 0 125 77z" />
    <glyph glyph-name="ordmasculine" unicode="&#xba;" horiz-adv-x="662" 
d="M168 885q0 119 109 216t243 97q74 0 128 -49.5t54 -116.5q0 -116 -105 -215.5t-228 -99.5q-85 0 -143 49t-58 119zM551 1044q0 99 -74 99q-62 0 -110 -80t-48 -189q0 -44 20 -73t50 -29q70 0 116 82t46 190z" />
    <glyph glyph-name="uni2126" unicode="&#x2126;" horiz-adv-x="1573" 
d="M1506 0h-604l33 311q161 59 226 200t65 313q0 227 -107 373t-331 146t-331 -146t-107 -373q0 -172 65 -313t226 -200l33 -311h-604v332h30q16 -66 40 -95.5t96 -29.5h323l-4 57q-238 65 -341 221t-103 332q0 259 192 425.5t485 166.5t485 -166.5t192 -425.5
q0 -176 -103 -332t-341 -221l-4 -57h323q72 0 96 29.5t40 95.5h30v-332z" />
    <glyph glyph-name="ae" unicode="&#xe6;" horiz-adv-x="1450" 
d="M1331 195l25 -21q-159 -205 -369 -205q-211 0 -305 205q-178 -205 -350 -205q-101 0 -172.5 73t-71.5 177q0 135 100.5 272.5t276 199.5t386.5 62l357 1q191 0 191 -133q0 -204 -533 -295l-4 -58q0 -77 62 -132.5t147 -55.5q132 0 260 115zM877 375q149 15 237 80.5
t88 146.5q0 37 -23 62.5t-57 25.5q-86 0 -159 -89t-86 -226zM672 248l-2 49q0 84 54.5 185t176.5 182q-80 20 -149 20q-252 0 -359.5 -137t-107.5 -289q0 -77 40.5 -127.5t100.5 -50.5q109 0 246 168z" />
    <glyph glyph-name="oslash" unicode="&#xf8;" horiz-adv-x="918" 
d="M158 29l-76 -86l-41 34l76 86q-66 74 -66 183q0 182 153.5 345t370.5 163q57 0 123 -31l45 53l37 -33l-41 -47q103 -83 103 -209q0 -191 -158 -354.5t-342 -163.5q-111 0 -184 60zM250 216l373 421q-37 51 -109 51q-114 0 -189 -144t-76 -296q0 -16 1 -32zM645 588
l-385 -441q9 -50 42.5 -81t72.5 -31q118 0 196 143.5t78 332.5q0 40 -4 77z" />
    <glyph glyph-name="questiondown" unicode="&#xbf;" horiz-adv-x="748" 
d="M506 382h39q-9 -85 -37 -148.5t-142 -156t-155 -160t-41 -137.5q0 -62 48.5 -107t115.5 -45q105 0 211 131l33 -12q-49 -127 -136 -195.5t-192 -68.5q-104 0 -171.5 74t-67.5 190q0 120 65.5 208.5t194.5 175.5t173 141.5t62 109.5zM713 593q0 -54 -38.5 -91.5
t-92.5 -37.5t-91.5 37.5t-37.5 91.5q0 53 38 92t91 39t92 -39t39 -92z" />
    <glyph glyph-name="exclamdown" unicode="&#xa1;" horiz-adv-x="532" 
d="M332 390l-91 -748q-15 -124 -43.5 -177.5t-85.5 -53.5q-36 0 -58.5 26t-22.5 68q0 60 36 174l230 711h35zM477 597q0 -54 -38.5 -91.5t-92.5 -37.5t-91.5 37.5t-37.5 91.5q0 53 38 92t91 39t92 -39t39 -92z" />
    <glyph glyph-name="logicalnot" unicode="&#xac;" horiz-adv-x="1366" 
d="M203 850h1089v-619h-127v492h-962v127z" />
    <glyph glyph-name="radical" unicode="&#x221a;" horiz-adv-x="1124" 
d="M1055 1868l-307 -1946l-498 1028l-197 -96l-33 68l299 147l404 -825l260 1634z" />
    <glyph glyph-name="florin" unicode="&#x192;" horiz-adv-x="1366" 
d="M1051 723l-15 -70h-143l-115 -637q-59 -326 -190.5 -456.5t-364.5 -130.5q-140 0 -225 30l70 234h33q26 -199 174 -199q93 0 169 80t103 225l156 854h-174l14 70h174q75 537 440 537q72 0 152 -23l24 20h35l-78 -245h-28q-6 194 -123 194q-129 0 -176 -223l-56 -260h144z
" />
    <glyph glyph-name="approxequal" unicode="&#x2248;" horiz-adv-x="1124" 
d="M1022 874h51q-21 -155 -95.5 -238t-186.5 -83q-97 0 -304 117q-139 78 -211 78q-149 0 -178 -187h-47q20 154 93.5 238t181.5 84q47 0 107 -19.5t224 -107.5q118 -62 193 -62q144 0 172 180zM1022 487h51q-21 -155 -95.5 -238t-186.5 -83q-96 0 -268.5 97t-246.5 97
q-149 0 -178 -186h-47q20 153 93.5 236.5t181.5 83.5q47 0 112 -21.5t219 -103.5q118 -62 193 -62q144 0 172 180z" />
    <glyph glyph-name="uni2206" unicode="&#x2206;" horiz-adv-x="1253" 
d="M668 1409l577 -1409h-1233zM594 1059l-447 -959h844z" />
    <glyph glyph-name="guillemotleft" unicode="&#xab;" 
d="M920 788l-232 -436v-352h-29l-157 412l387 376h31zM545 788l-232 -436v-352h-28l-158 412l387 376h31z" />
    <glyph glyph-name="guillemotright" unicode="&#xbb;" 
d="M436 0l232 436v352h28l158 -411l-387 -377h-31zM63 0l232 436v352h29l157 -411l-387 -377h-31z" />
    <glyph glyph-name="ellipsis" unicode="&#x2026;" horiz-adv-x="2048" 
d="M1706 -31q-63 0 -107.5 44.5t-44.5 107.5t44.5 107t107.5 44t107.5 -44t44.5 -107t-44.5 -107.5t-107.5 -44.5zM1024 -31q-63 0 -107.5 44.5t-44.5 107.5t44.5 107t107.5 44t107.5 -44t44.5 -107t-44.5 -107.5t-107.5 -44.5zM342 -31q-63 0 -107.5 44.5t-44.5 107.5
t44.5 107t107.5 44t107.5 -44t44.5 -107t-44.5 -107.5t-107.5 -44.5z" />
    <glyph glyph-name="uni00A0" unicode="&#xa0;" horiz-adv-x="1024" 
 />
    <glyph glyph-name="Agrave" unicode="&#xc0;" horiz-adv-x="1194" 
d="M743 219v178h-309l-149 -225q-30 -45 -30 -72q0 -50 101 -65l-6 -35h-358l6 35q81 11 126.5 54.5t125.5 162.5l631 942h98v-989q0 -97 25.5 -133t115.5 -37l-6 -35h-518l6 35q77 7 109 40.5t32 143.5zM743 479v387h-4l-252 -387h256zM580 1636h358l127 -342h-35z" />
    <glyph glyph-name="Atilde" unicode="&#xc3;" horiz-adv-x="1194" 
d="M743 219v178h-309l-149 -225q-30 -45 -30 -72q0 -50 101 -65l-6 -35h-358l6 35q81 11 126.5 54.5t125.5 162.5l631 942h98v-989q0 -97 25.5 -133t115.5 -37l-6 -35h-518l6 35q77 7 109 40.5t32 143.5zM743 479v387h-4l-252 -387h256zM1282 1598q2 -110 -68.5 -187
t-162.5 -77q-69 0 -175 45t-149 45q-85 0 -110 -84h-27q0 107 67.5 184.5t159.5 77.5q65 0 173.5 -45t148.5 -45q89 0 117 86h26z" />
    <glyph glyph-name="Otilde" unicode="&#xd5;" horiz-adv-x="1366" 
d="M897 1194q199 0 334 -127t135 -342q0 -292 -225.5 -524t-507.5 -232q-207 0 -345 124.5t-138 340.5q0 286 221.5 523t525.5 237zM672 39q190 0 320 229t130 494q0 161 -77 261.5t-199 100.5q-190 0 -321.5 -228t-131.5 -493q0 -163 77.5 -263.5t201.5 -100.5zM1288 1598
q2 -110 -68.5 -187t-162.5 -77q-69 0 -175 45t-149 45q-85 0 -110 -84h-27q0 107 67.5 184.5t159.5 77.5q65 0 173.5 -45t148.5 -45q89 0 117 86h26z" />
    <glyph glyph-name="OE" unicode="&#x152;" horiz-adv-x="1878" 
d="M1282 563l-74 -344q-7 -35 -7 -61q0 -90 114 -90h188q155 0 266 192h39l-104 -260h-811q-21 0 -111 -8t-135 -8q-232 0 -359.5 129.5t-127.5 318.5q0 270 202.5 509t526.5 239q34 0 129.5 -8.5t150.5 -8.5h668l-45 -211h-39q-11 91 -35 117.5t-96 26.5h-227l-99 -465h205
q121 0 170 104h35l-61 -289h-35q-7 64 -39 90.5t-117 26.5h-172zM993 311l115 541q10 47 10 85q0 173 -225 173q-236 0 -363 -220.5t-127 -467.5q0 -169 76.5 -269t216.5 -100q243 0 297 258z" />
    <glyph glyph-name="oe" unicode="&#x153;" horiz-adv-x="1450" 
d="M1335 195l25 -23q-160 -203 -375 -203q-163 0 -262 137q-191 -137 -338 -137q-130 0 -214.5 77.5t-84.5 195.5q0 192 160 352t352 160q171 0 268 -125q172 125 342 125q191 0 191 -133q0 -94 -134.5 -176.5t-398.5 -118.5l-4 -58q0 -77 62 -132.5t147 -55.5
q140 0 264 115zM555 688q-118 0 -195 -141t-77 -303q0 -209 147 -209q109 0 189.5 136.5t80.5 328.5q0 97 -48 142.5t-97 45.5zM870 371q177 22 259.5 88t82.5 133q0 38 -25 63t-63 25q-78 0 -157 -82t-97 -227z" />
    <glyph glyph-name="endash" unicode="&#x2013;" horiz-adv-x="1024" 
d="M-12 479h1048v-129h-1048v129z" />
    <glyph glyph-name="emdash" unicode="&#x2014;" horiz-adv-x="2048" 
d="M-12 479h2072v-129h-2072v129z" />
    <glyph glyph-name="quotedblleft" unicode="&#x201c;" 
d="M1040 1260l-8 -33q-96 -26 -147 -82.5t-51 -120.5q0 -21 51 -54.5t51 -103.5q0 -55 -37.5 -92t-93.5 -37q-60 0 -94.5 39t-34.5 107q0 125 99 237t265 140zM678 1260l-8 -33q-97 -26 -148 -82.5t-51 -120.5q0 -21 51 -54.5t51 -103.5q0 -55 -37 -92t-94 -37q-59 0 -94 39
t-35 107q0 125 99.5 237t265.5 140z" />
    <glyph glyph-name="quotedblright" unicode="&#x201d;" 
d="M522 737l8 33q97 26 148 82.5t51 120.5q0 21 -51 54.5t-51 102.5q0 56 37 93t94 37q59 0 94 -39t35 -107q0 -125 -99.5 -237t-265.5 -140zM160 737l8 33q96 26 147.5 82.5t51.5 120.5q0 21 -51.5 54.5t-51.5 102.5q0 56 37.5 93t93.5 37q60 0 94.5 -39t34.5 -107
q0 -125 -99 -237t-265 -140z" />
    <glyph glyph-name="quoteleft" unicode="&#x2018;" horiz-adv-x="532" 
d="M645 1260l-8 -33q-96 -26 -147.5 -82.5t-51.5 -120.5q0 -21 51.5 -54.5t51.5 -103.5q0 -55 -37.5 -92t-93.5 -37q-60 0 -94.5 39t-34.5 107q0 125 99 237t265 140z" />
    <glyph glyph-name="quoteright" unicode="&#x2019;" horiz-adv-x="532" 
d="M172 737l8 33q97 26 148 82.5t51 120.5q0 21 -51.5 54.5t-51.5 102.5q0 56 37.5 93t94.5 37q59 0 94 -39t35 -107q0 -125 -99.5 -237t-265.5 -140z" />
    <glyph glyph-name="divide" unicode="&#xf7;" horiz-adv-x="1368" 
d="M750 870q-36 0 -60 24.5t-24 59.5q0 36 24 60t60 24q35 0 59.5 -24t24.5 -60q0 -35 -24.5 -59.5t-59.5 -24.5zM205 608h1089v-127h-1089v127zM666 135q0 35 24 59.5t60 24.5q35 0 59.5 -24.5t24.5 -59.5t-24.5 -59.5t-59.5 -24.5q-36 0 -60 24.5t-24 59.5z" />
    <glyph glyph-name="lozenge" unicode="&#x25ca;" horiz-adv-x="1012" 
d="M962 763l-397 -763h-122l-397 763l397 763h122zM839 763l-335 652l-335 -652l335 -652z" />
    <glyph glyph-name="ydieresis" unicode="&#xff;" horiz-adv-x="831" 
d="M731 510l-434 -725q-66 -111 -172 -206t-192.5 -117.5t-211.5 -22.5l48 141q169 3 295 66t251 278l-100 600q-26 157 -123 164l8 35h387l-8 -35q-90 -15 -90 -98q0 -29 6 -70l56 -364h4l227 387q33 54 33 78q0 30 -26 48.5t-58 18.5l8 35h281l-9 -35q-89 -27 -180 -178z
M699 1055q0 54 39.5 93.5t95.5 39.5q55 0 94 -39t39 -94q0 -56 -39.5 -95.5t-93.5 -39.5q-55 0 -95 40t-40 95zM289 1055q0 54 40 93.5t95 39.5t94 -39t39 -94q0 -56 -39 -95.5t-94 -39.5t-95 40t-40 95z" />
    <glyph glyph-name="Ydieresis" unicode="&#x178;" horiz-adv-x="1194" 
d="M811 618l-88 -411q-8 -37 -8 -63q0 -100 137 -109l-8 -35h-580l8 35q99 14 147.5 50t69.5 136l78 367l-153 332q-87 189 -201 208l6 35h504l-6 -35q-84 -1 -84 -80q0 -61 49 -165l94 -201l211 262q57 72 57 117q0 60 -98 67l6 35h369l-6 -35q-113 -23 -242 -184z
M957 1466q0 54 39.5 93.5t95.5 39.5q55 0 94 -39t39 -94q0 -56 -39.5 -95.5t-93.5 -39.5q-55 0 -95 40t-40 95zM547 1466q0 54 40 93.5t95 39.5t94 -39t39 -94q0 -56 -39 -95.5t-94 -39.5t-95 40t-40 95z" />
    <glyph glyph-name="fraction" unicode="&#x2215;" horiz-adv-x="213" 
d="M776 1229l-1079 -1243h-113l1067 1243h125z" />
    <glyph glyph-name="Euro" unicode="&#x20ac;" 
d="M963 1243l-35 -319h-31q-29 231 -188 231q-107 0 -200.5 -119t-135.5 -317h428l-13 -70h-426q-10 -66 -12 -102h424l-12 -70h-412q3 -186 76 -292.5t184 -106.5q160 0 262 182l29 -18q-58 -123 -139.5 -198t-237.5 -75q-176 0 -275.5 133.5t-101.5 374.5h-100l12 70h91
q1 38 12 102h-101l13 70h98q56 235 201.5 371.5t306.5 136.5q75 0 115 -13q50 -14 75 -14q40 0 60 43h33z" />
    <glyph glyph-name="guilsinglleft" unicode="&#x2039;" horiz-adv-x="555" 
d="M541 788l-232 -436v-352h-28l-158 412l387 376h31z" />
    <glyph glyph-name="guilsinglright" unicode="&#x203a;" horiz-adv-x="555" 
d="M31 0l231 436v352h29l158 -411l-388 -377h-30z" />
    <glyph glyph-name="uniF001" unicode="&#xf001;" horiz-adv-x="1153" 
d="M748 195l73 350q4 19 4 35q0 71 -92 71h-264l-100 -585q-70 -414 -220 -525.5t-342 -111.5q-127 0 -225 43l68 219h37q7 -90 56 -143.5t118 -53.5q103 0 175 90t101 258l142 809h-170l14 72h170q79 537 491 537q92 0 183 -23l20 25h39l-65 -226h-37q-31 174 -170 174
q-167 0 -222 -256l-49 -231h285q64 0 153 9l85 9h51l-117 -555q-7 -33 -7 -56q0 -80 99 -95l-8 -35h-430l8 35q65 11 96.5 43t49.5 117zM969 797q-48 0 -82.5 26.5t-34.5 63.5q0 36 34.5 62t82.5 26t83 -26t35 -62t-35 -63t-83 -27z" />
    <glyph glyph-name="uniF001" unicode="&#xfb01;" horiz-adv-x="1153" 
d="M748 195l73 350q4 19 4 35q0 71 -92 71h-264l-100 -585q-70 -414 -220 -525.5t-342 -111.5q-127 0 -225 43l68 219h37q7 -90 56 -143.5t118 -53.5q103 0 175 90t101 258l142 809h-170l14 72h170q79 537 491 537q92 0 183 -23l20 25h39l-65 -226h-37q-31 174 -170 174
q-167 0 -222 -256l-49 -231h285q64 0 153 9l85 9h51l-117 -555q-7 -33 -7 -56q0 -80 99 -95l-8 -35h-430l8 35q65 11 96.5 43t49.5 117zM969 797q-48 0 -82.5 26.5t-34.5 63.5q0 36 34.5 62t82.5 26t83 -26t35 -62t-35 -63t-83 -27z" />
    <glyph glyph-name="uniF002" unicode="&#xf002;" horiz-adv-x="1153" 
d="M748 174l100 477h-383l-111 -651q-51 -313 -189 -442t-347 -129q-158 0 -236 43l68 221h33q26 -199 178 -199q90 0 165 81.5t103 244.5l145 831h-170l17 72h170q32 255 162.5 396t324.5 141q88 0 195 -27l16 24h35l-14 -69l147 22l-221 -1040q-4 -20 -4 -37
q0 -92 112 -98l-8 -35h-446l8 35q123 14 150 139zM864 723l54 256q4 21 4 41q0 74 -52 124t-120 50q-167 0 -226 -272l-43 -199h383z" />
    <glyph glyph-name="uniF002" unicode="&#xfb02;" horiz-adv-x="1153" 
d="M748 174l100 477h-383l-111 -651q-51 -313 -189 -442t-347 -129q-158 0 -236 43l68 221h33q26 -199 178 -199q90 0 165 81.5t103 244.5l145 831h-170l17 72h170q32 255 162.5 396t324.5 141q88 0 195 -27l16 24h35l-14 -69l147 22l-221 -1040q-4 -20 -4 -37
q0 -92 112 -98l-8 -35h-446l8 35q123 14 150 139zM864 723l54 256q4 21 4 41q0 74 -52 124t-120 50q-167 0 -226 -272l-43 -199h383z" />
    <glyph glyph-name="daggerdbl" unicode="&#x2021;" horiz-adv-x="1044" 
d="M586 801q5 69 -9 157t-14 113q0 61 33.5 100t85.5 39q38 0 69 -32.5t31 -73.5q0 -57 -63.5 -152.5t-75.5 -150.5q64 5 144 37t124 32q51 0 85 -31t34 -75q0 -41 -35.5 -73t-83.5 -32q-41 0 -135.5 42.5t-144.5 43.5q-3 -122 53 -221q-149 -119 -149 -239q0 -75 61 -174
q-105 -95 -145 -215q64 12 150 42.5t118 30.5q49 0 82 -28.5t33 -69.5q0 -46 -34.5 -76.5t-86.5 -30.5q-37 0 -107 35.5t-168 36.5q-4 -35 -4 -64q0 -36 9.5 -94t9.5 -104q0 -61 -35.5 -103t-85.5 -42q-40 0 -69.5 28.5t-29.5 69.5q0 45 62 142t86 167q-59 0 -144 -36
t-126 -36q-53 0 -87 29.5t-34 75.5q0 39 35 69.5t81 30.5q37 0 138 -34t149 -39q2 19 2 37q0 98 -63 178q149 119 149 249q0 73 -61 164q112 94 153 221q-67 -7 -147.5 -39t-124.5 -32q-51 0 -84 28t-33 72q0 41 34 69.5t83 28.5q34 0 115 -33t170 -38z" />
    <glyph glyph-name="uni00B7" unicode="&#xb7;" horiz-adv-x="532" 
d="M211 627q0 53 38.5 91t92.5 38t91.5 -38t37.5 -91q0 -54 -38 -92.5t-91 -38.5t-92 38.5t-39 92.5z" />
    <glyph glyph-name="uni00B7" unicode="&#x2219;" horiz-adv-x="532" 
d="M211 627q0 53 38.5 91t92.5 38t91.5 -38t37.5 -91q0 -54 -38 -92.5t-91 -38.5t-92 38.5t-39 92.5z" />
    <glyph glyph-name="quotesinglbase" unicode="&#x201a;" horiz-adv-x="532" 
d="M-26 -291l8 33q97 26 148 82.5t51 120.5q0 21 -51.5 54.5t-51.5 102.5q0 56 37.5 93t94.5 37q59 0 94 -39t35 -107q0 -125 -99.5 -237t-265.5 -140z" />
    <glyph glyph-name="quotedblbase" unicode="&#x201e;" 
d="M420 -291l8 33q97 26 148 82.5t51 120.5q0 21 -51 54.5t-51 102.5q0 56 37 93t94 37q59 0 94 -39t35 -107q0 -125 -99.5 -237t-265.5 -140zM58 -291l8 33q96 26 147.5 82.5t51.5 120.5q0 21 -51.5 54.5t-51.5 102.5q0 56 37.5 93t93.5 37q60 0 94.5 -39t34.5 -107
q0 -125 -99 -237t-265 -140z" />
    <glyph glyph-name="perthousand" unicode="&#x2030;" horiz-adv-x="2134" 
d="M176 803q0 150 106.5 288t245.5 138q81 0 136 -65.5t55 -164.5q0 -158 -108.5 -292t-235.5 -134q-86 0 -142.5 65t-56.5 165zM578 1001q0 179 -89 179q-64 0 -117 -110.5t-53 -254.5q0 -192 82 -192q70 0 123.5 111.5t53.5 266.5zM1417 1229l-1071 -1243h-125l1071 1243
h125zM1554 213q0 151 106.5 288.5t246.5 137.5q81 0 135.5 -65.5t54.5 -163.5q0 -159 -108.5 -292.5t-235.5 -133.5q-86 0 -142.5 64.5t-56.5 164.5zM1956 412q0 178 -88 178q-65 0 -117.5 -110.5t-52.5 -254.5q0 -192 82 -192q69 0 122.5 112t53.5 267zM918 213
q0 151 106 288.5t246 137.5q81 0 135.5 -65.5t54.5 -163.5q0 -159 -108.5 -292.5t-235.5 -133.5q-85 0 -141.5 64.5t-56.5 164.5zM1319 412q0 178 -88 178q-64 0 -117 -110.5t-53 -254.5q0 -192 82 -192q69 0 122.5 112t53.5 267z" />
    <glyph glyph-name="Acircumflex" unicode="&#xc2;" horiz-adv-x="1194" 
d="M743 219v178h-309l-149 -225q-30 -45 -30 -72q0 -50 101 -65l-6 -35h-358l6 35q81 11 126.5 54.5t125.5 162.5l631 942h98v-989q0 -97 25.5 -133t115.5 -37l-6 -35h-518l6 35q77 7 109 40.5t32 143.5zM743 479v387h-4l-252 -387h256zM1119 1649l86 -371h-37l-181 203
l-438 -203h-29l390 371h209z" />
    <glyph glyph-name="Ecircumflex" unicode="&#xca;" horiz-adv-x="1130" 
d="M961 737l-62 -288h-35q-10 116 -153 116h-174l-72 -338q-12 -58 -12 -83q0 -46 34.5 -61t116.5 -15h168q77 0 135.5 48t120.5 146h33l-105 -262h-911l8 35q75 13 115 52t61 140l160 752q6 24 6 44q0 84 -127 105l6 35h816l-46 -209h-38q-8 77 -28.5 109.5t-96.5 32.5
h-232l-98 -463h160q169 0 215 104h35zM1009 1649l86 -371h-37l-181 203l-438 -203h-29l390 371h209z" />
    <glyph glyph-name="Aacute" unicode="&#xc1;" horiz-adv-x="1194" 
d="M743 219v178h-309l-149 -225q-30 -45 -30 -72q0 -50 101 -65l-6 -35h-358l6 35q81 11 126.5 54.5t125.5 162.5l631 942h98v-989q0 -97 25.5 -133t115.5 -37l-6 -35h-518l6 35q77 7 109 40.5t32 143.5zM743 479v387h-4l-252 -387h256zM1284 1636l-450 -342h-35l127 342
h358z" />
    <glyph glyph-name="Edieresis" unicode="&#xcb;" horiz-adv-x="1130" 
d="M961 737l-62 -288h-35q-10 116 -153 116h-174l-72 -338q-12 -58 -12 -83q0 -46 34.5 -61t116.5 -15h168q77 0 135.5 48t120.5 146h33l-105 -262h-911l8 35q75 13 115 52t61 140l160 752q6 24 6 44q0 84 -127 105l6 35h816l-46 -209h-38q-8 77 -28.5 109.5t-96.5 32.5
h-232l-98 -463h160q169 0 215 104h35zM926 1466q0 54 39.5 93.5t95.5 39.5q55 0 94 -39t39 -94q0 -56 -39.5 -95.5t-93.5 -39.5q-55 0 -95 40t-40 95zM516 1466q0 54 40 93.5t95 39.5t94 -39t39 -94q0 -56 -39 -95.5t-94 -39.5t-95 40t-40 95z" />
    <glyph glyph-name="Egrave" unicode="&#xc8;" horiz-adv-x="1130" 
d="M961 737l-62 -288h-35q-10 116 -153 116h-174l-72 -338q-12 -58 -12 -83q0 -46 34.5 -61t116.5 -15h168q77 0 135.5 48t120.5 146h33l-105 -262h-911l8 35q75 13 115 52t61 140l160 752q6 24 6 44q0 84 -127 105l6 35h816l-46 -209h-38q-8 77 -28.5 109.5t-96.5 32.5
h-232l-98 -463h160q169 0 215 104h35zM469 1636h358l127 -342h-35z" />
    <glyph glyph-name="Iacute" unicode="&#xcd;" horiz-adv-x="748" 
d="M631 936l-162 -764q-4 -17 -4 -33q0 -95 135 -104l-8 -35h-547l8 35q97 22 133.5 61.5t55.5 124.5l153 715q10 44 10 74q0 96 -129 118l5 35h524l-4 -35q-88 -21 -118.5 -55.5t-51.5 -136.5zM981 1636l-450 -342h-35l127 342h358z" />
    <glyph glyph-name="Icircumflex" unicode="&#xce;" horiz-adv-x="748" 
d="M631 936l-162 -764q-4 -17 -4 -33q0 -95 135 -104l-8 -35h-547l8 35q97 22 133.5 61.5t55.5 124.5l153 715q10 44 10 74q0 96 -129 118l5 35h524l-4 -35q-88 -21 -118.5 -55.5t-51.5 -136.5zM816 1649l86 -371h-37l-181 203l-438 -203h-29l390 371h209z" />
    <glyph glyph-name="Idieresis" unicode="&#xcf;" horiz-adv-x="748" 
d="M631 936l-162 -764q-4 -17 -4 -33q0 -95 135 -104l-8 -35h-547l8 35q97 22 133.5 61.5t55.5 124.5l153 715q10 44 10 74q0 96 -129 118l5 35h524l-4 -35q-88 -21 -118.5 -55.5t-51.5 -136.5zM734 1466q0 54 39.5 93.5t95.5 39.5q55 0 94 -39t39 -94q0 -56 -39.5 -95.5
t-93.5 -39.5q-55 0 -95 40t-40 95zM324 1466q0 54 40 93.5t95 39.5t94 -39t39 -94q0 -56 -39 -95.5t-94 -39.5t-95 40t-40 95z" />
    <glyph glyph-name="Igrave" unicode="&#xcc;" horiz-adv-x="748" 
d="M631 936l-162 -764q-4 -17 -4 -33q0 -95 135 -104l-8 -35h-547l8 35q97 22 133.5 61.5t55.5 124.5l153 715q10 44 10 74q0 96 -129 118l5 35h524l-4 -35q-88 -21 -118.5 -55.5t-51.5 -136.5zM277 1636h358l127 -342h-35z" />
    <glyph glyph-name="Oacute" unicode="&#xd3;" horiz-adv-x="1366" 
d="M897 1194q199 0 334 -127t135 -342q0 -292 -225.5 -524t-507.5 -232q-207 0 -345 124.5t-138 340.5q0 286 221.5 523t525.5 237zM672 39q190 0 320 229t130 494q0 161 -77 261.5t-199 100.5q-190 0 -321.5 -228t-131.5 -493q0 -163 77.5 -263.5t201.5 -100.5zM1290 1636
l-450 -342h-35l127 342h358z" />
    <glyph glyph-name="Ocircumflex" unicode="&#xd4;" horiz-adv-x="1366" 
d="M897 1194q199 0 334 -127t135 -342q0 -292 -225.5 -524t-507.5 -232q-207 0 -345 124.5t-138 340.5q0 286 221.5 523t525.5 237zM672 39q190 0 320 229t130 494q0 161 -77 261.5t-199 100.5q-190 0 -321.5 -228t-131.5 -493q0 -163 77.5 -263.5t201.5 -100.5zM1125 1649
l86 -371h-37l-181 203l-438 -203h-29l390 371h209z" />
    <glyph glyph-name="uniF000" unicode="&#xf000;" horiz-adv-x="1618" 
 />
    <glyph glyph-name="Ograve" unicode="&#xd2;" horiz-adv-x="1366" 
d="M897 1194q199 0 334 -127t135 -342q0 -292 -225.5 -524t-507.5 -232q-207 0 -345 124.5t-138 340.5q0 286 221.5 523t525.5 237zM672 39q190 0 320 229t130 494q0 161 -77 261.5t-199 100.5q-190 0 -321.5 -228t-131.5 -493q0 -163 77.5 -263.5t201.5 -100.5zM586 1636
h358l127 -342h-35z" />
    <glyph glyph-name="Uacute" unicode="&#xda;" horiz-adv-x="1579" 
d="M1436 930l-101 -469q-46 -217 -202 -354.5t-377 -137.5q-216 0 -341.5 123t-125.5 293q0 97 22 199l84 379q6 25 6 46q0 109 -143 119l6 35h553l-6 -35q-80 -15 -121 -44.5t-67 -153.5l-109 -502q-18 -80 -18 -149q0 -107 70 -173.5t184 -66.5q124 0 211.5 89t121.5 251
l125 586q8 35 8 57q0 50 -38 72.5t-113 33.5l6 35h584l-6 -35q-100 -15 -144.5 -50.5t-68.5 -147.5zM1397 1636l-450 -342h-35l127 342h358z" />
    <glyph glyph-name="Ucircumflex" unicode="&#xdb;" horiz-adv-x="1579" 
d="M1436 930l-101 -469q-46 -217 -202 -354.5t-377 -137.5q-216 0 -341.5 123t-125.5 293q0 97 22 199l84 379q6 25 6 46q0 109 -143 119l6 35h553l-6 -35q-80 -15 -121 -44.5t-67 -153.5l-109 -502q-18 -80 -18 -149q0 -107 70 -173.5t184 -66.5q124 0 211.5 89t121.5 251
l125 586q8 35 8 57q0 50 -38 72.5t-113 33.5l6 35h584l-6 -35q-100 -15 -144.5 -50.5t-68.5 -147.5zM1232 1649l86 -371h-37l-181 203l-438 -203h-29l390 371h209z" />
    <glyph glyph-name="Ugrave" unicode="&#xd9;" horiz-adv-x="1579" 
d="M1436 930l-101 -469q-46 -217 -202 -354.5t-377 -137.5q-216 0 -341.5 123t-125.5 293q0 97 22 199l84 379q6 25 6 46q0 109 -143 119l6 35h553l-6 -35q-80 -15 -121 -44.5t-67 -153.5l-109 -502q-18 -80 -18 -149q0 -107 70 -173.5t184 -66.5q124 0 211.5 89t121.5 251
l125 586q8 35 8 57q0 50 -38 72.5t-113 33.5l6 35h584l-6 -35q-100 -15 -144.5 -50.5t-68.5 -147.5zM693 1636h358l127 -342h-35z" />
    <glyph glyph-name="dotlessi" unicode="&#x131;" horiz-adv-x="575" 
d="M483 754l-121 -574q-6 -30 -6 -52q0 -81 111 -93l-6 -35h-447l9 35q122 17 147 137l70 338q9 43 9 71q0 90 -130 91l8 35l334 47h22z" />
    <glyph glyph-name="circumflex" unicode="&#x2c6;" horiz-adv-x="682" 
d="M705 1237l86 -371h-37l-181 203l-438 -203h-29l390 371h209z" />
    <glyph glyph-name="tilde" unicode="&#x2dc;" horiz-adv-x="682" 
d="M868 1186q2 -110 -68.5 -187t-162.5 -77q-69 0 -175 45t-149 45q-85 0 -110 -84h-27q0 107 67.5 184.5t159.5 77.5q65 0 173.5 -45t148.5 -45q89 0 117 86h26z" />
    <glyph glyph-name="macron" unicode="&#x2c9;" horiz-adv-x="682" 
d="M852 1145l-35 -178h-637l35 178h637z" />
    <glyph glyph-name="breve" unicode="&#x2d8;" horiz-adv-x="682" 
d="M797 1210h22q-23 -137 -110.5 -224t-190.5 -87q-86 0 -148.5 58t-62.5 139q0 50 27 114h18q-2 -14 -2 -27q0 -71 51.5 -110t137.5 -39q161 0 258 176z" />
    <glyph glyph-name="dotaccent" unicode="&#x2d9;" horiz-adv-x="682" 
d="M451 1055q0 54 39.5 93.5t95.5 39.5q55 0 94 -39t39 -94q0 -56 -39.5 -95.5t-93.5 -39.5q-55 0 -95 40t-40 95z" />
    <glyph glyph-name="ring" unicode="&#x2da;" horiz-adv-x="682" 
d="M369 1063q0 76 55 131t131 55t131 -55t55 -131q0 -77 -55 -131.5t-131 -54.5t-131 54.5t-55 131.5zM672 1063q0 47 -35 82t-82 35t-82 -35t-35 -82t35 -82t82 -35t82 35t35 82z" />
    <glyph glyph-name="cedilla" unicode="&#xb8;" horiz-adv-x="682" 
d="M342 0l-33 -70q148 -30 148 -157q0 -104 -100.5 -180t-256.5 -76q-31 0 -63 4l6 28q116 0 187 51.5t71 114.5q0 72 -86 107l76 178h51z" />
    <glyph glyph-name="hungarumlaut" unicode="&#x2dd;" horiz-adv-x="682" 
d="M606 1225l-295 -344h-37l37 344h295zM950 1225l-295 -344h-37l37 344h295z" />
    <glyph glyph-name="ogonek" unicode="&#x2db;" horiz-adv-x="682" 
d="M621 -172l32 -61q-114 -99 -243 -99q-94 0 -160 54t-66 128q0 106 86 175h74q-14 -67 -14 -86q0 -49 46 -94.5t130 -45.5q57 0 115 29z" />
    <glyph glyph-name="caron" unicode="&#x2c7;" horiz-adv-x="682" 
d="M383 866l-86 371h37l180 -203l438 203h29l-389 -371h-209z" />
    <glyph glyph-name="Lslash" unicode="&#x141;" horiz-adv-x="1067" 
d="M1067 260l-104 -260h-924l8 35q81 12 122 46.5t64 141.5l52 232l-4 4l-207 -172l20 102l213 170l78 367q13 58 13 88q0 91 -144 114l6 35h567l-6 -35q-111 -29 -143.5 -61.5t-56.5 -140.5l-37 -164l4 -4l209 174l-21 -101l-213 -172l-90 -405q-14 -60 -14 -94
q0 -52 30.5 -72t106.5 -20h139q88 0 155 45.5t142 146.5h35z" />
    <glyph glyph-name="lslash" unicode="&#x142;" horiz-adv-x="575" 
d="M586 1210l-113 -522l166 121l-18 -86l-166 -123l-88 -420q-7 -31 -7 -54q0 -88 115 -91l-8 -35h-449l7 35q84 9 111.5 46t49.5 146l50 240l-175 -129l19 92l176 127l80 371q13 60 13 97q0 114 -132 103l6 35l344 47h19z" />
    <glyph glyph-name="Scaron" unicode="&#x160;" horiz-adv-x="897" 
d="M887 1194l-51 -285h-41q-6 215 -177 215q-77 0 -132.5 -59t-55.5 -143q0 -45 28 -101t151 -194t159.5 -217t36.5 -146q0 -134 -103.5 -214.5t-277.5 -80.5q-77 0 -168.5 15.5t-105.5 15.5q-41 0 -60 -31h-33l60 287h35q35 -217 225 -217q83 0 137.5 48t54.5 122
q0 49 -27.5 107.5t-143 187.5t-148.5 203t-33 139q0 144 108 246t261 102q34 0 117 -15.5t90 -15.5q40 0 61 31h33zM569 1278l-86 371h37l180 -203l438 203h29l-389 -371h-209z" />
    <glyph glyph-name="scaron" unicode="&#x161;" horiz-adv-x="705" 
d="M682 756l-49 -234h-31q-12 85 -60 130.5t-114 45.5q-47 0 -79 -23t-32 -57q0 -43 108 -154t139.5 -173.5t31.5 -116.5q0 -89 -74 -147t-190 -58q-62 0 -123.5 13.5t-77.5 13.5q-42 0 -57 -25h-33l55 258h33q15 -204 168 -204q49 0 84 28t35 68q0 33 -21.5 73t-106 126.5
t-107.5 131t-23 83.5q0 93 77.5 156t196.5 63q52 0 107.5 -10.5t56.5 -10.5q33 0 55 23h31zM395 866l-86 371h37l180 -203l438 203h29l-389 -371h-209z" />
    <glyph glyph-name="Zcaron" unicode="&#x17d;" horiz-adv-x="1217" 
d="M1104 262l-55 -262h-973l8 35l860 1061h-371q-89 0 -141.5 -45t-91.5 -144h-35l55 256h908l-6 -26l-861 -1069h428q163 0 240 194h35zM729 1278l-86 371h37l180 -203l438 203h29l-389 -371h-209z" />
    <glyph glyph-name="zcaron" unicode="&#x17e;" 
d="M49 53l576 617h-242q-121 0 -178 -125h-35l37 178h670v-53l-580 -617h240q171 0 225 142h35l-43 -195h-705v53zM512 866l-86 371h37l180 -203l438 203h29l-389 -371h-209z" />
    <glyph glyph-name="brokenbar" unicode="&#xa6;" horiz-adv-x="1079" 
d="M537 1262h133v-725h-133v725zM537 283h133v-723h-133v723z" />
    <glyph glyph-name="uni00AD" unicode="&#xad;" horiz-adv-x="748" 
d="M672 442l-31 -149h-565l30 149h566z" />
    <glyph glyph-name="uni00AF" unicode="&#xaf;" horiz-adv-x="1024" 
d="M1372 1265h-1058v102h1058v-102z" />
    <glyph glyph-name="Eth" unicode="&#xd0;" horiz-adv-x="1473" 
d="M119 551l12 65h234l100 457q-120 -26 -258 -135l-23 25q245 231 592 231q310 0 502 -171.5t192 -424.5q0 -180 -98.5 -324t-259.5 -209t-510 -65h-528l8 35q92 11 135 46.5t59 113.5l76 356h-233zM588 551l-68 -307q-12 -55 -12 -84q0 -56 43 -75t147 -19
q245 0 387 146.5t142 365.5t-149 369.5t-365 150.5h-11l-102 -482h215l-12 -65h-215z" />
    <glyph glyph-name="eth" unicode="&#xf0;" horiz-adv-x="948" 
d="M1014 1194l-193 -98q80 -198 80 -437q0 -310 -158 -500t-364 -190q-133 0 -215 77.5t-82 203.5q0 183 158.5 343.5t339.5 160.5q76 0 151 -43q20 65 20 148q0 89 -22 190l-186 -97l-25 45l199 103q-25 94 -45 123l59 30q41 -47 70 -110l188 96zM551 684q-118 0 -195 -147
t-77 -308q0 -89 35.5 -139.5t97.5 -50.5q114 0 203.5 154t89.5 323q0 168 -154 168z" />
    <glyph glyph-name="Yacute" unicode="&#xdd;" horiz-adv-x="1194" 
d="M811 618l-88 -411q-8 -37 -8 -63q0 -100 137 -109l-8 -35h-580l8 35q99 14 147.5 50t69.5 136l78 367l-153 332q-87 189 -201 208l6 35h504l-6 -35q-84 -1 -84 -80q0 -61 49 -165l94 -201l211 262q57 72 57 117q0 60 -98 67l6 35h369l-6 -35q-113 -23 -242 -184z
M1204 1636l-450 -342h-35l127 342h358z" />
    <glyph glyph-name="yacute" unicode="&#xfd;" horiz-adv-x="831" 
d="M731 510l-434 -725q-66 -111 -172 -206t-192.5 -117.5t-211.5 -22.5l48 141q169 3 295 66t251 278l-100 600q-26 157 -123 164l8 35h387l-8 -35q-90 -15 -90 -98q0 -29 6 -70l56 -364h4l227 387q33 54 33 78q0 30 -26 48.5t-58 18.5l8 35h281l-9 -35q-89 -27 -180 -178z
M946 1225l-450 -342h-35l127 342h358z" />
    <glyph glyph-name="Thorn" unicode="&#xde;" horiz-adv-x="1174" 
d="M842 1128q-102 -21 -135.5 -59t-57.5 -168l19 2q199 0 321.5 -90.5t122.5 -234.5q0 -148 -117.5 -251.5t-287.5 -103.5q-106 0 -195 33l-20 -96q-3 -11 -3 -22q0 -94 148 -103l-8 -35h-555l6 35q94 19 129.5 54t52.5 118l168 797q2 11 2 22q0 93 -147 102l8 35h555z
M629 807l-107 -500q51 -16 92 -16q114 0 184 77t70 203q0 107 -65 171.5t-174 64.5z" />
    <glyph glyph-name="thorn" unicode="&#xfe;" horiz-adv-x="1004" 
d="M549 1210l-105 -553q132 97 250 97q120 0 194.5 -76t74.5 -197q0 -206 -183 -359t-481 -153l-68 -317q-6 -30 -6 -52q0 -90 117 -94l-8 -34l-307 -43h-33l328 1542q6 30 6 54q0 103 -113 103l6 35zM430 588l-117 -553q28 -4 72 -4q180 0 280.5 130t100.5 269
q0 101 -48.5 162t-127.5 61q-68 0 -160 -65z" />
    <glyph glyph-name="minus" unicode="&#x2212;" horiz-adv-x="1366" 
d="M203 608h1089v-127h-1089v127z" />
    <glyph glyph-name="multiply" unicode="&#xd7;" horiz-adv-x="1368" 
d="M248 942l94 94l408 -407l407 407l94 -94l-407 -407l407 -408l-94 -94l-407 407l-408 -407l-94 94l407 408z" />
    <glyph glyph-name="onesuperior" unicode="&#xb9;" horiz-adv-x="641" 
d="M602 1225l-125 -523q-8 -32 -8 -46q0 -21 15.5 -28t78.5 -7l-8 -31h-332l8 31q60 0 75 13.5t32 78.5l92 362q7 29 7 37q0 18 -21 18q-22 0 -82 -24l6 31l219 88h43z" />
    <glyph glyph-name="twosuperior" unicode="&#xb2;" horiz-adv-x="641" 
d="M614 684l-20 -94h-438l8 33q377 286 377 452q0 37 -26.5 60.5t-68.5 23.5q-70 0 -153 -82l-29 19q128 133 248 133q75 0 121.5 -36.5t46.5 -94.5q0 -145 -358 -410v-4h292z" />
    <glyph glyph-name="threesuperior" unicode="&#xb3;" horiz-adv-x="641" 
d="M322 1112l-25 25q101 92 227 92q68 0 110 -34t42 -87q0 -115 -187 -182v-4q140 -29 140 -150q0 -82 -74 -140.5t-180 -58.5q-130 0 -234 86l21 25q77 -45 147 -45q77 0 126.5 46t49.5 118q0 47 -29.5 66t-125.5 28l8 31q201 43 201 155q0 36 -25.5 58t-64.5 22
q-51 0 -127 -51z" />
    <glyph glyph-name="onehalf" unicode="&#xbd;" horiz-adv-x="1493" 
d="M602 1225l-125 -523q-8 -32 -8 -46q0 -21 15.5 -28t78.5 -7l-8 -31h-332l8 31q60 0 75 13.5t32 78.5l92 362q7 29 7 37q0 18 -21 18q-22 0 -82 -24l6 31l219 88h43zM1416 1229l-1079 -1243h-113l1067 1243h125zM1350 96l-20 -94h-438l8 33q377 286 377 452
q0 37 -26.5 60.5t-68.5 23.5q-70 0 -153 -82l-29 19q128 133 248 133q75 0 121.5 -36.5t46.5 -94.5q0 -145 -358 -410v-4h292z" />
    <glyph glyph-name="onequarter" unicode="&#xbc;" horiz-adv-x="1493" 
d="M602 1225l-125 -523q-8 -32 -8 -46q0 -21 15.5 -28t78.5 -7l-8 -31h-332l8 31q60 0 75 13.5t32 78.5l92 362q7 29 7 37q0 18 -21 18q-22 0 -82 -24l6 31l219 88h43zM1416 1229l-1079 -1243h-113l1067 1243h125zM1414 641l-94 -436h94l-12 -66h-94l-33 -151h-131l33 151
h-316l6 29l508 473h39zM1238 453l-258 -248h209l53 243z" />
    <glyph glyph-name="threequarters" unicode="&#xbe;" horiz-adv-x="1493" 
d="M322 1112l-25 25q101 92 227 92q68 0 110 -34t42 -87q0 -115 -187 -182v-4q140 -29 140 -150q0 -82 -74 -140.5t-180 -58.5q-130 0 -234 86l21 25q77 -45 147 -45q77 0 126.5 46t49.5 118q0 47 -29.5 66t-125.5 28l8 31q201 43 201 155q0 36 -25.5 58t-64.5 22
q-51 0 -127 -51zM1420 1229l-1079 -1243h-113l1067 1243h125zM1414 641l-94 -436h94l-12 -66h-94l-33 -151h-131l33 151h-316l6 29l508 473h39zM1238 453l-258 -248h209l53 243z" />
    <glyph glyph-name="uniF003" unicode="&#xf003;" horiz-adv-x="641" 
d="M654 1225l-94 -436h94l-12 -66h-94l-33 -151h-131l33 151h-316l6 29l508 473h39zM478 1037l-258 -248h209l53 243z" />
    <glyph glyph-name="currency" unicode="&#xa4;" horiz-adv-x="1401" 
d="M428 1024q115 90 270 90q146 0 273 -90l127 127l90 -90l-127 -127q88 -129 88 -270q0 -156 -90 -271l129 -129l-90 -90l-127 127q-126 -90 -273 -90q-149 0 -270 90l-127 -127l-90 90l127 127q-92 122 -92 273q0 155 92 270l-127 127l90 90zM1024 664q0 134 -95.5 228.5
t-230.5 94.5q-134 0 -228.5 -94.5t-94.5 -228.5q0 -135 94.5 -230.5t228.5 -95.5q135 0 230.5 95.5t95.5 230.5z" />
    </font>
</defs>
</svg>
