<?xml version="1.0" standalone="no"?>
<!DOCTYPE svg PUBLIC "-//W3C//DTD SVG 1.1//EN" "http://www.w3.org/Graphics/SVG/1.1/DTD/svg11.dtd" >
<svg>
<metadata>
Created by FontForge 20090622 at Wed Jan 27 08:36:39 2016
 By deploy user
Digitized data copyright The Monotype Corporation 1991-1995. All rights reserved. Perpetua&#194;&#174; is a trademark of The Monotype Corporation which may be registered in certain jurisdictions.
</metadata>
<defs>
<font id="Perpetua-Italic" horiz-adv-x="938" >
  <font-face 
    font-family="Perpetua"
    font-weight="400"
    font-style="italic"
    font-stretch="normal"
    units-per-em="2048"
    panose-1="2 2 5 2 6 4 1 9 3 3"
    ascent="1638"
    descent="-410"
    x-height="674"
    cap-height="1137"
    bbox="-471 -575 2060 1878"
    underline-thickness="102"
    underline-position="-103"
    slope="-12.228"
    unicode-range="U+0020-U+F003"
  />
<missing-glyph horiz-adv-x="2048" 
d="M256 0v1536h1536v-1536h-1536zM384 128h1280v1280h-1280v-1280z" />
    <glyph glyph-name=".notdef" horiz-adv-x="2048" 
d="M256 0v1536h1536v-1536h-1536zM384 128h1280v1280h-1280v-1280z" />
    <glyph glyph-name=".null" horiz-adv-x="0" 
 />
    <glyph glyph-name="nonmarkingreturn" horiz-adv-x="461" 
 />
    <glyph glyph-name="space" unicode=" " horiz-adv-x="461" 
 />
    <glyph glyph-name="exclam" unicode="!" horiz-adv-x="641" 
d="M242 248l120 870q15 101 82 101q72 0 72 -88q0 -28 -10 -64l-230 -819h-34zM137 66q0 34 26.5 60t61.5 26t60.5 -25.5t25.5 -60.5q0 -36 -25.5 -62.5t-60.5 -26.5t-61.5 26.5t-26.5 62.5z" />
    <glyph glyph-name="quotedbl" unicode="&#x22;" horiz-adv-x="860" 
d="M715 739h-37l-55 324q-13 65 -13 113q0 41 24 67.5t62 26.5t62 -26.5t24 -67.5t-12 -113zM385 739h-37l-55 324q-12 65 -12 113q0 41 24 67.5t62 26.5t62 -26.5t24 -67.5t-13 -113z" />
    <glyph glyph-name="numbersign" unicode="#" horiz-adv-x="1368" 
d="M117 950h334l88 416h88l-88 -416h456l88 416h88l-88 -416h209v-88h-227l-88 -405h315v-88h-334l-88 -416h-88l88 416h-456l-88 -416h-88l88 416h-209v88h227l88 405h-315v88zM520 862l-88 -405h457l88 405h-457z" />
    <glyph glyph-name="dollar" unicode="$" 
d="M623 1112l-95 -438q98 -119 147.5 -207t49.5 -180q0 -129 -85.5 -214t-256.5 -98l-51 -225h-47l49 225q-142 23 -230 101l54 248h32q-4 -38 -4 -71q0 -196 158 -230l111 520q-107 118 -145 192.5t-38 157.5q0 120 86 200.5t230 80.5l10 45h47l-10 -45q107 -14 190 -87
l-47 -223h-30q-15 216 -125 248zM489 715l89 407q-95 0 -148 -46.5t-53 -129.5q0 -55 21 -100.5t91 -130.5zM492 502l-103 -482q94 4 152.5 71t58.5 161q0 107 -108 250z" />
    <glyph glyph-name="percent" unicode="%" horiz-adv-x="1536" 
d="M483 1196q76 0 129.5 -63t53.5 -154q0 -154 -105.5 -285t-226.5 -131q-79 0 -133 63t-54 156q0 156 105.5 285t230.5 129zM356 600q68 0 135.5 107.5t67.5 273.5q0 77 -30.5 127.5t-75.5 50.5q-75 0 -137 -113.5t-62 -259.5q0 -81 29 -133.5t73 -52.5zM1309 1196h59
l-1085 -1196h-60zM1260 623q75 0 128.5 -63.5t53.5 -153.5q0 -154 -105.5 -285t-226.5 -131q-79 0 -132.5 62.5t-53.5 156.5q0 155 105 284.5t231 129.5zM1133 27q67 0 134.5 107.5t67.5 273.5q0 77 -30.5 127.5t-75.5 50.5q-75 0 -137 -113.5t-62 -259.5q0 -82 29.5 -134
t73.5 -52z" />
    <glyph glyph-name="ampersand" unicode="&#x26;" horiz-adv-x="1044" 
d="M1448 -63l-8 -39q-132 -99 -271 -99q-269 0 -493 291q-139 -115 -287 -115q-124 0 -217.5 89t-93.5 206q0 204 270 332q-47 99 -47 193q0 123 79.5 204.5t199.5 81.5q87 0 145.5 -51t58.5 -127q0 -83 -73 -148t-228 -130q86 -191 252 -396q127 143 127 281q0 98 -80 98
q-14 0 -47 -6l-16 23q53 28 104 28q50 0 82.5 -32t32.5 -80q0 -72 -47 -174.5t-119 -176.5q232 -309 479 -309q86 0 197 56zM414 864q0 -102 49 -205q203 86 203 236q0 51 -35.5 86t-87.5 35q-55 0 -92 -43.5t-37 -108.5zM365 565q-148 -79 -148 -246q0 -107 73.5 -181.5
t178.5 -74.5q92 0 174 68q-169 216 -278 434z" />
    <glyph glyph-name="quotesingle" unicode="'" horiz-adv-x="438" 
d="M340 739h-37l-55 324q-12 65 -12 113q0 41 24 67.5t62 26.5t62 -26.5t24 -67.5t-13 -113z" />
    <glyph glyph-name="parenleft" unicode="(" horiz-adv-x="532" 
d="M600 1196h45q-296 -311 -380.5 -576.5t-84.5 -484.5q0 -151 33 -265.5t106 -256.5h-36q-101 152 -157 326.5t-56 316.5q0 493 530 940z" />
    <glyph glyph-name="parenright" unicode=")" horiz-adv-x="532" 
d="M-61 -387h-45q290 303 378 567.5t88 493.5q0 148 -33 262.5t-108 259.5h37q101 -159 158 -332.5t57 -310.5q0 -491 -532 -940z" />
    <glyph glyph-name="asterisk" unicode="*" 
d="M535 770q0 68 -25 146.5t-25 119.5q0 42 21 71.5t51 29.5q72 0 72 -103q0 -43 -29.5 -123.5t-24.5 -140.5q52 16 134 104.5t139 88.5q29 0 49.5 -16.5t20.5 -39.5q0 -38 -30 -66.5t-140.5 -58.5t-151.5 -51q61 -35 159.5 -57.5t129 -54t30.5 -66.5q0 -24 -18 -41.5
t-43 -17.5q-29 0 -64 18t-107 88t-108 94q2 -68 26 -156.5t24 -123.5q0 -39 -22 -67t-52 -28q-29 0 -49.5 27t-20.5 66q0 45 27 126t27 156q-55 -28 -121 -98t-95 -84t-57 -14q-31 0 -51.5 16.5t-20.5 42.5q0 83 140 114.5t184 59.5q-37 25 -148 54t-140 57t-29 65
q0 62 59 62q32 0 64 -16t97.5 -90.5t117.5 -92.5z" />
    <glyph glyph-name="plus" unicode="+" horiz-adv-x="1366" 
d="M176 582h494v493h88v-493h493v-88h-493v-494h-88v494h-494v88z" />
    <glyph glyph-name="comma" unicode="," horiz-adv-x="532" 
d="M31 -256l8 37q166 48 166 199q-88 16 -88 88q0 38 25 63t63 25q44 0 72 -35.5t28 -91.5q0 -98 -75 -179t-199 -106z" />
    <glyph glyph-name="hyphen" unicode="-" horiz-adv-x="641" 
d="M537 375l-17 -76h-420l17 76h420z" />
    <glyph glyph-name="period" unicode="." horiz-adv-x="532" 
d="M133 66q0 34 26.5 60t61.5 26t60.5 -25.5t25.5 -60.5q0 -36 -25.5 -62.5t-60.5 -26.5t-61.5 26.5t-26.5 62.5z" />
    <glyph glyph-name="slash" unicode="/" horiz-adv-x="1024" 
d="M821 1219h94l-598 -1244h-94z" />
    <glyph glyph-name="zero" unicode="0" 
d="M616 1198q119 0 206 -121.5t87 -306.5q0 -289 -176.5 -541t-372.5 -252q-123 0 -207.5 122.5t-84.5 306.5q0 290 176.5 541t371.5 251zM403 29q150 0 258.5 229t108.5 528q0 164 -58.5 262.5t-152.5 98.5q-126 0 -239 -217.5t-113 -523.5q0 -176 58.5 -276.5
t137.5 -100.5z" />
    <glyph glyph-name="one" unicode="1" 
d="M684 1202l-205 -1014q-9 -45 -9 -74q0 -79 85 -79h37l-8 -35h-404l8 35h31q60 0 86 19.5t39 80.5l166 783q14 60 14 98q0 51 -47 51q-20 0 -98 -20l8 36l266 119h31z" />
    <glyph glyph-name="two" unicode="2" 
d="M737 104l-22 -104h-645l8 35q653 598 653 897q0 84 -50.5 137t-129.5 53q-125 0 -279 -166l-22 21q183 221 366 221q108 0 181 -67t73 -164q0 -168 -154 -359t-517 -504h538z" />
    <glyph glyph-name="three" unicode="3" 
d="M330 1008l-25 24q153 166 342 166q97 0 161 -58t64 -145q0 -221 -319 -333v-5q115 -29 181.5 -111t66.5 -186q0 -156 -123 -269.5t-293 -113.5q-186 0 -336 160l25 25q137 -96 260 -96q151 0 236 111t85 224q0 86 -61 141.5t-180 55.5q-38 0 -72 -2l8 35
q184 42 281.5 125t97.5 192q0 75 -46.5 123.5t-117.5 48.5q-102 0 -235 -112z" />
    <glyph glyph-name="four" unicode="4" 
d="M909 391l-18 -82h-207l-66 -325h-126l63 325h-535l9 35l790 858h45l-164 -811h209zM692 1012l-569 -621h448l125 617z" />
    <glyph glyph-name="five" unicode="5" 
d="M860 1174l-33 -82h-409l-111 -478q55 11 107 11q147 0 238 -80.5t91 -210.5q0 -154 -107 -255.5t-269 -101.5q-168 0 -293 109l20 29q125 -82 242 -82q121 0 194.5 99t73.5 200q0 107 -69.5 179.5t-176.5 72.5q-28 0 -104 -11l139 601h467z" />
    <glyph glyph-name="six" unicode="6" 
d="M915 1200v-26q-398 -55 -630 -596l4 -5q128 168 289 168q107 0 182.5 -86.5t75.5 -212.5q0 -182 -130.5 -323.5t-297.5 -141.5q-130 0 -213.5 103.5t-83.5 263.5q0 299 235.5 560.5t568.5 295.5zM702 397q0 118 -54.5 190t-141.5 72q-110 0 -186 -99.5t-76 -248.5
q0 -131 61 -206.5t141 -75.5q109 0 182.5 107.5t73.5 260.5z" />
    <glyph glyph-name="seven" unicode="7" 
d="M928 1174l-8 -37l-529 -1137h-139l602 1067h-438q-76 0 -119 -29.5t-86 -109.5h-37l78 246h676z" />
    <glyph glyph-name="eight" unicode="8" 
d="M578 653q149 -220 149 -364q0 -132 -95.5 -222t-236.5 -90q-119 0 -194.5 67t-75.5 171q0 102 77.5 195.5t241.5 201.5q-131 183 -131 287q0 113 103.5 206t228.5 93q98 0 161.5 -58t63.5 -147q0 -161 -292 -340zM424 967q0 -110 131 -285q211 127 211 283
q0 73 -49 127.5t-113 54.5q-76 0 -128 -52t-52 -128zM610 242q0 133 -145 331q-236 -163 -236 -360q0 -78 52.5 -131t128.5 -53q89 0 144.5 59t55.5 154z" />
    <glyph glyph-name="nine" unicode="9" 
d="M102 -23v27q394 55 631 596l-4 4q-131 -168 -289 -168q-108 0 -183 87t-75 214q0 182 130.5 322.5t297.5 140.5q129 0 213 -103t84 -263q0 -298 -236.5 -560t-568.5 -297zM315 780q0 -118 54.5 -190t142.5 -72q110 0 186 100.5t76 247.5q0 130 -58.5 206.5t-144.5 76.5
q-103 0 -179.5 -100t-76.5 -269z" />
    <glyph glyph-name="colon" unicode=":" horiz-adv-x="532" 
d="M233 571q0 35 26.5 60.5t62.5 25.5q35 0 60.5 -25t25.5 -61q0 -35 -26 -61.5t-60 -26.5q-36 0 -62.5 26.5t-26.5 61.5zM133 66q0 34 26.5 60t61.5 26t60.5 -25.5t25.5 -60.5q0 -36 -25.5 -62.5t-60.5 -26.5t-61.5 26.5t-26.5 62.5z" />
    <glyph glyph-name="semicolon" unicode=";" horiz-adv-x="532" 
d="M233 571q0 35 26.5 60.5t62.5 25.5q35 0 60.5 -25t25.5 -61q0 -35 -26 -61.5t-60 -26.5q-36 0 -62.5 26.5t-26.5 61.5zM31 -256l8 37q166 48 166 199q-88 16 -88 88q0 38 25 63t63 25q44 0 72 -35.5t28 -91.5q0 -98 -75 -179t-199 -106z" />
    <glyph glyph-name="less" unicode="&#x3c;" horiz-adv-x="1366" 
d="M145 618v78l1076 453v-96l-959 -396l959 -395v-96z" />
    <glyph glyph-name="equal" unicode="=" horiz-adv-x="1366" 
d="M176 819h1075v-88h-1075v88zM176 356h1075v-88h-1075v88z" />
    <glyph glyph-name="greater" unicode="&#x3e;" horiz-adv-x="1366" 
d="M1221 618l-1076 -452v96l959 395l-959 396v96l1076 -453v-78z" />
    <glyph glyph-name="question" unicode="?" horiz-adv-x="641" 
d="M178 246l41 188q24 111 34.5 131.5t115.5 86t139.5 114t34.5 96.5q0 71 -64.5 120.5t-156.5 49.5q-79 0 -168 -37l8 45q85 74 200 74q97 0 161.5 -78t64.5 -196q0 -120 -54 -203q-55 -84 -184 -160q-61 -36 -78 -67.5t-55 -163.5h-39zM72 66q0 34 26 60t62 26
q35 0 60.5 -25.5t25.5 -60.5q0 -36 -25.5 -62.5t-60.5 -26.5t-61.5 26.5t-26.5 62.5z" />
    <glyph glyph-name="at" unicode="@" horiz-adv-x="1884" 
d="M1458 950l-203 -704q-10 -38 -10 -67q0 -95 92 -95q142 0 286 192t144 455q0 285 -181 461t-474 176q-383 0 -624.5 -289.5t-241.5 -681.5q0 -327 218 -558.5t574 -231.5q265 0 487 149.5t320 407.5h56q-105 -285 -341 -447.5t-524 -162.5q-380 0 -625 252t-245 645
q0 408 273.5 688t672.5 280q319 0 512 -188.5t193 -505.5q0 -290 -166.5 -499.5t-362.5 -209.5q-166 0 -166 142q0 23 25 149l-4 4q-217 -284 -377 -284q-88 0 -141.5 62.5t-53.5 166.5q0 242 198.5 471t352.5 229q142 0 174 -139h4l23 115zM713 276q0 -64 34 -102.5
t91 -38.5q132 0 278 212.5t146 408.5q0 155 -144 155q-125 0 -265 -221t-140 -414z" />
    <glyph glyph-name="A" unicode="A" horiz-adv-x="961" 
d="M768 1161v-1009q0 -69 19 -93t98 -24l-8 -35h-359l-6 35q69 0 92 19.5t23 86.5v332h-260l-117 -199q-92 -158 -92 -198q0 -41 90 -41l-8 -35h-297l8 35q59 4 99 31t97 122l584 973h37zM627 518v395h-4l-228 -395h232z" />
    <glyph glyph-name="B" unicode="B" 
d="M23 0l8 35q65 3 97.5 32t49.5 111l195 924q-72 -22 -154 -94l-35 24q129 129 322 129q151 0 248.5 -83.5t97.5 -211.5q0 -94 -66 -167t-184 -95v-4q124 -26 193 -101.5t69 -176.5q0 -137 -109 -229.5t-292 -92.5h-440zM514 1102l-100 -473q16 -4 78 -4q99 0 162 67.5
t63 173.5q0 102 -54 167t-149 69zM403 573l-94 -438q-2 -12 -2 -22q0 -68 105 -68q144 0 222.5 79.5t78.5 213.5q0 106 -66 174t-175 68q-33 0 -69 -7z" />
    <glyph glyph-name="C" unicode="C" horiz-adv-x="1004" 
d="M1024 1180l-43 -203h-35q-28 64 -90 101.5t-127 37.5q-169 0 -305.5 -183.5t-136.5 -463.5q0 -196 88.5 -309t224.5 -113q190 0 322 215l28 -33q-162 -254 -403 -254q-179 0 -295.5 137t-116.5 351q0 267 183.5 482.5t408.5 215.5q52 0 121 -16.5t80 -16.5q28 0 61 52h35
z" />
    <glyph glyph-name="D" unicode="D" horiz-adv-x="1194" 
d="M18 0l9 35q65 0 96.5 30.5t48.5 112.5l193 907q-83 -16 -172 -88l-19 27q137 137 354 137q266 0 436.5 -164t170.5 -419q0 -245 -171.5 -411.5t-461.5 -166.5h-484zM510 1102l-203 -952q-2 -10 -2 -19q0 -86 164 -86q253 0 383.5 138.5t130.5 369.5q0 223 -124.5 381
t-348.5 168z" />
    <glyph glyph-name="E" unicode="E" 
d="M797 711l-56 -265h-39q-7 60 -33 85.5t-108 25.5h-158l-77 -369q-5 -25 -5 -45q0 -88 93 -88h131q124 0 183.5 37.5t117.5 161.5h47l-96 -254h-758l8 35q56 4 86 28t49 115l170 803q5 25 5 43q0 76 -105 78l6 35h664l-39 -185h-35q0 83 -20 106t-99 23h-211l-102 -469
h225q49 0 72.5 23t44.5 76h39z" />
    <glyph glyph-name="F" unicode="F" horiz-adv-x="831" 
d="M786 713l-55 -264h-35q-11 59 -37 84.5t-112 25.5h-164l-94 -446q-16 -78 102 -78l-6 -35h-367l7 35q60 0 88.5 31.5t48.5 123.5l168 789q7 31 7 52q0 71 -87 71h-21l9 35h663l-39 -183h-35q3 29 3 47q0 50 -21.5 65t-87.5 15h-225l-103 -467h205q78 0 106 23t48 76h34z
" />
    <glyph glyph-name="G" unicode="G" horiz-adv-x="1110" 
d="M946 315l-61 -292q-163 -48 -297 -48q-211 0 -340 132t-129 348q0 298 204 502t457 204q56 0 127 -10t76 -10q35 0 57 49h35l-47 -223h-35q10 65 -61 107t-166 42q-199 0 -347.5 -176.5t-148.5 -468.5q0 -212 92.5 -331.5t245.5 -119.5q69 0 142 35l61 289q4 19 4 35
q0 65 -88 65h-33l6 35h383l-6 -35q-104 1 -131 -129z" />
    <glyph glyph-name="H" unicode="H" horiz-adv-x="1260" 
d="M1329 1137l-8 -35q-70 -12 -92.5 -40t-38.5 -104l-172 -806q-8 -33 -8 -53q0 -57 86 -64l-9 -35h-352l8 35q76 8 99 40t43 122l82 381h-572l-90 -426q-6 -30 -6 -49q0 -63 94 -68l-8 -35h-369l9 35q62 0 93.5 24.5t51.5 120.5l172 807q5 26 5 43q0 68 -97 72l8 35h358
l-8 -35q-73 -12 -94 -39.5t-37 -104.5l-69 -325h571l76 354q5 25 5 43q0 68 -91 72l8 35h352z" />
    <glyph glyph-name="I" unicode="I" horiz-adv-x="532" 
d="M596 1137l-6 -35q-48 -10 -73 -38.5t-44 -115.5l-166 -774q-10 -47 -10 -72q0 -64 84 -67l-8 -35h-355l9 35q58 4 88.5 25t50.5 114l166 774q12 56 12 85q0 38 -19.5 53.5t-82.5 15.5l8 35h346z" />
    <glyph glyph-name="J" unicode="J" horiz-adv-x="598" 
d="M668 1137l-6 -35q-61 -8 -90 -39t-46 -109l-211 -991q-44 -208 -158.5 -318t-269.5 -110q-119 0 -188 57l22 23q58 -35 125 -35q247 0 328 383l211 991q12 55 12 79q0 64 -104 69l8 35h367z" />
    <glyph glyph-name="K" unicode="K" horiz-adv-x="1067" 
d="M504 659l297 -460q63 -96 115.5 -130t125.5 -34l-6 -35h-422l9 35q82 2 82 51q0 20 -62 113l-264 397l-88 -418q-12 -54 -12 -77q0 -60 92 -66l-6 -35h-353l6 35q68 9 91 36t41 107l163 774q11 51 11 73q0 59 -99 77l8 35h355l-8 -35q-61 -10 -85 -42t-40 -108l-72 -331
l4 -5l393 336q72 61 72 95q0 41 -82 55l8 35h334l-8 -35q-116 -23 -279 -164z" />
    <glyph glyph-name="L" unicode="L" horiz-adv-x="831" 
d="M780 176l-55 -176h-711l9 35q59 6 87.5 30t47.5 111l164 778q12 61 12 84q0 64 -107 64l6 35h371l-6 -35q-60 -4 -88.5 -32.5t-46.5 -115.5l-168 -786q-4 -20 -4 -37q0 -86 117 -86h67q130 0 187 29.5t86 101.5h32z" />
    <glyph glyph-name="M" unicode="M" horiz-adv-x="1366" 
d="M1292 950l-164 -774q-11 -49 -11 -72q0 -64 95 -69l-8 -35h-366l8 35q49 0 86 22.5t57 118.5l160 754l-4 4l-592 -934h-37l31 930l-6 4l-330 -758q-25 -58 -25 -87q0 -54 90 -54l-8 -35h-260l8 35q83 0 158 172l358 817q-20 70 -155 78l8 35h301l-29 -879l5 -4l557 883
h206l-8 -35q-66 -14 -87 -44t-38 -108z" />
    <glyph glyph-name="N" unicode="N" horiz-adv-x="1237" 
d="M233 174l170 809q-43 62 -81.5 90.5t-102.5 28.5h-37l6 35h281l504 -926l164 772q5 25 5 44q0 75 -83 75h-37l6 35h285l-6 -35q-102 -5 -131 -141l-205 -961h-43l-488 922h-4l-155 -748q-9 -37 -9 -61q0 -78 117 -78l-8 -35h-283l8 35q98 1 127 139z" />
    <glyph glyph-name="O" unicode="O" horiz-adv-x="1153" 
d="M750 1161q171 0 274.5 -113.5t103.5 -302.5q0 -283 -179.5 -526.5t-434.5 -243.5q-166 0 -270.5 116t-104.5 302q0 285 183 526.5t428 241.5zM555 20q187 0 304.5 238t117.5 514q0 152 -74 248t-188 96q-176 0 -300 -231.5t-124 -517.5q0 -157 72.5 -252t191.5 -95z" />
    <glyph glyph-name="P" unicode="P" horiz-adv-x="831" 
d="M379 549l-80 -369q-10 -45 -10 -71q0 -74 96 -74h25l-7 -35h-376l6 35q51 3 79 31.5t46 113.5l196 922q-103 -17 -217 -137l-24 14q130 182 395 182q163 0 258.5 -79t95.5 -214q0 -138 -102.5 -238t-245.5 -100q-60 0 -135 19zM496 1102l-109 -512q42 -15 86 -15
q107 0 172.5 75.5t65.5 199.5q0 240 -215 252z" />
    <glyph glyph-name="Q" unicode="Q" horiz-adv-x="1153" 
d="M481 -25q-160 19 -251 133t-91 285q0 285 181.5 526.5t433.5 241.5q171 0 272.5 -114.5t101.5 -309.5q0 -235 -133 -451.5t-340 -287.5q191 -183 340 -270.5t285 -87.5q194 0 344 129l25 -25q-207 -199 -435 -199q-160 0 -359.5 114.5t-373.5 315.5zM715 1116
q-179 0 -301.5 -233.5t-122.5 -515.5q0 -157 72.5 -252t191.5 -95q183 0 302.5 235t119.5 517q0 152 -74 248t-188 96z" />
    <glyph glyph-name="R" unicode="R" horiz-adv-x="1044" 
d="M428 592l-88 -416q-10 -45 -10 -70q0 -71 104 -71l-6 -35h-362l6 35q65 7 88 37t39 104l194 914q-97 -14 -192 -127l-31 18q125 180 360 180q160 0 261.5 -79.5t101.5 -202.5q0 -209 -244 -271v-4q74 -20 122.5 -93t113.5 -239.5t85 -199t58 -37.5l-6 -35h-299l6 35
q78 0 78 51q0 28 -90 236.5t-140.5 240t-113.5 31.5q-21 0 -35 -2zM537 1102l-99 -467q36 -6 62 -6q241 0 241 260q0 187 -204 213z" />
    <glyph glyph-name="S" unicode="S" horiz-adv-x="831" 
d="M811 1163l-47 -221h-37q9 82 -43.5 128t-126.5 46q-84 0 -141.5 -61t-57.5 -131q0 -69 31 -133t147 -198.5t149.5 -191.5t33.5 -145q0 -121 -95 -201t-241 -80q-69 0 -138 20.5t-83 20.5q-33 0 -47 -45h-41l47 219h39q27 -79 94.5 -124.5t151.5 -45.5q76 0 130 57t54 138
q0 104 -137.5 255.5t-171 220.5t-33.5 145q0 133 95 229t226 96q65 0 115.5 -17.5t63.5 -17.5q11 0 26 37h37z" />
    <glyph glyph-name="T" unicode="T" horiz-adv-x="1004" 
d="M745 1081l-192 -909q-12 -54 -12 -71q0 -61 94 -66l-6 -35h-361l6 35q67 4 95 36.5t43 100.5l192 909h-188q-140 0 -183 -102h-36l43 199h36q13 -25 34.5 -33t117.5 -8h496q132 0 161 41h37l-43 -199h-35q-5 54 -25 78t-95 24h-179z" />
    <glyph glyph-name="U" unicode="U" horiz-adv-x="1217" 
d="M896 313l135 645q10 50 10 73q0 71 -104 71l8 35h369l-9 -35q-57 -8 -85.5 -32t-51.5 -134l-113 -537q-43 -203 -170.5 -313.5t-306.5 -110.5q-157 0 -261 91.5t-104 242.5q0 49 11 103l117 546q10 49 10 72q0 67 -107 72l9 35h370l-8 -35q-65 -3 -90.5 -35.5
t-46.5 -130.5l-117 -549q-14 -65 -14 -121q0 -246 250 -246q112 0 192 81.5t107 211.5z" />
    <glyph glyph-name="V" unicode="V" horiz-adv-x="981" 
d="M1116 1137l-8 -35q-54 -3 -92 -43t-94 -137l-547 -951h-31l25 1026q3 105 -107 105l8 35h353l-9 -35q-73 -3 -90 -33.5t-20 -146.5l-17 -670l5 -4l354 631q63 114 63 155q0 68 -102 68l8 35h301z" />
    <glyph glyph-name="W" unicode="W" horiz-adv-x="1450" 
d="M1434 895l-529 -924h-33l27 953l-4 4l-547 -957h-33l25 996q2 91 -21.5 113t-87.5 22l7 35h346l-6 -35q-97 -10 -99 -74l-22 -776l4 -4l436 766q0 87 -104 88l6 35h344l-6 -35q-63 -5 -82 -25t-21 -84l-20 -741l4 -4l358 637q62 109 62 147q0 70 -105 70l6 35h301l-6 -35
q-54 -2 -93 -44.5t-107 -162.5z" />
    <glyph glyph-name="X" unicode="X" horiz-adv-x="1130" 
d="M700 631l119 -426q30 -107 65.5 -137t102.5 -33l-6 -35h-352l6 35q68 0 68 47q0 22 -11 59l-100 357l-262 -326q-62 -75 -62 -104q0 -32 64 -33l-6 -35h-291l6 35q74 0 130 37t132 133l277 346l-107 377q-26 94 -60 131.5t-110 42.5l8 35h367l-8 -35q-80 -9 -80 -59
q0 -16 10 -50l88 -307l211 262q57 72 57 111q0 41 -55 43l8 35h283l-8 -35q-71 -6 -105.5 -27t-95.5 -96z" />
    <glyph glyph-name="Y" unicode="Y" 
d="M643 629l-92 -451q-13 -63 -13 -83q0 -60 101 -60l-8 -35h-363l8 35q57 6 85.5 28.5t41.5 86.5l95 454l-164 393q-31 76 -58 89t-77 16l8 35h338l-8 -35q-71 -3 -71 -47q0 -24 23 -80l127 -307l228 307q39 53 39 78q0 49 -90 49l8 35h293l-9 -35q-42 0 -79.5 -20.5
t-102.5 -106.5z" />
    <glyph glyph-name="Z" unicode="Z" horiz-adv-x="1044" 
d="M1094 1092l-861 -1047h408q131 0 179.5 35t78.5 113h35l-41 -193h-854l8 35l877 1057h-371q-106 0 -154 -36.5t-80 -129.5h-34l45 211h772z" />
    <glyph glyph-name="bracketleft" unicode="[" horiz-adv-x="641" 
d="M37 -365l313 1526h342l-8 -35h-100q-85 0 -106 -21t-46 -138l-254 -1188l-8 -62q0 -47 72 -47h133l-8 -35h-330z" />
    <glyph glyph-name="backslash" unicode="\" horiz-adv-x="1024" 
d="M301 1219l598 -1244h-94l-598 1244h94z" />
    <glyph glyph-name="bracketright" unicode="]" horiz-adv-x="641" 
d="M608 1161l-315 -1526h-342l8 35h100q85 0 106 21.5t46 138.5l246 1143l16 106q0 47 -70 47h-133l6 35h332z" />
    <glyph glyph-name="asciicircum" unicode="^" horiz-adv-x="864" 
d="M481 1386l426 -716h-92l-350 585l-350 -585h-95l431 716h30z" />
    <glyph glyph-name="underscore" unicode="_" horiz-adv-x="1024" 
d="M-18 -154h1060v-102h-1060v102z" />
    <glyph glyph-name="grave" unicode="`" horiz-adv-x="682" 
d="M291 1219h112l144 -394h-41z" />
    <glyph glyph-name="a" unicode="a" horiz-adv-x="811" 
d="M752 696l-109 -503q-6 -31 -6 -53q0 -82 92 -70l-8 -35l-240 -53l29 131l-4 4q-106 -140 -240 -140q-196 0 -196 211q0 199 172 353.5t452 154.5h58zM616 621q-28 3 -55 3q-167 0 -272 -117t-105 -284q0 -164 140 -164q71 0 133.5 54.5t64.5 64.5z" />
    <glyph glyph-name="b" unicode="b" horiz-adv-x="748" 
d="M387 1219l-133 -623l4 -4q117 104 219 104q92 0 158.5 -75.5t66.5 -180.5q0 -171 -145.5 -317t-370.5 -146l-157 5l211 1060q3 18 3 31q0 60 -110 60l6 34l207 52h41zM254 526l-104 -491q41 -6 71 -6q167 0 264 101t97 276q0 94 -45 151t-119 57q-73 0 -164 -88z" />
    <glyph glyph-name="c" unicode="c" horiz-adv-x="618" 
d="M610 700l-22 -196h-29q3 62 -32.5 97.5t-96.5 35.5q-97 0 -171.5 -118.5t-74.5 -278.5q0 -181 144 -181q105 0 209 91l22 -25q-152 -148 -291 -148q-90 0 -147.5 68t-57.5 176q0 165 124.5 320t261.5 155q45 0 71.5 -6t32.5 -6q22 0 35 16h22z" />
    <glyph glyph-name="d" unicode="d" horiz-adv-x="811" 
d="M838 1219l-215 -1016q-11 -50 -11 -75q0 -58 70 -58q17 0 68 6l-11 -41l-274 -53l20 94q-132 -99 -221 -99q-79 0 -138.5 72t-59.5 170q0 178 141.5 325t406.5 142l68 320q9 40 9 64q0 58 -64 58q-48 0 -74 -2l10 41l234 52h41zM604 639h-90q-159 0 -243.5 -110
t-84.5 -269q0 -86 44.5 -143.5t111.5 -57.5q77 0 154 70z" />
    <glyph glyph-name="e" unicode="e" horiz-adv-x="641" 
d="M184 301q-3 -26 -3 -49q0 -180 165 -180q120 0 229 145l21 -27q-73 -112 -141.5 -162.5t-167.5 -50.5q-106 0 -163.5 59.5t-57.5 168.5q0 186 131.5 338.5t289.5 152.5q62 0 98 -31.5t36 -84.5q0 -89 -117 -168.5t-320 -110.5zM193 338q307 57 307 205q0 30 -26.5 55
t-59.5 25q-75 0 -141 -88.5t-80 -196.5z" />
    <glyph glyph-name="f" unicode="f" horiz-adv-x="492" 
d="M494 674l-7 -56h-143l-113 -598q-45 -242 -99.5 -352t-153 -170.5t-211.5 -60.5q-151 0 -238 55l31 143h34q33 -157 179 -157q110 0 193.5 79.5t137.5 368.5l129 692h-143l6 56h144l51 248q40 198 130.5 273t215.5 75q58 0 139 -27l6 25h41l-39 -185h-41
q-13 146 -129 146q-148 0 -200 -250l-64 -305h144z" />
    <glyph glyph-name="g" unicode="g" horiz-adv-x="788" 
d="M745 696l-213 -1063q-38 -196 -317 -196q-133 0 -210 60.5t-77 154.5q0 178 320 330q-154 58 -154 231q0 193 174.5 338t476.5 145zM516 123l105 491q-30 1 -44 1q-154 0 -254 -96q-108 -103 -108 -269q0 -95 43 -149t117 -54q52 0 95.5 33t45.5 43zM408 -395l94 448
l-4 4q-62 -54 -189.5 -97.5t-198.5 -117t-71 -149.5q0 -84 66 -146.5t153 -62.5q65 0 99.5 24.5t50.5 96.5z" />
    <glyph glyph-name="h" unicode="h" horiz-adv-x="854" 
d="M463 1219l-133 -639l4 -5q119 121 237 121q81 0 133.5 -55t52.5 -145q0 -32 -7 -68l-62 -301q-5 -25 -5 -40q0 -45 73 -52l-8 -35h-289l8 35q55 6 74.5 33t36.5 104l57 266q6 31 6 57q0 119 -123 119q-94 0 -203 -118l-77 -379q-4 -18 -4 -30q0 -52 81 -52l-8 -35h-278
l8 35q40 0 57 29.5t33 107.5l176 856q10 46 10 62q0 29 -22.5 38t-79.5 9l6 30l205 52h41z" />
    <glyph glyph-name="i" unicode="i" horiz-adv-x="492" 
d="M338 979q27 0 46 -19t19 -47q0 -27 -19 -47t-46 -20q-28 0 -48 20t-20 47q0 28 20 47t48 19zM399 692l-110 -524q-11 -55 -11 -78q0 -32 19 -43.5t94 -11.5l-6 -35h-360l8 35q74 0 94 13.5t37 90.5l80 371q6 30 6 47q0 51 -57 51l-80 -10l8 41l237 53h41z" />
    <glyph glyph-name="j" unicode="j" horiz-adv-x="492" 
d="M279 913q0 28 19.5 47t47.5 19t47 -19t19 -47q0 -27 -19.5 -47t-46.5 -20t-47 20t-20 47zM397 694l-223 -1042q-46 -215 -244 -215q-93 0 -153 37l6 32q49 -24 100 -24q77 0 116 42.5t58 135.5l181 846q6 27 6 46q0 58 -58 58q-12 0 -90 -12l10 41l250 55h41z" />
    <glyph glyph-name="k" unicode="k" horiz-adv-x="748" 
d="M471 1219l-133 -627l4 -4q131 108 246 108q55 0 94 -32t39 -76q0 -139 -295 -244l158 -225q61 -88 127 -84l-6 -35h-173l-251 326l-37 -176q-7 -36 -7 -56q0 -62 87 -59l-7 -35h-294l8 35q43 2 62.5 28.5t37.5 112.5l180 848q6 29 6 48q0 34 -23 47.5t-85 13.5l8 34
l213 52h41zM328 543l-43 -199q315 74 315 203q0 67 -88 67q-86 0 -184 -71z" />
    <glyph glyph-name="l" unicode="l" horiz-adv-x="492" 
d="M502 1219l-228 -1069q-9 -46 -9 -67q0 -28 16 -38t65 -10h41l-8 -35h-369l6 35h25q67 0 86 30t45 152l174 819q5 22 5 37q0 49 -60 49q-30 0 -76 -8l6 37l240 68h41z" />
    <glyph glyph-name="m" unicode="m" horiz-adv-x="1174" 
d="M1090 471l-72 -348q-4 -19 -4 -33q0 -55 73 -55l-6 -35h-293l7 35q55 4 76 29t38 110l64 305q4 20 4 38q0 97 -105 97q-62 0 -159 -106l-78 -356q-8 -36 -8 -58q0 -59 84 -59l-6 -35h-297l6 35q80 6 102 108l70 328q5 24 5 45q0 98 -89 98q-59 0 -119.5 -61.5
t-65.5 -81.5l-69 -319q-9 -40 -9 -60q0 -57 97 -57l-6 -35h-295l6 35q66 2 94 139l70 334q6 27 6 45q0 54 -63 54q-17 0 -39 -3l8 35l207 53h41l-29 -123l4 -4q116 131 219 131q132 0 150 -131q66 67 114.5 99t108.5 32q76 0 120 -43.5t44 -119.5q0 -29 -6 -62z" />
    <glyph glyph-name="n" unicode="n" horiz-adv-x="854" 
d="M356 694l-26 -119l4 -4q67 65 116.5 95t114.5 30q86 0 139.5 -50t53.5 -140q0 -35 -8 -74l-66 -315q-5 -22 -5 -36q0 -27 20.5 -36.5t80.5 -9.5l-6 -35h-334l6 35q66 4 88 23t35 83l70 326q4 18 4 35q0 50 -32 81t-83 31q-92 0 -211 -125l-69 -333q-10 -46 -10 -66
q0 -32 21 -43.5t75 -11.5l-6 -35h-297l6 35q68 7 88 102l80 375q3 18 3 32q0 62 -50 62q-32 0 -78 -12l10 45l225 55h41z" />
    <glyph glyph-name="o" unicode="o" horiz-adv-x="748" 
d="M492 696q82 0 144 -69t62 -162q0 -163 -123 -325.5t-292 -162.5q-94 0 -153.5 67t-59.5 171q0 182 131.5 331.5t290.5 149.5zM328 37q99 0 174.5 123.5t75.5 294.5q0 77 -40 129.5t-100 52.5q-96 0 -172 -123t-76 -289q0 -86 37.5 -137t100.5 -51z" />
    <glyph glyph-name="p" unicode="p" horiz-adv-x="811" 
d="M360 696l-20 -88l4 -4q99 92 213 92q85 0 145 -71t60 -174q0 -181 -156.5 -325t-396.5 -144l-68 -316q-11 -55 -11 -82q0 -55 52 -55q25 0 70 10l-10 -47l-228 -55h-41l224 1044q7 35 7 59q0 70 -67 70q-19 0 -57 -6l8 35l231 57h41zM328 543l-105 -492q29 -4 72 -4
q152 0 249 106.5t97 272.5q0 88 -43 141.5t-115 53.5q-74 0 -155 -78z" />
    <glyph glyph-name="q" unicode="q" horiz-adv-x="788" 
d="M745 696l-223 -1050q-6 -31 -6 -53q0 -64 57 -64l70 2l-10 -39l-219 -55h-54l138 649l-4 4q-104 -113 -226 -113q-95 0 -148.5 62t-53.5 172q0 210 196.5 355t482.5 130zM612 625l-67 2q-157 0 -258 -105t-101 -280q0 -81 41.5 -132t108.5 -51q70 0 122 45.5t54 53.5z
" />
    <glyph glyph-name="r" unicode="r" horiz-adv-x="575" 
d="M346 686l-55 -258l4 -4q98 272 217 272q45 0 82 -57l-70 -125q-59 61 -80 61q-37 0 -96.5 -121t-81.5 -221l-22 -104q-4 -17 -4 -32q0 -62 79 -62h29l-6 -35h-332l6 35q60 0 79 21.5t38 111.5l68 313q8 38 8 63q0 62 -49 62q-11 0 -68 -8l8 41l205 47h41z" />
    <glyph glyph-name="s" unicode="s" horiz-adv-x="512" 
d="M510 686l-35 -164h-33q-24 127 -129 127q-41 0 -70.5 -25.5t-29.5 -60.5q0 -59 86 -161t106.5 -149t20.5 -87q0 -84 -71 -136.5t-185 -52.5q-43 0 -74 11l-22 6q-11 0 -31 -12h-35l37 176h37q-3 -14 -3 -28q0 -47 34 -79.5t77 -32.5q56 0 96 32.5t40 76.5
q0 63 -100.5 182.5t-100.5 177.5q0 87 64.5 148t156.5 61q40 0 72.5 -8t34.5 -8q9 0 16 3t8 3h33z" />
    <glyph glyph-name="t" unicode="t" horiz-adv-x="532" 
d="M508 674l-10 -56h-187l-100 -468q-4 -19 -4 -33q0 -58 51 -58q83 0 213 109l25 -25q-184 -166 -320 -166q-94 0 -94 86q0 36 22 142l89 413h-123l6 35q162 16 248 199h36l-38 -178h186z" />
    <glyph glyph-name="u" unicode="u" horiz-adv-x="854" 
d="M797 696l-103 -493q-10 -44 -10 -86q0 -71 86 -62l-8 -35l-236 -38l29 131l-4 4q-155 -140 -262 -140q-71 0 -115.5 49.5t-44.5 127.5q0 52 14 118l52 238q5 27 5 45q0 51 -67 51q-14 0 -31 -2l7 35l202 57h41l-94 -450q-12 -65 -12 -82q0 -45 30 -77t72 -32q66 0 142 58
t79 71l72 334q3 16 3 29q0 61 -58 61q-17 0 -39 -4l6 35l203 57h41z" />
    <glyph glyph-name="v" unicode="v" horiz-adv-x="705" 
d="M573 494l-299 -512h-36l-50 534q-6 76 -20.5 98.5t-63.5 24.5l7 35h292l-6 -35q-92 2 -92 -95q0 -13 4 -65l25 -317h4l201 354q32 57 32 74q0 47 -77 49l6 35h223l-6 -35q-51 -15 -71.5 -36t-72.5 -109z" />
    <glyph glyph-name="w" unicode="w" horiz-adv-x="1044" 
d="M946 494l-305 -512h-31l-43 477h-4l-315 -477h-35l-20 546q-2 65 -18 86.5t-75 24.5l9 35h286l-8 -35q-54 -3 -70.5 -28t-13.5 -105l12 -344h4l246 366q-3 68 -21 89.5t-79 21.5l8 35h301l-8 -35q-98 0 -94 -51l35 -426h4l196 344q37 64 37 90q0 46 -82 43l8 35h220
l-9 -35q-41 -11 -63 -36.5t-72 -108.5z" />
    <glyph glyph-name="x" unicode="x" horiz-adv-x="705" 
d="M426 383l86 -225q32 -84 57 -103t103 -20l-6 -35h-320l6 35q70 5 70 47q0 22 -12 53l-60 150l-137 -150q-29 -29 -29 -61q0 -37 54 -39l-7 -35h-227l6 35q57 1 131 82l191 209l-76 204q-39 109 -133 109l8 35h277l-9 -35q-43 -2 -43 -37q0 -11 4 -27l50 -151l96 106
q33 36 33 70q0 39 -37 39l8 35h197l-7 -35q-55 4 -153 -113z" />
    <glyph glyph-name="y" unicode="y" horiz-adv-x="748" 
d="M782 674l-8 -35q-49 -4 -73.5 -28t-61.5 -91l-387 -700q-78 -141 -140.5 -212.5t-158 -127t-193.5 -55.5q-7 0 -51 6l39 110q166 0 286.5 96t221.5 287l-47 576q-8 95 -23.5 117t-60.5 22l8 35h301l-8 -35q-63 0 -86 -15t-23 -62q0 -14 2 -40l35 -426h4l222 404
q38 70 38 96q0 43 -63 43l8 35h219z" />
    <glyph glyph-name="z" unicode="z" horiz-adv-x="748" 
d="M717 674v-35l-539 -604h230q103 0 138.5 30t55.5 103h35l-35 -168h-569v35l534 604h-215q-146 0 -174 -119h-35l33 154h541z" />
    <glyph glyph-name="braceleft" unicode="{" horiz-adv-x="983" 
d="M266 375v45q110 17 174 82t64 151q0 43 -21.5 131.5t-21.5 165.5q0 136 94 242.5t254 138.5l8 -37q-227 -54 -227 -229q0 -57 21.5 -171t21.5 -149q0 -229 -285 -348q285 -119 285 -348q0 -35 -21.5 -148.5t-21.5 -170.5q0 -175 227 -230l-8 -37q-160 33 -254 139.5
t-94 241.5q0 78 21.5 168t21.5 129q0 87 -64 152t-174 82z" />
    <glyph glyph-name="bar" unicode="|" horiz-adv-x="1016" 
d="M483 1219h90v-1702h-90v1702z" />
    <glyph glyph-name="braceright" unicode="}" horiz-adv-x="983" 
d="M758 420v-45q-110 -17 -174 -82t-64 -152q0 -46 21.5 -136.5t21.5 -160.5q0 -135 -94 -241.5t-254 -139.5l-8 37q227 55 227 230q0 47 -21.5 160.5t-21.5 158.5q0 229 285 348q-285 119 -285 348q0 45 21.5 159t21.5 161q0 175 -227 229l8 37q160 -32 254 -138.5
t94 -242.5q0 -69 -21.5 -157.5t-21.5 -139.5q0 -86 64 -151t174 -82z" />
    <glyph glyph-name="asciitilde" unicode="~" horiz-adv-x="1366" 
d="M1204 799h47q-4 -133 -74 -210t-176 -77q-76 0 -303 91t-286 91q-153 0 -185 -180h-47q-2 125 67.5 206t180.5 81q78 0 303 -93.5t291 -93.5q161 0 182 185z" />
    <glyph glyph-name="Adieresis" unicode="&#xc4;" horiz-adv-x="961" 
d="M768 1161v-1009q0 -69 19 -93t98 -24l-8 -35h-359l-6 35q69 0 92 19.5t23 86.5v332h-260l-117 -199q-92 -158 -92 -198q0 -41 90 -41l-8 -35h-297l8 35q59 4 99 31t97 122l584 973h37zM627 518v395h-4l-228 -395h232zM524 1423q0 35 25 59.5t61 24.5q35 0 59.5 -24.5
t24.5 -59.5t-24.5 -60.5t-59.5 -25.5t-60.5 25.5t-25.5 60.5zM903 1423q0 35 25 59.5t61 24.5q35 0 59.5 -24.5t24.5 -59.5t-24.5 -60.5t-59.5 -25.5t-60.5 25.5t-25.5 60.5z" />
    <glyph glyph-name="Aring" unicode="&#xc5;" horiz-adv-x="961" 
d="M768 1161v-1009q0 -69 19 -93t98 -24l-8 -35h-359l-6 35q69 0 92 19.5t23 86.5v332h-260l-117 -199q-92 -158 -92 -198q0 -41 90 -41l-8 -35h-297l8 35q59 4 99 31t97 122l584 973h37zM627 518v395h-4l-228 -395h232zM613 1417q0 73 52.5 125.5t125.5 52.5t125.5 -52.5
t52.5 -125.5t-52.5 -125.5t-125.5 -52.5t-125.5 52.5t-52.5 125.5zM920 1417q0 54 -37.5 91.5t-91.5 37.5q-53 0 -91 -37.5t-38 -91.5q0 -53 38 -91t91 -38q54 0 91.5 38t37.5 91z" />
    <glyph glyph-name="Ccedilla" unicode="&#xc7;" horiz-adv-x="1004" 
d="M438 -166l62 143q-168 23 -266.5 157.5t-98.5 328.5q0 267 183.5 482.5t408.5 215.5q52 0 121 -16.5t80 -16.5q28 0 61 52h35l-43 -203h-35q-28 64 -90 101.5t-127 37.5q-169 0 -305.5 -183.5t-136.5 -463.5q0 -196 88.5 -309t224.5 -113q190 0 322 215l28 -33
q-162 -254 -409 -254l-31 -75q94 -31 94 -113q0 -158 -268 -207l8 39q166 52 166 141q0 55 -72 74z" />
    <glyph glyph-name="Eacute" unicode="&#xc9;" 
d="M797 711l-56 -265h-39q-7 60 -33 85.5t-108 25.5h-158l-77 -369q-5 -25 -5 -45q0 -88 93 -88h131q124 0 183.5 37.5t117.5 161.5h47l-96 -254h-758l8 35q56 4 86 28t49 115l170 803q5 25 5 43q0 76 -105 78l6 35h664l-39 -185h-35q0 83 -20 106t-99 23h-211l-102 -469
h225q49 0 72.5 23t44.5 76h39zM856 1608l-215 -394h-41l144 394h112z" />
    <glyph glyph-name="Ntilde" unicode="&#xd1;" horiz-adv-x="1237" 
d="M233 174l170 809q-43 62 -81.5 90.5t-102.5 28.5h-37l6 35h281l504 -926l164 772q5 25 5 44q0 75 -83 75h-37l6 35h285l-6 -35q-102 -5 -131 -141l-205 -961h-43l-488 922h-4l-155 -748q-9 -37 -9 -61q0 -78 117 -78l-8 -35h-283l8 35q98 1 127 139zM1058 1505h34
q-5 -72 -54 -124t-103 -52q-50 0 -165 47t-151 47q-64 0 -84 -92h-36q3 75 56 124.5t116 49.5q77 0 175.5 -47t125.5 -47q71 0 86 94z" />
    <glyph glyph-name="Odieresis" unicode="&#xd6;" horiz-adv-x="1153" 
d="M750 1161q171 0 274.5 -113.5t103.5 -302.5q0 -283 -179.5 -526.5t-434.5 -243.5q-166 0 -270.5 116t-104.5 302q0 285 183 526.5t428 241.5zM555 20q187 0 304.5 238t117.5 514q0 152 -74 248t-188 96q-176 0 -300 -231.5t-124 -517.5q0 -157 72.5 -252t191.5 -95z
M512 1423q0 35 25 59.5t61 24.5q35 0 59.5 -24.5t24.5 -59.5t-24.5 -60.5t-59.5 -25.5t-60.5 25.5t-25.5 60.5zM891 1423q0 35 25 59.5t61 24.5q35 0 59.5 -24.5t24.5 -59.5t-24.5 -60.5t-59.5 -25.5t-60.5 25.5t-25.5 60.5z" />
    <glyph glyph-name="Udieresis" unicode="&#xdc;" horiz-adv-x="1217" 
d="M896 313l135 645q10 50 10 73q0 71 -104 71l8 35h369l-9 -35q-57 -8 -85.5 -32t-51.5 -134l-113 -537q-43 -203 -170.5 -313.5t-306.5 -110.5q-157 0 -261 91.5t-104 242.5q0 49 11 103l117 546q10 49 10 72q0 67 -107 72l9 35h370l-8 -35q-65 -3 -90.5 -35.5
t-46.5 -130.5l-117 -549q-14 -65 -14 -121q0 -246 250 -246q112 0 192 81.5t107 211.5zM556 1423q0 35 25 59.5t61 24.5q35 0 59.5 -24.5t24.5 -59.5t-24.5 -60.5t-59.5 -25.5t-60.5 25.5t-25.5 60.5zM935 1423q0 35 25 59.5t61 24.5q35 0 59.5 -24.5t24.5 -59.5
t-24.5 -60.5t-59.5 -25.5t-60.5 25.5t-25.5 60.5z" />
    <glyph glyph-name="aacute" unicode="&#xe1;" horiz-adv-x="811" 
d="M752 696l-109 -503q-6 -31 -6 -53q0 -82 92 -70l-8 -35l-240 -53l29 131l-4 4q-106 -140 -240 -140q-196 0 -196 211q0 199 172 353.5t452 154.5h58zM616 621q-28 3 -55 3q-167 0 -272 -117t-105 -284q0 -164 140 -164q71 0 133.5 54.5t64.5 64.5zM725 1219l-215 -394
h-41l144 394h112z" />
    <glyph glyph-name="agrave" unicode="&#xe0;" horiz-adv-x="811" 
d="M752 696l-109 -503q-6 -31 -6 -53q0 -82 92 -70l-8 -35l-240 -53l29 131l-4 4q-106 -140 -240 -140q-196 0 -196 211q0 199 172 353.5t452 154.5h58zM616 621q-28 3 -55 3q-167 0 -272 -117t-105 -284q0 -164 140 -164q71 0 133.5 54.5t64.5 64.5zM356 1219h112l144 -394
h-41z" />
    <glyph glyph-name="acircumflex" unicode="&#xe2;" horiz-adv-x="811" 
d="M752 696l-109 -503q-6 -31 -6 -53q0 -82 92 -70l-8 -35l-240 -53l29 131l-4 4q-106 -140 -240 -140q-196 0 -196 211q0 199 172 353.5t452 154.5h58zM616 621q-28 3 -55 3q-167 0 -272 -117t-105 -284q0 -164 140 -164q71 0 133.5 54.5t64.5 64.5zM625 1219l127 -355h-41
l-158 248l-278 -248h-47l325 355h72z" />
    <glyph glyph-name="adieresis" unicode="&#xe4;" horiz-adv-x="811" 
d="M752 696l-109 -503q-6 -31 -6 -53q0 -82 92 -70l-8 -35l-240 -53l29 131l-4 4q-106 -140 -240 -140q-196 0 -196 211q0 199 172 353.5t452 154.5h58zM616 621q-28 3 -55 3q-167 0 -272 -117t-105 -284q0 -164 140 -164q71 0 133.5 54.5t64.5 64.5zM274 1034q0 35 25 59.5
t61 24.5q35 0 59.5 -24.5t24.5 -59.5t-24.5 -60.5t-59.5 -25.5t-60.5 25.5t-25.5 60.5zM653 1034q0 35 25 59.5t61 24.5q35 0 59.5 -24.5t24.5 -59.5t-24.5 -60.5t-59.5 -25.5t-60.5 25.5t-25.5 60.5z" />
    <glyph glyph-name="atilde" unicode="&#xe3;" horiz-adv-x="811" 
d="M752 696l-109 -503q-6 -31 -6 -53q0 -82 92 -70l-8 -35l-240 -53l29 131l-4 4q-106 -140 -240 -140q-196 0 -196 211q0 199 172 353.5t452 154.5h58zM616 621q-28 3 -55 3q-167 0 -272 -117t-105 -284q0 -164 140 -164q71 0 133.5 54.5t64.5 64.5zM777 1116h34
q-5 -72 -54 -124t-103 -52q-50 0 -165 47t-151 47q-64 0 -84 -92h-36q3 75 56 124.5t116 49.5q77 0 175.5 -47t125.5 -47q71 0 86 94z" />
    <glyph glyph-name="aring" unicode="&#xe5;" horiz-adv-x="811" 
d="M752 696l-109 -503q-6 -31 -6 -53q0 -82 92 -70l-8 -35l-240 -53l29 131l-4 4q-106 -140 -240 -140q-196 0 -196 211q0 199 172 353.5t452 154.5h58zM616 621q-28 3 -55 3q-167 0 -272 -117t-105 -284q0 -164 140 -164q71 0 133.5 54.5t64.5 64.5zM363 1028
q0 73 52.5 125.5t125.5 52.5t125.5 -52.5t52.5 -125.5t-52.5 -125.5t-125.5 -52.5t-125.5 52.5t-52.5 125.5zM670 1028q0 54 -37.5 91.5t-91.5 37.5q-53 0 -91 -37.5t-38 -91.5q0 -53 38 -91t91 -38q54 0 91.5 38t37.5 91z" />
    <glyph glyph-name="ccedilla" unicode="&#xe7;" horiz-adv-x="618" 
d="M162 -166l63 148q-162 39 -162 239q0 165 124.5 320t261.5 155q45 0 71.5 -6t32.5 -6q22 0 35 16h22l-22 -196h-29q3 62 -32.5 97.5t-96.5 35.5q-97 0 -171.5 -118.5t-74.5 -278.5q0 -181 144 -181q105 0 209 91l22 -25q-152 -148 -293 -148l-33 -77q95 -31 95 -113
q0 -158 -269 -207l9 39q165 52 165 141q0 55 -71 74z" />
    <glyph glyph-name="eacute" unicode="&#xe9;" horiz-adv-x="641" 
d="M184 301q-3 -26 -3 -49q0 -180 165 -180q120 0 229 145l21 -27q-73 -112 -141.5 -162.5t-167.5 -50.5q-106 0 -163.5 59.5t-57.5 168.5q0 186 131.5 338.5t289.5 152.5q62 0 98 -31.5t36 -84.5q0 -89 -117 -168.5t-320 -110.5zM193 338q307 57 307 205q0 30 -26.5 55
t-59.5 25q-75 0 -141 -88.5t-80 -196.5zM639 1219l-215 -394h-41l144 394h112z" />
    <glyph glyph-name="egrave" unicode="&#xe8;" horiz-adv-x="641" 
d="M184 301q-3 -26 -3 -49q0 -180 165 -180q120 0 229 145l21 -27q-73 -112 -141.5 -162.5t-167.5 -50.5q-106 0 -163.5 59.5t-57.5 168.5q0 186 131.5 338.5t289.5 152.5q62 0 98 -31.5t36 -84.5q0 -89 -117 -168.5t-320 -110.5zM193 338q307 57 307 205q0 30 -26.5 55
t-59.5 25q-75 0 -141 -88.5t-80 -196.5zM270 1219h112l144 -394h-41z" />
    <glyph glyph-name="ecircumflex" unicode="&#xea;" horiz-adv-x="641" 
d="M184 301q-3 -26 -3 -49q0 -180 165 -180q120 0 229 145l21 -27q-73 -112 -141.5 -162.5t-167.5 -50.5q-106 0 -163.5 59.5t-57.5 168.5q0 186 131.5 338.5t289.5 152.5q62 0 98 -31.5t36 -84.5q0 -89 -117 -168.5t-320 -110.5zM193 338q307 57 307 205q0 30 -26.5 55
t-59.5 25q-75 0 -141 -88.5t-80 -196.5zM538 1219l127 -355h-41l-158 248l-278 -248h-47l325 355h72z" />
    <glyph glyph-name="edieresis" unicode="&#xeb;" horiz-adv-x="641" 
d="M184 301q-3 -26 -3 -49q0 -180 165 -180q120 0 229 145l21 -27q-73 -112 -141.5 -162.5t-167.5 -50.5q-106 0 -163.5 59.5t-57.5 168.5q0 186 131.5 338.5t289.5 152.5q62 0 98 -31.5t36 -84.5q0 -89 -117 -168.5t-320 -110.5zM193 338q307 57 307 205q0 30 -26.5 55
t-59.5 25q-75 0 -141 -88.5t-80 -196.5zM188 1034q0 35 25 59.5t61 24.5q35 0 59.5 -24.5t24.5 -59.5t-24.5 -60.5t-59.5 -25.5t-60.5 25.5t-25.5 60.5zM567 1034q0 35 25 59.5t61 24.5q35 0 59.5 -24.5t24.5 -59.5t-24.5 -60.5t-59.5 -25.5t-60.5 25.5t-25.5 60.5z" />
    <glyph glyph-name="iacute" unicode="&#xed;" horiz-adv-x="492" 
d="M399 692l-110 -524q-11 -55 -11 -78q0 -32 19 -43.5t94 -11.5l-6 -35h-360l8 35q74 0 94 13.5t37 90.5l80 371q6 30 6 47q0 51 -57 51l-80 -10l8 41l237 53h41zM565 1219l-215 -394h-41l144 394h112z" />
    <glyph glyph-name="igrave" unicode="&#xec;" horiz-adv-x="492" 
d="M399 692l-110 -524q-11 -55 -11 -78q0 -32 19 -43.5t94 -11.5l-6 -35h-360l8 35q74 0 94 13.5t37 90.5l80 371q6 30 6 47q0 51 -57 51l-80 -10l8 41l237 53h41zM197 1219h112l144 -394h-41z" />
    <glyph glyph-name="icircumflex" unicode="&#xee;" horiz-adv-x="492" 
d="M399 692l-110 -524q-11 -55 -11 -78q0 -32 19 -43.5t94 -11.5l-6 -35h-360l8 35q74 0 94 13.5t37 90.5l80 371q6 30 6 47q0 51 -57 51l-80 -10l8 41l237 53h41zM465 1219l127 -355h-41l-158 248l-278 -248h-47l325 355h72z" />
    <glyph glyph-name="idieresis" unicode="&#xef;" horiz-adv-x="492" 
d="M399 692l-110 -524q-11 -55 -11 -78q0 -32 19 -43.5t94 -11.5l-6 -35h-360l8 35q74 0 94 13.5t37 90.5l80 371q6 30 6 47q0 51 -57 51l-80 -10l8 41l237 53h41zM115 1034q0 35 25 59.5t61 24.5q35 0 59.5 -24.5t24.5 -59.5t-24.5 -60.5t-59.5 -25.5t-60.5 25.5
t-25.5 60.5zM494 1034q0 35 25 59.5t61 24.5q35 0 59.5 -24.5t24.5 -59.5t-24.5 -60.5t-59.5 -25.5t-60.5 25.5t-25.5 60.5z" />
    <glyph glyph-name="ntilde" unicode="&#xf1;" horiz-adv-x="854" 
d="M356 694l-26 -119l4 -4q67 65 116.5 95t114.5 30q86 0 139.5 -50t53.5 -140q0 -35 -8 -74l-66 -315q-5 -22 -5 -36q0 -27 20.5 -36.5t80.5 -9.5l-6 -35h-334l6 35q66 4 88 23t35 83l70 326q4 18 4 35q0 50 -32 81t-83 31q-92 0 -211 -125l-69 -333q-10 -46 -10 -66
q0 -32 21 -43.5t75 -11.5l-6 -35h-297l6 35q68 7 88 102l80 375q3 18 3 32q0 62 -50 62q-32 0 -78 -12l10 45l225 55h41zM797 1116h34q-5 -72 -54 -124t-103 -52q-50 0 -165 47t-151 47q-64 0 -84 -92h-36q3 75 56 124.5t116 49.5q77 0 175.5 -47t125.5 -47q71 0 86 94z" />
    <glyph glyph-name="oacute" unicode="&#xf3;" horiz-adv-x="748" 
d="M492 696q82 0 144 -69t62 -162q0 -163 -123 -325.5t-292 -162.5q-94 0 -153.5 67t-59.5 171q0 182 131.5 331.5t290.5 149.5zM328 37q99 0 174.5 123.5t75.5 294.5q0 77 -40 129.5t-100 52.5q-96 0 -172 -123t-76 -289q0 -86 37.5 -137t100.5 -51zM692 1219l-215 -394
h-41l144 394h112z" />
    <glyph glyph-name="ograve" unicode="&#xf2;" horiz-adv-x="748" 
d="M492 696q82 0 144 -69t62 -162q0 -163 -123 -325.5t-292 -162.5q-94 0 -153.5 67t-59.5 171q0 182 131.5 331.5t290.5 149.5zM328 37q99 0 174.5 123.5t75.5 294.5q0 77 -40 129.5t-100 52.5q-96 0 -172 -123t-76 -289q0 -86 37.5 -137t100.5 -51zM324 1219h112l144 -394
h-41z" />
    <glyph glyph-name="ocircumflex" unicode="&#xf4;" horiz-adv-x="748" 
d="M492 696q82 0 144 -69t62 -162q0 -163 -123 -325.5t-292 -162.5q-94 0 -153.5 67t-59.5 171q0 182 131.5 331.5t290.5 149.5zM328 37q99 0 174.5 123.5t75.5 294.5q0 77 -40 129.5t-100 52.5q-96 0 -172 -123t-76 -289q0 -86 37.5 -137t100.5 -51zM592 1219l127 -355h-41
l-158 248l-278 -248h-47l325 355h72z" />
    <glyph glyph-name="odieresis" unicode="&#xf6;" horiz-adv-x="748" 
d="M492 696q82 0 144 -69t62 -162q0 -163 -123 -325.5t-292 -162.5q-94 0 -153.5 67t-59.5 171q0 182 131.5 331.5t290.5 149.5zM328 37q99 0 174.5 123.5t75.5 294.5q0 77 -40 129.5t-100 52.5q-96 0 -172 -123t-76 -289q0 -86 37.5 -137t100.5 -51zM242 1034q0 35 25 59.5
t61 24.5q35 0 59.5 -24.5t24.5 -59.5t-24.5 -60.5t-59.5 -25.5t-60.5 25.5t-25.5 60.5zM621 1034q0 35 25 59.5t61 24.5q35 0 59.5 -24.5t24.5 -59.5t-24.5 -60.5t-59.5 -25.5t-60.5 25.5t-25.5 60.5z" />
    <glyph glyph-name="otilde" unicode="&#xf5;" horiz-adv-x="748" 
d="M492 696q82 0 144 -69t62 -162q0 -163 -123 -325.5t-292 -162.5q-94 0 -153.5 67t-59.5 171q0 182 131.5 331.5t290.5 149.5zM328 37q99 0 174.5 123.5t75.5 294.5q0 77 -40 129.5t-100 52.5q-96 0 -172 -123t-76 -289q0 -86 37.5 -137t100.5 -51zM744 1116h34
q-5 -72 -54 -124t-103 -52q-50 0 -165 47t-151 47q-64 0 -84 -92h-36q3 75 56 124.5t116 49.5q77 0 175.5 -47t125.5 -47q71 0 86 94z" />
    <glyph glyph-name="uacute" unicode="&#xfa;" horiz-adv-x="854" 
d="M797 696l-103 -493q-10 -44 -10 -86q0 -71 86 -62l-8 -35l-236 -38l29 131l-4 4q-155 -140 -262 -140q-71 0 -115.5 49.5t-44.5 127.5q0 52 14 118l52 238q5 27 5 45q0 51 -67 51q-14 0 -31 -2l7 35l202 57h41l-94 -450q-12 -65 -12 -82q0 -45 30 -77t72 -32q66 0 142 58
t79 71l72 334q3 16 3 29q0 61 -58 61q-17 0 -39 -4l6 35l203 57h41zM745 1219l-215 -394h-41l144 394h112z" />
    <glyph glyph-name="ugrave" unicode="&#xf9;" horiz-adv-x="854" 
d="M797 696l-103 -493q-10 -44 -10 -86q0 -71 86 -62l-8 -35l-236 -38l29 131l-4 4q-155 -140 -262 -140q-71 0 -115.5 49.5t-44.5 127.5q0 52 14 118l52 238q5 27 5 45q0 51 -67 51q-14 0 -31 -2l7 35l202 57h41l-94 -450q-12 -65 -12 -82q0 -45 30 -77t72 -32q66 0 142 58
t79 71l72 334q3 16 3 29q0 61 -58 61q-17 0 -39 -4l6 35l203 57h41zM377 1219h112l144 -394h-41z" />
    <glyph glyph-name="ucircumflex" unicode="&#xfb;" horiz-adv-x="854" 
d="M797 696l-103 -493q-10 -44 -10 -86q0 -71 86 -62l-8 -35l-236 -38l29 131l-4 4q-155 -140 -262 -140q-71 0 -115.5 49.5t-44.5 127.5q0 52 14 118l52 238q5 27 5 45q0 51 -67 51q-14 0 -31 -2l7 35l202 57h41l-94 -450q-12 -65 -12 -82q0 -45 30 -77t72 -32q66 0 142 58
t79 71l72 334q3 16 3 29q0 61 -58 61q-17 0 -39 -4l6 35l203 57h41zM645 1219l127 -355h-41l-158 248l-278 -248h-47l325 355h72z" />
    <glyph glyph-name="udieresis" unicode="&#xfc;" horiz-adv-x="854" 
d="M797 696l-103 -493q-10 -44 -10 -86q0 -71 86 -62l-8 -35l-236 -38l29 131l-4 4q-155 -140 -262 -140q-71 0 -115.5 49.5t-44.5 127.5q0 52 14 118l52 238q5 27 5 45q0 51 -67 51q-14 0 -31 -2l7 35l202 57h41l-94 -450q-12 -65 -12 -82q0 -45 30 -77t72 -32q66 0 142 58
t79 71l72 334q3 16 3 29q0 61 -58 61q-17 0 -39 -4l6 35l203 57h41zM295 1034q0 35 25 59.5t61 24.5q35 0 59.5 -24.5t24.5 -59.5t-24.5 -60.5t-59.5 -25.5t-60.5 25.5t-25.5 60.5zM674 1034q0 35 25 59.5t61 24.5q35 0 59.5 -24.5t24.5 -59.5t-24.5 -60.5t-59.5 -25.5
t-60.5 25.5t-25.5 60.5z" />
    <glyph glyph-name="dagger" unicode="&#x2020;" 
d="M561 723q67 0 168 24.5t135 24.5q70 0 70 -67q0 -72 -84 -72q-28 0 -103 27.5t-194 27.5q-13 -54 -13 -105q0 -85 33 -157q-80 -159 -129 -352l-141 -561h-35q122 556 122 770q0 83 -15 143q91 90 141 262q-91 0 -185 -27.5t-120 -27.5q-33 0 -54.5 19.5t-21.5 49.5
q0 70 84 70q28 0 127 -24.5t176 -24.5q18 64 18 116q0 26 -7 78.5t-7 92.5q0 63 24.5 100t65.5 37q72 0 72 -76q0 -50 -56 -158t-71 -190z" />
    <glyph glyph-name="degree" unicode="&#xb0;" horiz-adv-x="817" 
d="M162 1079q0 127 90 217t217 90t217 -90t90 -217t-90 -217t-217 -90t-217 90t-90 217zM694 1079q0 94 -66 160t-159 66t-159 -66t-66 -160q0 -93 66 -159t159 -66t159 66t66 159z" />
    <glyph glyph-name="cent" unicode="&#xa2;" horiz-adv-x="641" 
d="M606 1212l-127 -518q13 2 40 -3t38 -5q27 0 41 14h23l-23 -196h-29q7 109 -104 133l-141 -576q123 0 223 89l22 -25q-141 -139 -266 -145l-133 -539h-37l133 539q-83 0 -137.5 68.5t-54.5 174.5q0 157 114.5 307t253.5 164l127 518h37zM287 70l141 569q-93 -9 -163 -130
t-70 -267q0 -145 92 -172z" />
    <glyph glyph-name="sterling" unicode="&#xa3;" 
d="M698 473h-260q-26 -126 -61 -242q70 -16 172 -75.5t160 -59.5q44 0 81 32.5t48 84.5h34q-19 -105 -80 -170.5t-130 -65.5q-72 0 -117 27l-213 125q-62 -144 -191 -144q-49 0 -79.5 27.5t-30.5 69.5q0 61 78 109.5t188 39.5q18 76 39 242h-223l8 45h219
q32 412 132.5 527.5t240.5 115.5q192 0 231 -196h-35q-31 131 -151 131q-87 0 -160.5 -99.5t-148.5 -478.5h258zM266 150q-36 12 -67 12q-53 0 -90 -24.5t-37 -57.5q0 -20 17 -36.5t38 -16.5q95 0 139 123z" />
    <glyph glyph-name="section" unicode="&#xa7;" horiz-adv-x="854" 
d="M356 707q-82 111 -82 215q0 101 69.5 163t182.5 62q104 0 171 -58t67 -147q0 -102 -80 -102q-29 0 -50.5 23t-21.5 55q0 29 23.5 59.5t23.5 46.5q0 36 -35.5 61t-88.5 25q-79 0 -127 -40.5t-48 -106.5q0 -41 28.5 -97.5t154 -211t163 -236.5t37.5 -146q0 -178 -215 -292
q76 -111 76 -197q0 -107 -73.5 -175.5t-188.5 -68.5q-100 0 -169 60t-69 145q0 46 22 74t56 28q64 0 64 -71q0 -16 -15.5 -56.5t-15.5 -60.5q0 -35 35.5 -58.5t89.5 -23.5q73 0 120.5 43t47.5 109q0 43 -28 100t-150 202t-158.5 225t-36.5 146q0 100 58.5 182.5t162.5 123.5
zM506 0q145 75 145 205q0 55 -31.5 126t-124.5 188.5t-118 154.5q-148 -61 -148 -205q0 -107 144 -295z" />
    <glyph glyph-name="bullet" unicode="&#x2022;" horiz-adv-x="717" 
d="M430 446q-95 0 -162 67.5t-67 162.5t67 162t162 67t162 -67t67 -162t-67 -162.5t-162 -67.5z" />
    <glyph glyph-name="paragraph" unicode="&#xb6;" horiz-adv-x="928" 
d="M819 1298h-182v-1742h-59v1071q-232 -4 -349.5 87t-117.5 261q0 164 113 271.5t317 107.5h479l-8 -35q-70 -5 -101.5 -26t-31.5 -128v-1609h-60v1742z" />
    <glyph glyph-name="germandbls" unicode="&#xdf;" horiz-adv-x="831" 
d="M-324 -508l25 107h37q-5 -117 88 -117q153 0 219 309l240 1127q29 142 109 219t196 77q110 0 181 -68t71 -173q0 -99 -68.5 -181.5t-179.5 -95.5v-4q186 -59 186 -252q0 -180 -105.5 -314t-244.5 -134q-110 0 -158 88l45 86l27 -10q-2 -15 -2 -28q0 -47 26.5 -74
t63.5 -27q88 0 157.5 123t69.5 288q0 216 -182 236l8 35q122 8 188 90.5t66 216.5q0 73 -40.5 118.5t-106.5 45.5q-136 0 -195 -250l-239 -1123q-37 -172 -129.5 -271t-208.5 -99q-78 0 -144 55z" />
    <glyph glyph-name="registered" unicode="&#xae;" horiz-adv-x="1556" 
d="M778 1372q292 0 500.5 -207.5t208.5 -498.5q0 -292 -208.5 -500.5t-500.5 -208.5q-291 0 -498.5 208t-207.5 501q0 292 207 499t499 207zM778 10q269 0 462.5 193.5t193.5 462.5q0 268 -193 460.5t-463 192.5q-269 0 -461 -192t-192 -461q0 -270 192.5 -463t460.5 -193z
M618 649v-229q0 -99 27.5 -120t104.5 -21l-7 -35h-368l8 35q93 0 106 29.5t13 111.5v526q0 80 -22.5 105.5t-102.5 25.5l6 31h336q146 0 224.5 -60.5t78.5 -160.5q0 -187 -223 -213l192 -264q57 -76 93 -101.5t104 -29.5l-6 -35h-197l-283 381q-18 24 -53 24h-31zM618 692
h44q110 0 170.5 54t60.5 151q0 79 -50 123.5t-138 44.5q-44 0 -87 -16v-357z" />
    <glyph glyph-name="copyright" unicode="&#xa9;" horiz-adv-x="1556" 
d="M778 1372q292 0 500.5 -207.5t208.5 -498.5q0 -292 -208.5 -500.5t-500.5 -208.5q-291 0 -498.5 208t-207.5 501q0 292 207 499t499 207zM778 10q269 0 462.5 193.5t193.5 462.5q0 268 -193 460.5t-463 192.5q-269 0 -461 -192t-192 -461q0 -270 192.5 -463t460.5 -193z
M1096 1137l18 -297h-31q-62 245 -284 245q-134 0 -218.5 -112.5t-84.5 -292.5q0 -181 86.5 -286t234.5 -105q169 0 297 174l21 -14q-128 -220 -349 -220q-183 0 -304.5 126.5t-121.5 316.5q0 191 125 323.5t306 132.5q75 0 142.5 -25.5t90.5 -25.5q35 0 41 60h31z" />
    <glyph glyph-name="trademark" unicode="&#x2122;" horiz-adv-x="2007" 
d="M274 549v35h31q53 0 70.5 29t17.5 122v574h-114q-124 0 -132 -135h-34v184h684v-184h-35q-8 70 -31.5 102.5t-122.5 32.5h-92v-555q0 -99 17 -134.5t83 -35.5h19v-35h-361zM858 1358h242l293 -627l288 627h232v-33h-31q-51 -3 -69.5 -23.5t-18.5 -72.5v-488
q0 -104 19 -129t98 -28v-35h-346v35q81 0 98.5 30.5t17.5 126.5v496h-4l-307 -688h-16l-318 676h-4v-535q0 -71 18.5 -88.5t96.5 -17.5v-35h-289v35q76 0 97.5 19t21.5 95v514q0 71 -28 90t-91 23v33z" />
    <glyph glyph-name="acute" unicode="&#xb4;" horiz-adv-x="682" 
d="M659 1219l-215 -394h-41l144 394h112z" />
    <glyph glyph-name="dieresis" unicode="&#xa8;" horiz-adv-x="682" 
d="M209 1034q0 35 25 59.5t61 24.5q35 0 59.5 -24.5t24.5 -59.5t-24.5 -60.5t-59.5 -25.5t-60.5 25.5t-25.5 60.5zM588 1034q0 35 25 59.5t61 24.5q35 0 59.5 -24.5t24.5 -59.5t-24.5 -60.5t-59.5 -25.5t-60.5 25.5t-25.5 60.5z" />
    <glyph glyph-name="notequal" unicode="&#x2260;" horiz-adv-x="1124" 
d="M1106 279h-621l-184 -330l-100 57l151 273h-321v112h385l157 285h-542v112h606l186 336l101 -57l-156 -279h338v-112h-399l-160 -285h559v-112z" />
    <glyph glyph-name="AE" unicode="&#xc6;" horiz-adv-x="1409" 
d="M1257 711l-55 -262h-35q-7 60 -37.5 85t-117.5 25h-150l-71 -336q-12 -54 -12 -83q0 -49 31.5 -67t107.5 -18h81q135 0 203.5 45t124.5 158h35l-105 -258h-753l8 35q61 7 87 36.5t46 125.5l57 274h-294l-170 -248q-62 -87 -62 -133q0 -29 22 -40t78 -15l-8 -35h-321l8 35
q57 3 98.5 33t118.5 143l633 926h581l-38 -185h-35q6 89 -20 109t-130 20h-188l-101 -467h187q138 0 162 97h34zM713 516l121 565h-11l-387 -565h277z" />
    <glyph glyph-name="Oslash" unicode="&#xd8;" horiz-adv-x="1153" 
d="M1018 1057l100 127l29 -25l-107 -133q88 -97 88 -281q0 -283 -179.5 -526.5t-434.5 -243.5q-134 0 -238 82l-83 -104l-31 24l88 111q-111 108 -111 305q0 285 183 526.5t428 241.5q156 0 268 -104zM326 184l614 777q-79 155 -225 155q-176 0 -300 -231.5t-124 -517.5
q0 -118 35 -183zM954 915l-610 -772q74 -123 211 -123q187 0 304.5 238t117.5 514q0 89 -23 143z" />
    <glyph glyph-name="infinity" unicode="&#x221e;" horiz-adv-x="1460" 
d="M653 668q71 169 159 222.5t212 53.5q161 0 272 -116.5t111 -301.5q0 -186 -111.5 -303t-238.5 -117q-95 0 -170.5 63t-165.5 224q-117 -233 -324 -233q-149 0 -246.5 104.5t-97.5 263.5q0 157 89 262t218 105q80 0 149 -42t144 -185zM750 465q64 -138 134.5 -201
t176.5 -63q126 0 207.5 91t81.5 234q0 140 -84 240t-199 100q-55 0 -97.5 -21.5t-74.5 -62t-64 -116.5zM614 557l11 33q-96 215 -267 215q-110 0 -179.5 -76.5t-69.5 -198.5q0 -123 66.5 -207.5t162.5 -84.5q82 0 149.5 65t126.5 254z" />
    <glyph glyph-name="plusminus" unicode="&#xb1;" horiz-adv-x="1366" 
d="M145 858h494v494h88v-494h494v-88h-494v-494h-88v494h-494v88zM145 51h1076v-88h-1076v88z" />
    <glyph glyph-name="lessequal" unicode="&#x2264;" horiz-adv-x="1124" 
d="M1077 240l-1018 471v127l1018 471v-127l-887 -408l887 -407v-127zM1077 0h-1018v112h1018v-112z" />
    <glyph glyph-name="greaterequal" unicode="&#x2265;" horiz-adv-x="1124" 
d="M1077 711l-1018 -471v127l887 407l-887 408v127l1018 -471v-127zM1077 0h-1018v112h1018v-112z" />
    <glyph glyph-name="yen" unicode="&#xa5;" 
d="M551 586l-39 -191h346l-10 -45h-346l-37 -172q-9 -40 -9 -65q0 -78 113 -78l-6 -35h-377l7 35q52 6 81 26.5t43 88.5l43 200h-354l10 45h355l39 191h-351l11 45h354l-154 366q-26 64 -49 82t-84 23l8 35h338l-8 -35q-72 -5 -72 -43q0 -14 29 -84l123 -299h8l228 299
q38 52 38 78q0 49 -92 49l8 35h295l-8 -35q-84 -2 -143 -78l-307 -393h329l-10 -45h-350z" />
    <glyph glyph-name="uni00B5" unicode="&#xb5;" horiz-adv-x="1024" 
d="M168 139l115 557h120l-104 -487q-4 -20 -4 -39q0 -50 31 -80.5t71 -30.5q68 0 144 55.5t80 69.5l108 512h119l-105 -493q-12 -62 -12 -91q0 -57 60 -57h28l-8 -35l-233 -38l28 131l-4 4q-155 -140 -264 -140q-85 0 -139 84q-27 -79 -27 -270q0 -141 -78 -141
q-30 0 -50.5 19t-20.5 46q0 26 54.5 137.5t90.5 286.5z" />
    <glyph glyph-name="partialdiff" unicode="&#x2202;" horiz-adv-x="1012" 
d="M295 1120h-45q131 303 379 303q161 0 263.5 -127t102.5 -376q0 -358 -164.5 -654.5t-427.5 -296.5q-155 0 -246 91t-91 245q0 239 166.5 420.5t383.5 181.5q222 0 312 -190h4q10 144 10 186q0 175 -92.5 276t-253.5 101q-194 0 -301 -160zM911 629q-81 225 -284 225
q-178 0 -286 -190.5t-108 -399.5q0 -108 54 -172.5t143 -64.5q136 0 279.5 162.5t201.5 439.5z" />
    <glyph glyph-name="summation" unicode="&#x2211;" horiz-adv-x="1460" 
d="M1423 238q-32 -125 -54 -240t-34 -219q-63 11 -102.5 16.5t-54.5 5.5h-1031q-20 0 -59 -3t-59 -3l714 815l-710 930q70 -7 123 -10.5t90 -3.5h1018l12 -326h-41q-31 102 -52.5 141t-81.5 66q-30 13 -74.5 20t-104.5 7h-539l559 -734l-602 -694h760q127 0 177.5 52
t98.5 180h47z" />
    <glyph glyph-name="product" unicode="&#x220f;" horiz-adv-x="1686" 
d="M1645 -207h-629v47q120 0 159.5 41t39.5 125v1419h-734v-1419q0 -84 39.5 -125t159.5 -41v-47h-629v47q122 0 160.5 41t38.5 125v1282q0 101 -48.5 152t-146.5 51v47h1586v-47q-98 0 -146.5 -51t-48.5 -152v-1282q0 -84 38.5 -125t160.5 -41v-47z" />
    <glyph glyph-name="pi" unicode="&#x3c0;" horiz-adv-x="1124" 
d="M1085 309q-5 -155 -75.5 -248.5t-167.5 -93.5q-79 0 -138.5 91.5t-59.5 281.5q0 42 2 80t5 72l35 329h-231q-60 -624 -98.5 -742.5t-130.5 -118.5q-39 0 -74 31t-35 82q0 46 72.5 128.5t80.5 150.5l60 469h-97q-40 0 -78.5 -19.5t-56.5 -45.5l-43 -64h-35
q49 152 120.5 228.5t164.5 76.5h764v-176h-258q-12 -120 -18.5 -240t-6.5 -241q0 -82 38 -133t95 -51q35 0 73.5 28.5t43.5 74.5q3 22 4.5 34.5t1.5 15.5h43z" />
    <glyph glyph-name="integral" unicode="&#x222b;" horiz-adv-x="561" 
d="M602 1760q0 -39 -29.5 -64t-75.5 -25q-37 0 -60 25t-44 25q-18 0 -27.5 -14.5t-9.5 -43.5q0 -34 19.5 -256t19.5 -551q0 -505 -30 -709.5t-79 -282.5q-26 -41 -67.5 -62t-85.5 -21q-49 0 -86 35t-37 85q0 38 25.5 65t64.5 27q34 0 65.5 -33t44.5 -33q25 0 39.5 44.5
t14.5 153.5q0 37 -6 197t-6 562q0 481 17 638.5t41 215.5q29 70 69 104t84 34q57 0 98 -32.5t41 -83.5z" />
    <glyph glyph-name="ordfeminine" unicode="&#xaa;" horiz-adv-x="555" 
d="M582 1161l-68 -315q-2 -10 -2 -19q0 -34 36 -34q9 0 19 2l-6 -31l-155 -33l12 60l-4 4q-64 -64 -144 -64q-135 0 -135 129q0 116 112 208.5t296 92.5h39zM485 1112h-26q-101 0 -168.5 -67t-67.5 -166q0 -95 84 -95q45 0 83.5 31t39.5 37z" />
    <glyph glyph-name="ordmasculine" unicode="&#xba;" horiz-adv-x="492" 
d="M143 874q0 111 86 199t193 88q56 0 97.5 -41.5t41.5 -97.5q0 -110 -85 -200.5t-187 -90.5q-63 0 -104.5 40.5t-41.5 102.5zM471 1016q0 47 -23.5 75.5t-60.5 28.5q-57 0 -104 -72.5t-47 -164.5q0 -111 81 -111q61 0 107.5 72.5t46.5 171.5z" />
    <glyph glyph-name="uni2126" unicode="&#x2126;" horiz-adv-x="1573" 
d="M1506 0h-604l33 311q161 59 226 200t65 313q0 227 -107 373t-331 146t-331 -146t-107 -373q0 -172 65 -313t226 -200l33 -311h-604v332h30q16 -66 40 -95.5t96 -29.5h323l-4 57q-238 65 -341 221t-103 332q0 259 192 425.5t485 166.5t485 -166.5t192 -425.5
q0 -176 -103 -332t-341 -221l-4 -57h323q72 0 96 29.5t40 95.5h30v-332z" />
    <glyph glyph-name="ae" unicode="&#xe6;" horiz-adv-x="1153" 
d="M1065 207l27 -19q-101 -211 -295 -211q-87 0 -153 45.5t-87 124.5q-124 -170 -283 -170q-89 0 -145.5 60t-56.5 156q0 158 121 290.5t262 172.5t452 40q209 0 209 -114q0 -98 -121.5 -177t-324.5 -100q-7 -32 -7 -61q0 -80 48.5 -127t126.5 -47q139 0 227 137zM551 193
q-3 20 -3 41q0 216 247 393q-76 10 -162 10q-203 0 -323 -122.5t-120 -299.5q0 -65 38 -107t96 -42q115 0 227 127zM678 342q130 10 229 72t99 133q0 33 -27 55.5t-66 22.5q-74 0 -141 -77.5t-94 -205.5z" />
    <glyph glyph-name="oslash" unicode="&#xf8;" horiz-adv-x="748" 
d="M625 637l61 70l25 -21l-66 -74q53 -58 53 -147q0 -163 -123 -325.5t-292 -162.5q-90 0 -146 58l-59 -68l-25 21l64 73q-47 56 -47 154q0 182 131.5 331.5t290.5 149.5q79 0 133 -59zM199 154l356 403q-37 80 -117 80q-97 0 -172.5 -122.5t-75.5 -287.5q0 -46 9 -73z
M567 522l-356 -403q37 -82 117 -82q99 0 174.5 124.5t75.5 295.5q0 39 -11 65z" />
    <glyph glyph-name="questiondown" unicode="&#xbf;" horiz-adv-x="641" 
d="M469 414l-41 -188q-24 -111 -34.5 -131.5t-115.5 -86t-139.5 -114t-34.5 -96.5q0 -71 64.5 -120.5t156.5 -49.5q79 0 168 37l-8 -45q-85 -74 -200 -74q-97 0 -161.5 78t-64.5 196q0 120 54 203q55 84 184 160q61 36 78 67.5t55 163.5h39zM575 594q0 -34 -26 -60t-62 -26
q-35 0 -60.5 25.5t-25.5 60.5q0 36 25.5 62.5t60.5 26.5t61.5 -26.5t26.5 -62.5z" />
    <glyph glyph-name="exclamdown" unicode="&#xa1;" horiz-adv-x="641" 
d="M415 414l-120 -870q-15 -101 -82 -101q-72 0 -72 88q0 28 10 64l230 819h34zM520 596q0 -34 -26.5 -60t-61.5 -26t-60.5 25.5t-25.5 60.5q0 36 25.5 62.5t60.5 26.5t61.5 -26.5t26.5 -62.5z" />
    <glyph glyph-name="logicalnot" unicode="&#xac;" horiz-adv-x="1366" 
d="M176 819h1075v-551h-88v463h-987v88z" />
    <glyph glyph-name="radical" unicode="&#x221a;" horiz-adv-x="1124" 
d="M1055 1868l-307 -1946l-498 1028l-197 -96l-33 68l299 147l404 -825l260 1634z" />
    <glyph glyph-name="florin" unicode="&#x192;" horiz-adv-x="1280" 
d="M958 674l-7 -56h-143l-113 -598q-45 -242 -99.5 -352t-153 -170.5t-211.5 -60.5q-151 0 -238 55l31 143h34q33 -157 179 -157q110 0 193.5 79.5t137.5 368.5l129 692h-143l6 56h144l51 248q40 198 130.5 273t215.5 75q58 0 139 -27l6 25h41l-39 -185h-41
q-13 146 -129 146q-148 0 -200 -250l-64 -305h144z" />
    <glyph glyph-name="approxequal" unicode="&#x2248;" horiz-adv-x="1124" 
d="M1022 874h51q-21 -155 -95.5 -238t-186.5 -83q-97 0 -304 117q-139 78 -211 78q-149 0 -178 -187h-47q20 154 93.5 238t181.5 84q47 0 107 -19.5t224 -107.5q118 -62 193 -62q144 0 172 180zM1022 487h51q-21 -155 -95.5 -238t-186.5 -83q-96 0 -268.5 97t-246.5 97
q-149 0 -178 -186h-47q20 153 93.5 236.5t181.5 83.5q47 0 112 -21.5t219 -103.5q118 -62 193 -62q144 0 172 180z" />
    <glyph glyph-name="uni2206" unicode="&#x2206;" horiz-adv-x="1253" 
d="M668 1409l577 -1409h-1233zM594 1059l-447 -959h844z" />
    <glyph glyph-name="guillemotleft" unicode="&#xab;" horiz-adv-x="854" 
d="M786 707l-270 -390l39 -366h-39l-121 397l348 359h43zM481 707l-270 -390l39 -366h-39l-121 397l348 359h43z" />
    <glyph glyph-name="guillemotright" unicode="&#xbb;" horiz-adv-x="854" 
d="M381 -49l270 389l-39 367h39l121 -398l-348 -358h-43zM76 -49l270 389l-39 367h39l121 -398l-348 -358h-43z" />
    <glyph glyph-name="ellipsis" unicode="&#x2026;" horiz-adv-x="2048" 
d="M926 47q0 40 29 68t69 28t68 -28t28 -68t-28.5 -69t-67.5 -29q-40 0 -69 29t-29 69zM244 47q0 40 29 68t69 28t68 -28t28 -68t-28.5 -69t-67.5 -29q-40 0 -69 29t-29 69zM1608 47q0 40 29 68t69 28t68 -28t28 -68t-28.5 -69t-67.5 -29q-40 0 -69 29t-29 69z" />
    <glyph glyph-name="uni00A0" unicode="&#xa0;" horiz-adv-x="1024" 
 />
    <glyph glyph-name="Agrave" unicode="&#xc0;" horiz-adv-x="961" 
d="M768 1161v-1009q0 -69 19 -93t98 -24l-8 -35h-359l-6 35q69 0 92 19.5t23 86.5v332h-260l-117 -199q-92 -158 -92 -198q0 -41 90 -41l-8 -35h-297l8 35q59 4 99 31t97 122l584 973h37zM627 518v395h-4l-228 -395h232zM606 1608h112l144 -394h-41z" />
    <glyph glyph-name="Atilde" unicode="&#xc3;" horiz-adv-x="961" 
d="M768 1161v-1009q0 -69 19 -93t98 -24l-8 -35h-359l-6 35q69 0 92 19.5t23 86.5v332h-260l-117 -199q-92 -158 -92 -198q0 -41 90 -41l-8 -35h-297l8 35q59 4 99 31t97 122l584 973h37zM627 518v395h-4l-228 -395h232zM1027 1505h34q-5 -72 -54 -124t-103 -52
q-50 0 -165 47t-151 47q-64 0 -84 -92h-36q3 75 56 124.5t116 49.5q77 0 175.5 -47t125.5 -47q71 0 86 94z" />
    <glyph glyph-name="Otilde" unicode="&#xd5;" horiz-adv-x="1153" 
d="M750 1161q171 0 274.5 -113.5t103.5 -302.5q0 -283 -179.5 -526.5t-434.5 -243.5q-166 0 -270.5 116t-104.5 302q0 285 183 526.5t428 241.5zM555 20q187 0 304.5 238t117.5 514q0 152 -74 248t-188 96q-176 0 -300 -231.5t-124 -517.5q0 -157 72.5 -252t191.5 -95z
M1015 1505h34q-5 -72 -54 -124t-103 -52q-50 0 -165 47t-151 47q-64 0 -84 -92h-36q3 75 56 124.5t116 49.5q77 0 175.5 -47t125.5 -47q71 0 86 94z" />
    <glyph glyph-name="OE" unicode="&#x152;" horiz-adv-x="1516" 
d="M1509 1137l-39 -183h-38q0 89 -25.5 108t-140.5 19h-158l-102 -467h176q87 0 117 23t47 76h36l-57 -262h-35q-6 59 -36 83.5t-124 24.5h-135l-71 -338q-10 -46 -10 -76q0 -90 124 -90h95q139 0 196 49t105 150h36l-88 -254h-626l-228 -8q-178 0 -283.5 116.5
t-105.5 315.5q0 285 193 507t438 222q35 0 117 -8t104 -8h518zM799 260l143 674q4 19 4 36q0 64 -50 101t-136 37q-217 0 -343 -233t-126 -494q0 -157 71.5 -250.5t190.5 -93.5q198 0 246 223z" />
    <glyph glyph-name="oe" unicode="&#x153;" horiz-adv-x="1174" 
d="M1092 211l28 -16q-118 -218 -307 -218q-158 0 -217 183q-124 -183 -311 -183q-90 0 -151.5 67t-61.5 165q0 188 130.5 337.5t293.5 149.5q158 0 211 -143q143 143 282 143q146 0 146 -118q0 -89 -120.5 -172t-328.5 -103q-3 -22 -3 -43q0 -82 49.5 -134t131.5 -52
q128 0 228 137zM451 637q-111 0 -184.5 -122t-73.5 -263q0 -99 39 -157t106 -58q113 0 186.5 146t73.5 292q0 73 -40.5 117.5t-106.5 44.5zM694 338q140 14 234 76.5t94 128.5q0 37 -28.5 61.5t-71.5 24.5q-72 0 -136 -76t-92 -215z" />
    <glyph glyph-name="endash" unicode="&#x2013;" horiz-adv-x="1024" 
d="M-12 408h1048v-46h-1048v46z" />
    <glyph glyph-name="emdash" unicode="&#x2014;" horiz-adv-x="2048" 
d="M-12 408h2072v-46h-2072v46z" />
    <glyph glyph-name="quotedblleft" unicode="&#x201c;" horiz-adv-x="532" 
d="M360 1219l-8 -37q-166 -49 -166 -199q88 -17 88 -88q0 -38 -24.5 -63t-63.5 -25q-44 0 -72 35t-28 92q0 98 75 178.5t199 106.5zM662 1219l-9 -37q-166 -49 -166 -199q88 -17 88 -88q0 -38 -24.5 -63t-63.5 -25q-44 0 -72 35t-28 92q0 98 75 178.5t200 106.5z" />
    <glyph glyph-name="quotedblright" unicode="&#x201d;" horiz-adv-x="532" 
d="M135 807l8 37q166 48 166 198q-88 17 -88 88q0 39 25 64t63 25q45 0 73 -35.5t28 -91.5q0 -99 -75 -179.5t-200 -105.5zM436 807l8 37q166 48 166 198q-88 17 -88 88q0 39 25 64t63 25q45 0 73 -35.5t28 -91.5q0 -99 -75 -179.5t-200 -105.5z" />
    <glyph glyph-name="quoteleft" unicode="&#x2018;" horiz-adv-x="532" 
d="M621 1219l-9 -37q-166 -49 -166 -199q89 -17 89 -88q0 -38 -25 -63t-64 -25q-44 0 -72 35t-28 92q0 98 75 178.5t200 106.5z" />
    <glyph glyph-name="quoteright" unicode="&#x2019;" horiz-adv-x="532" 
d="M180 807l8 37q166 48 166 198q-88 17 -88 88q0 39 25 64t63 25q45 0 73 -35.5t28 -91.5q0 -99 -75 -179.5t-200 -105.5z" />
    <glyph glyph-name="divide" unicode="&#xf7;" horiz-adv-x="1368" 
d="M651 942q0 26 18 44t44 18t43.5 -18t17.5 -44t-17.5 -43.5t-43.5 -17.5t-44 17.5t-18 43.5zM176 582h1075v-88h-1075v88zM651 133q0 26 18 44t44 18t43.5 -18t17.5 -44t-17.5 -43.5t-43.5 -17.5t-44 17.5t-18 43.5z" />
    <glyph glyph-name="lozenge" unicode="&#x25ca;" horiz-adv-x="1012" 
d="M962 763l-397 -763h-122l-397 763l397 763h122zM839 763l-335 652l-335 -652l335 -652z" />
    <glyph glyph-name="ydieresis" unicode="&#xff;" horiz-adv-x="748" 
d="M782 674l-8 -35q-49 -4 -73.5 -28t-61.5 -91l-387 -700q-78 -141 -140.5 -212.5t-158 -127t-193.5 -55.5q-7 0 -51 6l39 110q166 0 286.5 96t221.5 287l-47 576q-8 95 -23.5 117t-60.5 22l8 35h301l-8 -35q-63 0 -86 -15t-23 -62q0 -14 2 -40l35 -426h4l222 404
q38 70 38 96q0 43 -63 43l8 35h219zM242 1034q0 35 25 59.5t61 24.5q35 0 59.5 -24.5t24.5 -59.5t-24.5 -60.5t-59.5 -25.5t-60.5 25.5t-25.5 60.5zM621 1034q0 35 25 59.5t61 24.5q35 0 59.5 -24.5t24.5 -59.5t-24.5 -60.5t-59.5 -25.5t-60.5 25.5t-25.5 60.5z" />
    <glyph glyph-name="Ydieresis" unicode="&#x178;" 
d="M643 629l-92 -451q-13 -63 -13 -83q0 -60 101 -60l-8 -35h-363l8 35q57 6 85.5 28.5t41.5 86.5l95 454l-164 393q-31 76 -58 89t-77 16l8 35h338l-8 -35q-71 -3 -71 -47q0 -24 23 -80l127 -307l228 307q39 53 39 78q0 49 -90 49l8 35h293l-9 -35q-42 0 -79.5 -20.5
t-102.5 -106.5zM406 1423q0 35 25 59.5t61 24.5q35 0 59.5 -24.5t24.5 -59.5t-24.5 -60.5t-59.5 -25.5t-60.5 25.5t-25.5 60.5zM785 1423q0 35 25 59.5t61 24.5q35 0 59.5 -24.5t24.5 -59.5t-24.5 -60.5t-59.5 -25.5t-60.5 25.5t-25.5 60.5z" />
    <glyph glyph-name="fraction" unicode="&#x2215;" horiz-adv-x="256" 
d="M647 1196h60l-1088 -1196h-68z" />
    <glyph glyph-name="Euro" unicode="&#x20ac;" 
d="M958 1219l-55 -275h-37q-6 105 -57 157t-123 52q-123 0 -236 -125t-157 -342h457l-11 -45h-452q-8 -48 -11 -104h447l-10 -45h-437v-7q0 -210 83.5 -322t205.5 -112q183 0 295 197l31 -29q-71 -122 -158.5 -182t-216.5 -60q-163 0 -272 138.5t-109 363.5v13h-92l10 45h84
q2 43 15 104h-97l11 45h96q64 228 213 370t309 142q48 0 133 -22q39 -11 49 -11q26 0 56 54h36z" />
    <glyph glyph-name="guilsinglleft" unicode="&#x2039;" horiz-adv-x="555" 
d="M483 707l-270 -390l39 -366h-39l-121 397l348 359h43z" />
    <glyph glyph-name="guilsinglright" unicode="&#x203a;" horiz-adv-x="555" 
d="M80 -49l270 389l-39 367h39l121 -398l-348 -358h-43z" />
    <glyph glyph-name="uniF001" unicode="&#xf001;" horiz-adv-x="961" 
d="M307 618l-88 -536q-67 -412 -193.5 -528.5t-275.5 -116.5q-145 0 -217 55l31 141h35q16 -72 62 -113.5t103 -41.5q111 0 190.5 114t117.5 326l125 700h-150l12 56h150q50 305 153 450.5t273 145.5q79 0 176 -37l20 35h35l-39 -187h-34q-28 148 -170 148
q-116 0 -186.5 -127.5t-117.5 -427.5h373q35 0 79 9l40 9h33l-111 -524q-11 -55 -11 -78q0 -32 19 -43.5t95 -11.5l-7 -35h-360l8 35q74 0 94.5 13.5t36.5 90.5l80 371q10 51 10 67q0 41 -63 41h-328zM745 913q0 27 20.5 46.5t47.5 19.5t46.5 -19.5t19.5 -46.5t-19.5 -47
t-46.5 -20t-47.5 20t-20.5 47z" />
    <glyph glyph-name="uniF001" unicode="&#xfb01;" horiz-adv-x="961" 
d="M307 618l-88 -536q-67 -412 -193.5 -528.5t-275.5 -116.5q-145 0 -217 55l31 141h35q16 -72 62 -113.5t103 -41.5q111 0 190.5 114t117.5 326l125 700h-150l12 56h150q50 305 153 450.5t273 145.5q79 0 176 -37l20 35h35l-39 -187h-34q-28 148 -170 148
q-116 0 -186.5 -127.5t-117.5 -427.5h373q35 0 79 9l40 9h33l-111 -524q-11 -55 -11 -78q0 -32 19 -43.5t95 -11.5l-7 -35h-360l8 35q74 0 94.5 13.5t36.5 90.5l80 371q10 51 10 67q0 41 -63 41h-328zM745 913q0 27 20.5 46.5t47.5 19.5t46.5 -19.5t19.5 -46.5t-19.5 -47
t-46.5 -20t-47.5 20t-20.5 47z" />
    <glyph glyph-name="uniF002" unicode="&#xf002;" horiz-adv-x="981" 
d="M971 1219l-226 -1061q-8 -41 -8 -63q0 -60 72 -60h45l-8 -35h-357l9 35h24q60 0 80 29.5t39 119.5l92 434h-414l-120 -692q-42 -242 -157 -365.5t-288 -123.5q-118 0 -211 55l31 148h35q48 -162 178 -162q107 0 185 117t134 440l103 583h-143v56h153q65 379 189 497
q104 99 233 99q85 0 182 -37l27 35h35l-19 -88q24 9 72 39h33zM743 674l88 407h-22q-30 148 -170 148q-88 0 -156 -77t-98 -218l-55 -260h413z" />
    <glyph glyph-name="uniF002" unicode="&#xfb02;" horiz-adv-x="981" 
d="M971 1219l-226 -1061q-8 -41 -8 -63q0 -60 72 -60h45l-8 -35h-357l9 35h24q60 0 80 29.5t39 119.5l92 434h-414l-120 -692q-42 -242 -157 -365.5t-288 -123.5q-118 0 -211 55l31 148h35q48 -162 178 -162q107 0 185 117t134 440l103 583h-143v56h153q65 379 189 497
q104 99 233 99q85 0 182 -37l27 35h35l-19 -88q24 9 72 39h33zM743 674l88 407h-22q-30 148 -170 148q-88 0 -156 -77t-98 -218l-55 -260h413z" />
    <glyph glyph-name="daggerdbl" unicode="&#x2021;" 
d="M526 772q10 53 10 118l-6 152q0 105 78 105q68 0 68 -68q0 -42 -46.5 -138.5t-66.5 -168.5q93 0 173 19.5t106 19.5q71 0 71 -51q0 -64 -71 -64q-38 0 -110 19t-177 22q-12 -27 -12 -61q0 -54 35 -144q-119 -124 -119 -264q0 -56 33 -141q-94 -102 -109 -203
q79 0 166.5 26.5t116.5 26.5q30 0 50.5 -18.5t20.5 -46.5q0 -66 -73 -66q-31 0 -117.5 21.5t-171.5 21.5q-12 -73 -12 -134q0 -37 5 -81t5 -61q0 -43 -23.5 -71.5t-56.5 -28.5q-70 0 -70 71q0 49 50.5 145.5t64.5 159.5q-98 -1 -176 -22t-96 -21q-78 0 -78 68q0 63 73 63
q26 0 101.5 -24t183.5 -29q12 35 12 71q0 55 -32 132q59 76 86.5 135t27.5 141q0 77 -28 129q74 85 106 205q-104 0 -177 -20.5t-97 -20.5q-34 0 -57 16.5t-23 41.5q0 59 80 59q27 0 90 -20.5t192 -20.5z" />
    <glyph glyph-name="uni00B7" unicode="&#xb7;" horiz-adv-x="559" 
d="M193 610q0 35 26 60.5t62 25.5q35 0 60.5 -25.5t25.5 -60.5t-26 -61.5t-60 -26.5q-36 0 -62 26.5t-26 61.5z" />
    <glyph glyph-name="uni00B7" unicode="&#x2219;" horiz-adv-x="559" 
d="M193 610q0 35 26 60.5t62 25.5q35 0 60.5 -25.5t25.5 -60.5t-26 -61.5t-60 -26.5q-36 0 -62 26.5t-26 61.5z" />
    <glyph glyph-name="quotesinglbase" unicode="&#x201a;" horiz-adv-x="532" 
d="M31 -256l8 37q166 48 166 198q-88 17 -88 88q0 39 25 64t63 25q45 0 73 -35.5t28 -91.5q0 -99 -75 -179.5t-200 -105.5z" />
    <glyph glyph-name="quotedblbase" unicode="&#x201e;" horiz-adv-x="532" 
d="M-119 -279l8 37q166 48 166 198q-88 17 -88 88q0 39 25 64t63 25q45 0 73 -35.5t28 -91.5q0 -99 -75 -179.5t-200 -105.5zM182 -279l8 37q166 48 166 198q-88 17 -88 88q0 39 25 64t63 25q45 0 73 -35.5t28 -91.5q0 -99 -75 -179.5t-200 -105.5z" />
    <glyph glyph-name="perthousand" unicode="&#x2030;" horiz-adv-x="2111" 
d="M477 1196q76 0 129.5 -63t53.5 -154q0 -154 -105.5 -285t-226.5 -131q-79 0 -133 63t-54 156q0 156 105.5 285t230.5 129zM350 600q68 0 135.5 107.5t67.5 273.5q0 77 -30.5 127.5t-75.5 50.5q-75 0 -137 -113.5t-62 -259.5q0 -81 29 -133.5t73 -52.5zM1280 1196h59
l-1085 -1196h-59zM1206 623q76 0 129.5 -63.5t53.5 -153.5q0 -154 -105.5 -285t-226.5 -131q-79 0 -133 62.5t-54 156.5q0 155 105.5 284.5t230.5 129.5zM1079 27q68 0 135.5 107.5t67.5 273.5q0 77 -30.5 127.5t-75.5 50.5q-76 0 -137.5 -113.5t-61.5 -259.5q0 -82 29 -134
t73 -52zM1839 623q76 0 129 -63.5t53 -153.5q0 -154 -105 -285t-226 -131q-80 0 -133.5 62.5t-53.5 156.5q0 155 105.5 284.5t230.5 129.5zM1712 27q67 0 135 107.5t68 273.5q0 77 -30.5 127.5t-76.5 50.5q-75 0 -136.5 -113.5t-61.5 -259.5q0 -82 29 -134t73 -52z" />
    <glyph glyph-name="Acircumflex" unicode="&#xc2;" horiz-adv-x="961" 
d="M768 1161v-1009q0 -69 19 -93t98 -24l-8 -35h-359l-6 35q69 0 92 19.5t23 86.5v332h-260l-117 -199q-92 -158 -92 -198q0 -41 90 -41l-8 -35h-297l8 35q59 4 99 31t97 122l584 973h37zM627 518v395h-4l-228 -395h232zM874 1608l127 -355h-41l-158 248l-278 -248h-47
l325 355h72z" />
    <glyph glyph-name="Ecircumflex" unicode="&#xca;" 
d="M797 711l-56 -265h-39q-7 60 -33 85.5t-108 25.5h-158l-77 -369q-5 -25 -5 -45q0 -88 93 -88h131q124 0 183.5 37.5t117.5 161.5h47l-96 -254h-758l8 35q56 4 86 28t49 115l170 803q5 25 5 43q0 76 -105 78l6 35h664l-39 -185h-35q0 83 -20 106t-99 23h-211l-102 -469
h225q49 0 72.5 23t44.5 76h39zM756 1608l127 -355h-41l-158 248l-278 -248h-47l325 355h72z" />
    <glyph glyph-name="Aacute" unicode="&#xc1;" horiz-adv-x="961" 
d="M768 1161v-1009q0 -69 19 -93t98 -24l-8 -35h-359l-6 35q69 0 92 19.5t23 86.5v332h-260l-117 -199q-92 -158 -92 -198q0 -41 90 -41l-8 -35h-297l8 35q59 4 99 31t97 122l584 973h37zM627 518v395h-4l-228 -395h232zM975 1608l-215 -394h-41l144 394h112z" />
    <glyph glyph-name="Edieresis" unicode="&#xcb;" 
d="M797 711l-56 -265h-39q-7 60 -33 85.5t-108 25.5h-158l-77 -369q-5 -25 -5 -45q0 -88 93 -88h131q124 0 183.5 37.5t117.5 161.5h47l-96 -254h-758l8 35q56 4 86 28t49 115l170 803q5 25 5 43q0 76 -105 78l6 35h664l-39 -185h-35q0 83 -20 106t-99 23h-211l-102 -469
h225q49 0 72.5 23t44.5 76h39zM406 1423q0 35 25 59.5t61 24.5q35 0 59.5 -24.5t24.5 -59.5t-24.5 -60.5t-59.5 -25.5t-60.5 25.5t-25.5 60.5zM785 1423q0 35 25 59.5t61 24.5q35 0 59.5 -24.5t24.5 -59.5t-24.5 -60.5t-59.5 -25.5t-60.5 25.5t-25.5 60.5z" />
    <glyph glyph-name="Egrave" unicode="&#xc8;" 
d="M797 711l-56 -265h-39q-7 60 -33 85.5t-108 25.5h-158l-77 -369q-5 -25 -5 -45q0 -88 93 -88h131q124 0 183.5 37.5t117.5 161.5h47l-96 -254h-758l8 35q56 4 86 28t49 115l170 803q5 25 5 43q0 76 -105 78l6 35h664l-39 -185h-35q0 83 -20 106t-99 23h-211l-102 -469
h225q49 0 72.5 23t44.5 76h39zM487 1608h112l144 -394h-41z" />
    <glyph glyph-name="Iacute" unicode="&#xcd;" horiz-adv-x="532" 
d="M596 1137l-6 -35q-48 -10 -73 -38.5t-44 -115.5l-166 -774q-10 -47 -10 -72q0 -64 84 -67l-8 -35h-355l9 35q58 4 88.5 25t50.5 114l166 774q12 56 12 85q0 38 -19.5 53.5t-82.5 15.5l8 35h346zM653 1608l-215 -394h-41l144 394h112z" />
    <glyph glyph-name="Icircumflex" unicode="&#xce;" horiz-adv-x="532" 
d="M596 1137l-6 -35q-48 -10 -73 -38.5t-44 -115.5l-166 -774q-10 -47 -10 -72q0 -64 84 -67l-8 -35h-355l9 35q58 4 88.5 25t50.5 114l166 774q12 56 12 85q0 38 -19.5 53.5t-82.5 15.5l8 35h346zM553 1608l127 -355h-41l-158 248l-278 -248h-47l325 355h72z" />
    <glyph glyph-name="Idieresis" unicode="&#xcf;" horiz-adv-x="532" 
d="M596 1137l-6 -35q-48 -10 -73 -38.5t-44 -115.5l-166 -774q-10 -47 -10 -72q0 -64 84 -67l-8 -35h-355l9 35q58 4 88.5 25t50.5 114l166 774q12 56 12 85q0 38 -19.5 53.5t-82.5 15.5l8 35h346zM203 1423q0 35 25 59.5t61 24.5q35 0 59.5 -24.5t24.5 -59.5t-24.5 -60.5
t-59.5 -25.5t-60.5 25.5t-25.5 60.5zM582 1423q0 35 25 59.5t61 24.5q35 0 59.5 -24.5t24.5 -59.5t-24.5 -60.5t-59.5 -25.5t-60.5 25.5t-25.5 60.5z" />
    <glyph glyph-name="Igrave" unicode="&#xcc;" horiz-adv-x="532" 
d="M596 1137l-6 -35q-48 -10 -73 -38.5t-44 -115.5l-166 -774q-10 -47 -10 -72q0 -64 84 -67l-8 -35h-355l9 35q58 4 88.5 25t50.5 114l166 774q12 56 12 85q0 38 -19.5 53.5t-82.5 15.5l8 35h346zM285 1608h112l144 -394h-41z" />
    <glyph glyph-name="Oacute" unicode="&#xd3;" horiz-adv-x="1153" 
d="M750 1161q171 0 274.5 -113.5t103.5 -302.5q0 -283 -179.5 -526.5t-434.5 -243.5q-166 0 -270.5 116t-104.5 302q0 285 183 526.5t428 241.5zM555 20q187 0 304.5 238t117.5 514q0 152 -74 248t-188 96q-176 0 -300 -231.5t-124 -517.5q0 -157 72.5 -252t191.5 -95z
M963 1608l-215 -394h-41l144 394h112z" />
    <glyph glyph-name="Ocircumflex" unicode="&#xd4;" horiz-adv-x="1153" 
d="M750 1161q171 0 274.5 -113.5t103.5 -302.5q0 -283 -179.5 -526.5t-434.5 -243.5q-166 0 -270.5 116t-104.5 302q0 285 183 526.5t428 241.5zM555 20q187 0 304.5 238t117.5 514q0 152 -74 248t-188 96q-176 0 -300 -231.5t-124 -517.5q0 -157 72.5 -252t191.5 -95z
M862 1608l127 -355h-41l-158 248l-278 -248h-47l325 355h72z" />
    <glyph glyph-name="uniF000" unicode="&#xf000;" horiz-adv-x="1618" 
 />
    <glyph glyph-name="Ograve" unicode="&#xd2;" horiz-adv-x="1153" 
d="M750 1161q171 0 274.5 -113.5t103.5 -302.5q0 -283 -179.5 -526.5t-434.5 -243.5q-166 0 -270.5 116t-104.5 302q0 285 183 526.5t428 241.5zM555 20q187 0 304.5 238t117.5 514q0 152 -74 248t-188 96q-176 0 -300 -231.5t-124 -517.5q0 -157 72.5 -252t191.5 -95z
M594 1608h112l144 -394h-41z" />
    <glyph glyph-name="Uacute" unicode="&#xda;" horiz-adv-x="1217" 
d="M896 313l135 645q10 50 10 73q0 71 -104 71l8 35h369l-9 -35q-57 -8 -85.5 -32t-51.5 -134l-113 -537q-43 -203 -170.5 -313.5t-306.5 -110.5q-157 0 -261 91.5t-104 242.5q0 49 11 103l117 546q10 49 10 72q0 67 -107 72l9 35h370l-8 -35q-65 -3 -90.5 -35.5
t-46.5 -130.5l-117 -549q-14 -65 -14 -121q0 -246 250 -246q112 0 192 81.5t107 211.5zM1006 1608l-215 -394h-41l144 394h112z" />
    <glyph glyph-name="Ucircumflex" unicode="&#xdb;" horiz-adv-x="1217" 
d="M896 313l135 645q10 50 10 73q0 71 -104 71l8 35h369l-9 -35q-57 -8 -85.5 -32t-51.5 -134l-113 -537q-43 -203 -170.5 -313.5t-306.5 -110.5q-157 0 -261 91.5t-104 242.5q0 49 11 103l117 546q10 49 10 72q0 67 -107 72l9 35h370l-8 -35q-65 -3 -90.5 -35.5
t-46.5 -130.5l-117 -549q-14 -65 -14 -121q0 -246 250 -246q112 0 192 81.5t107 211.5zM906 1608l127 -355h-41l-158 248l-278 -248h-47l325 355h72z" />
    <glyph glyph-name="Ugrave" unicode="&#xd9;" horiz-adv-x="1217" 
d="M896 313l135 645q10 50 10 73q0 71 -104 71l8 35h369l-9 -35q-57 -8 -85.5 -32t-51.5 -134l-113 -537q-43 -203 -170.5 -313.5t-306.5 -110.5q-157 0 -261 91.5t-104 242.5q0 49 11 103l117 546q10 49 10 72q0 67 -107 72l9 35h370l-8 -35q-65 -3 -90.5 -35.5
t-46.5 -130.5l-117 -549q-14 -65 -14 -121q0 -246 250 -246q112 0 192 81.5t107 211.5zM638 1608h112l144 -394h-41z" />
    <glyph glyph-name="dotlessi" unicode="&#x131;" horiz-adv-x="492" 
d="M399 692l-110 -524q-11 -55 -11 -78q0 -32 19 -43.5t94 -11.5l-6 -35h-360l8 35q74 0 94 13.5t37 90.5l80 371q6 30 6 47q0 51 -57 51l-80 -10l8 41l237 53h41z" />
    <glyph glyph-name="circumflex" unicode="&#x2c6;" horiz-adv-x="682" 
d="M559 1219l127 -355h-41l-158 248l-278 -248h-47l325 355h72z" />
    <glyph glyph-name="tilde" unicode="&#x2dc;" horiz-adv-x="682" 
d="M711 1116h34q-5 -72 -54 -124t-103 -52q-50 0 -165 47t-151 47q-64 0 -84 -92h-36q3 75 56 124.5t116 49.5q77 0 175.5 -47t125.5 -47q71 0 86 94z" />
    <glyph glyph-name="macron" unicode="&#x2c9;" horiz-adv-x="682" 
d="M197 1067h522v-88h-522v88z" />
    <glyph glyph-name="breve" unicode="&#x2d8;" horiz-adv-x="682" 
d="M664 1167h39q-39 -137 -113 -213.5t-159 -76.5q-63 0 -106.5 57t-43.5 156q0 37 7 77h38q3 -182 115 -182q61 0 122 48.5t101 133.5z" />
    <glyph glyph-name="dotaccent" unicode="&#x2d9;" horiz-adv-x="682" 
d="M395 1034q0 35 25.5 59.5t60.5 24.5t59.5 -24.5t24.5 -59.5t-24.5 -60.5t-59.5 -25.5t-60.5 25.5t-25.5 60.5z" />
    <glyph glyph-name="ring" unicode="&#x2da;" horiz-adv-x="682" 
d="M297 1028q0 73 52.5 125.5t125.5 52.5t125.5 -52.5t52.5 -125.5t-52.5 -125.5t-125.5 -52.5t-125.5 52.5t-52.5 125.5zM604 1028q0 54 -37.5 91.5t-91.5 37.5q-53 0 -91 -37.5t-38 -91.5q0 -53 38 -91t91 -38q54 0 91.5 38t37.5 91z" />
    <glyph glyph-name="cedilla" unicode="&#xb8;" horiz-adv-x="682" 
d="M360 35l-55 -135q94 -31 94 -113q0 -158 -268 -207l8 39q166 52 166 141q0 55 -72 74l86 201h41z" />
    <glyph glyph-name="hungarumlaut" unicode="&#x2dd;" horiz-adv-x="682" 
d="M780 1219l-215 -394h-41l144 394h112zM563 1219l-215 -394h-41l144 394h112z" />
    <glyph glyph-name="ogonek" unicode="&#x2db;" horiz-adv-x="682" 
d="M201 0h47q-35 -89 -35 -125q0 -48 43 -82.5t104 -34.5q65 0 132 41l20 -35q-98 -96 -221 -96q-77 0 -124.5 44t-47.5 114q0 88 82 174z" />
    <glyph glyph-name="caron" unicode="&#x2c7;" horiz-adv-x="682" 
d="M391 864l-127 355h41l158 -248l278 248h47l-325 -355h-72z" />
    <glyph glyph-name="Lslash" unicode="&#x141;" horiz-adv-x="831" 
d="M780 176l-55 -176h-711l9 35q66 8 91.5 34.5t43.5 106.5l61 281l-4 4l-221 -205l18 82l221 197l89 419q12 61 12 84q0 64 -107 64l6 35h371l-6 -35q-56 -3 -86 -29.5t-49 -118.5l-60 -286l5 -4l231 217l-14 -76l-238 -215l-92 -422q-4 -20 -4 -37q0 -86 117 -86h67
q130 0 187 29.5t86 101.5h32z" />
    <glyph glyph-name="lslash" unicode="&#x142;" horiz-adv-x="492" 
d="M502 1219l-119 -545l4 -4l197 166l-19 -66l-190 -154l-101 -466q-9 -45 -9 -66q0 -28 16.5 -38.5t64.5 -10.5h41l-8 -35h-369l6 35h25q67 0 85.5 28.5t45.5 153.5l68 307l-4 4l-205 -172l12 58l207 170l96 452q5 22 5 37q0 49 -60 49q-30 0 -76 -8l6 37l240 68h41z" />
    <glyph glyph-name="Scaron" unicode="&#x160;" horiz-adv-x="831" 
d="M811 1163l-47 -221h-37q9 82 -43.5 128t-126.5 46q-84 0 -141.5 -61t-57.5 -131q0 -69 31 -133t147 -198.5t149.5 -191.5t33.5 -145q0 -121 -95 -201t-241 -80q-69 0 -138 20.5t-83 20.5q-33 0 -47 -45h-41l47 219h39q27 -79 94.5 -124.5t151.5 -45.5q76 0 130 57t54 138
q0 104 -137.5 255.5t-171 220.5t-33.5 145q0 133 95 229t226 96q65 0 115.5 -17.5t63.5 -17.5q11 0 26 37h37zM535 1253l-127 355h41l158 -248l278 248h47l-325 -355h-72z" />
    <glyph glyph-name="scaron" unicode="&#x161;" horiz-adv-x="512" 
d="M510 686l-35 -164h-33q-24 127 -129 127q-41 0 -70.5 -25.5t-29.5 -60.5q0 -59 86 -161t106.5 -149t20.5 -87q0 -84 -71 -136.5t-185 -52.5q-43 0 -74 11l-22 6q-11 0 -31 -12h-35l37 176h37q-3 -14 -3 -28q0 -47 34 -79.5t77 -32.5q56 0 96 32.5t40 76.5
q0 63 -100.5 182.5t-100.5 177.5q0 87 64.5 148t156.5 61q40 0 72.5 -8t34.5 -8q9 0 16 3t8 3h33zM307 864l-127 355h41l158 -248l278 248h47l-325 -355h-72z" />
    <glyph glyph-name="Zcaron" unicode="&#x17d;" horiz-adv-x="1044" 
d="M1094 1092l-861 -1047h408q131 0 179.5 35t78.5 113h35l-41 -193h-854l8 35l877 1057h-371q-106 0 -154 -36.5t-80 -129.5h-34l45 211h772zM641 1253l-127 355h41l158 -248l278 248h47l-325 -355h-72z" />
    <glyph glyph-name="zcaron" unicode="&#x17e;" horiz-adv-x="748" 
d="M717 674v-35l-539 -604h230q103 0 138.5 30t55.5 103h35l-35 -168h-569v35l534 604h-215q-146 0 -174 -119h-35l33 154h541zM391 864l-127 355h41l158 -248l278 248h47l-325 -355h-72z" />
    <glyph glyph-name="brokenbar" unicode="&#xa6;" horiz-adv-x="1016" 
d="M483 1219h90v-721h-90v721zM483 236h90v-719h-90v719z" />
    <glyph glyph-name="uni00AD" unicode="&#xad;" horiz-adv-x="641" 
d="M537 375l-17 -76h-420l17 76h420z" />
    <glyph glyph-name="uni00AF" unicode="&#xaf;" horiz-adv-x="1024" 
d="M302 1344h1060v-102h-1060v102z" />
    <glyph glyph-name="Eth" unicode="&#xd0;" horiz-adv-x="1194" 
d="M18 0l9 35q65 0 96.5 30.5t48.5 112.5l80 377h-201l10 45h201l103 485q-83 -16 -172 -88l-19 27q137 137 354 137q266 0 436.5 -164t170.5 -419q0 -245 -171.5 -411.5t-461.5 -166.5h-484zM510 1102l-107 -502h273l-10 -45h-273l-86 -408q-2 -9 -2 -18q0 -84 164 -84
q253 0 383.5 138.5t130.5 369.5q0 223 -124.5 381t-348.5 168z" />
    <glyph glyph-name="eth" unicode="&#xf0;" horiz-adv-x="733" 
d="M854 1184l-215 -101q66 -188 66 -434q0 -305 -135.5 -488.5t-293.5 -183.5q-105 0 -166 64t-61 174q0 182 132 331.5t290 149.5q63 0 119 -43q6 73 6 133q0 137 -31 263l-209 -97l-20 45l215 101q-17 65 -53 147l45 25q48 -61 78 -140l213 99zM307 37q104 0 187.5 140
t83.5 278q0 84 -43.5 133t-116.5 49q-97 0 -172.5 -123t-75.5 -289q0 -86 37.5 -137t99.5 -51z" />
    <glyph glyph-name="Yacute" unicode="&#xdd;" 
d="M643 629l-92 -451q-13 -63 -13 -83q0 -60 101 -60l-8 -35h-363l8 35q57 6 85.5 28.5t41.5 86.5l95 454l-164 393q-31 76 -58 89t-77 16l8 35h338l-8 -35q-71 -3 -71 -47q0 -24 23 -80l127 -307l228 307q39 53 39 78q0 49 -90 49l8 35h293l-9 -35q-42 0 -79.5 -20.5
t-102.5 -106.5zM856 1608l-215 -394h-41l144 394h112z" />
    <glyph glyph-name="yacute" unicode="&#xfd;" horiz-adv-x="748" 
d="M782 674l-8 -35q-49 -4 -73.5 -28t-61.5 -91l-387 -700q-78 -141 -140.5 -212.5t-158 -127t-193.5 -55.5q-7 0 -51 6l39 110q166 0 286.5 96t221.5 287l-47 576q-8 95 -23.5 117t-60.5 22l8 35h301l-8 -35q-63 0 -86 -15t-23 -62q0 -14 2 -40l35 -426h4l222 404
q38 70 38 96q0 43 -63 43l8 35h219zM692 1219l-215 -394h-41l144 394h112z" />
    <glyph glyph-name="Thorn" unicode="&#xde;" horiz-adv-x="831" 
d="M465 956l-19 -84q164 0 259.5 -79t95.5 -213q0 -139 -103 -238.5t-245 -99.5q-61 0 -136 18l-18 -80q-11 -45 -11 -71q0 -74 97 -74h25l-7 -35h-376l6 35q51 3 78.5 31.5t46.5 113.5l166 776q9 46 9 71q0 75 -95 75h-25l6 35h377l-6 -35q-48 -3 -76.5 -29t-48.5 -117z
M434 813l-108 -512q41 -14 86 -14q107 0 172 75t65 199q0 241 -215 252z" />
    <glyph glyph-name="thorn" unicode="&#xfe;" horiz-adv-x="788" 
d="M473 1219l-133 -611l4 -4q99 92 213 92q85 0 145 -71t60 -174q0 -181 -156.5 -325t-396.5 -144l-68 -316q-11 -55 -11 -82q0 -55 52 -55q25 0 70 10l-10 -47l-228 -55h-41l336 1567q8 34 8 59q0 70 -67 70q-19 0 -57 -7l8 35l237 58h35zM328 543l-105 -492q29 -4 72 -4
q152 0 249 106.5t97 272.5q0 88 -43 141.5t-115 53.5q-74 0 -155 -78z" />
    <glyph glyph-name="minus" unicode="&#x2212;" horiz-adv-x="1366" 
d="M176 582h1075v-88h-1075v88z" />
    <glyph glyph-name="multiply" unicode="&#xd7;" horiz-adv-x="1368" 
d="M293 1020l422 -422l422 422l61 -62l-422 -421l422 -422l-61 -62l-422 422l-422 -422l-62 62l422 422l-422 421z" />
    <glyph glyph-name="onesuperior" unicode="&#xb9;" horiz-adv-x="641" 
d="M532 1198l-122 -512q-6 -21 -6 -36q0 -42 40 -42h35l-8 -35h-260l8 35h27q38 0 47.5 9t19.5 51l95 383q5 21 5 37q0 28 -18 28q-24 0 -71 -14l6 35l166 61h36z" />
    <glyph glyph-name="twosuperior" unicode="&#xb2;" horiz-adv-x="641" 
d="M563 639l-14 -66h-406l7 27q181 139 281.5 258.5t100.5 194.5q0 42 -25 68t-67 26q-67 0 -159 -90l-31 20q117 121 229 121q68 0 115 -36t47 -87q0 -93 -97.5 -192t-291.5 -240v-4h311z" />
    <glyph glyph-name="threesuperior" unicode="&#xb3;" horiz-adv-x="641" 
d="M305 1083l-24 23q93 92 215 92q62 0 103.5 -32t41.5 -79q0 -107 -176 -167v-5q62 -18 98.5 -59.5t36.5 -89.5q0 -83 -75.5 -143t-182.5 -60q-119 0 -213 86l25 23q102 -58 157 -58q73 0 125.5 51.5t52.5 120.5q0 93 -139 93q-22 0 -47 -2l6 28q221 53 221 158
q0 37 -23 60.5t-61 23.5q-57 0 -141 -64z" />
    <glyph glyph-name="onehalf" unicode="&#xbd;" horiz-adv-x="1536" 
d="M532 1198l-122 -512q-6 -21 -6 -36q0 -42 40 -42h35l-8 -35h-260l8 35h27q38 0 47.5 9t19.5 51l95 383q5 21 5 37q0 28 -18 28q-24 0 -71 -14l6 35l166 61h36zM1309 1196h60l-1088 -1196h-68zM1341 66l-14 -66h-406l7 27q181 139 281.5 258.5t100.5 194.5q0 42 -25 68
t-67 26q-67 0 -159 -90l-31 20q117 121 229 121q68 0 115 -36t47 -87q0 -93 -97.5 -192t-291.5 -240v-4h311z" />
    <glyph glyph-name="onequarter" unicode="&#xbc;" horiz-adv-x="1536" 
d="M532 1198l-122 -512q-6 -21 -6 -36q0 -42 40 -42h35l-8 -35h-260l8 35h27q38 0 47.5 9t19.5 51l95 383q5 21 5 37q0 28 -18 28q-24 0 -71 -14l6 35l166 61h36zM1309 1196h60l-1088 -1196h-68zM1364 213l-12 -55h-138l-36 -158h-88l38 158h-319l6 26l481 443h35l-102 -414
h135zM1204 485l-301 -272h238l67 268z" />
    <glyph glyph-name="threequarters" unicode="&#xbe;" horiz-adv-x="1536" 
d="M305 1083l-24 23q93 92 215 92q62 0 103.5 -32t41.5 -79q0 -107 -176 -167v-5q62 -18 98.5 -59.5t36.5 -89.5q0 -83 -75.5 -143t-182.5 -60q-119 0 -213 86l25 23q102 -58 157 -58q73 0 125.5 51.5t52.5 120.5q0 93 -139 93q-22 0 -47 -2l6 28q221 53 221 158
q0 37 -23 60.5t-61 23.5q-57 0 -141 -64zM1321 1196h60l-1088 -1196h-68zM1376 213l-12 -55h-138l-36 -158h-88l38 158h-319l6 26l481 443h35l-102 -414h135zM1216 485l-301 -272h238l67 268z" />
    <glyph glyph-name="uniF003" unicode="&#xf003;" horiz-adv-x="641" 
d="M650 785l-12 -55h-138l-36 -158h-88l38 158h-319l6 26l481 443h35l-102 -414h135zM490 1057l-301 -272h238l67 268z" />
    <glyph glyph-name="currency" unicode="&#xa4;" horiz-adv-x="1389" 
d="M977 999l123 123l61 -61l-123 -123q101 -119 101 -283t-101 -282l123 -123l-61 -62l-125 125q-112 -102 -281 -102q-155 0 -282 100l-123 -123l-62 62l123 123q-100 122 -100 282q0 157 100 283l-123 123l62 61l123 -123q129 101 282 101q157 0 283 -101zM1049 655
q0 147 -104 251t-251 104q-146 0 -250 -104t-104 -251q0 -146 104 -250t250 -104q147 0 251 104t104 250z" />
    </font>
</defs>
</svg>
